<svg width="35" height="5" viewBox="0 0 35 5" fill="none" xmlns="http://www.w3.org/2000/svg">
<path d="M3.07103 0.464357C3.16409 0.514558 3.23685 0.581493 3.2893 0.665161C3.34175 0.747155 3.36798 0.843374 3.36798 0.953815C3.36798 1.10609 3.33752 1.23996 3.27661 1.35542C3.2157 1.47088 3.13617 1.56794 3.03803 1.64659C2.9382 1.72691 2.82484 1.79384 2.69794 1.84739C2.57273 1.89926 2.44582 1.93775 2.31723 1.96285V1.98544C2.41537 1.99716 2.51689 2.02058 2.62179 2.05572C2.7267 2.08919 2.82145 2.13437 2.90605 2.19127C2.99573 2.24983 3.06849 2.32597 3.12433 2.41968C3.18185 2.51171 3.21062 2.62132 3.21062 2.74849C3.21062 2.93758 3.16578 3.10492 3.0761 3.2505C2.98812 3.39441 2.87644 3.51155 2.74108 3.60191C2.59557 3.69896 2.43906 3.77092 2.27154 3.81777C2.10573 3.86295 1.93483 3.88554 1.75886 3.88554H0L0.0406086 3.71988C0.0812172 3.71653 0.14213 3.70984 0.223347 3.6998C0.304565 3.68809 0.36294 3.6747 0.398472 3.65964C0.457693 3.63621 0.502532 3.60442 0.532988 3.56426C0.565137 3.52242 0.587979 3.47222 0.601515 3.41365L1.20303 0.828313C1.20641 0.81158 1.20895 0.795683 1.21064 0.780622C1.21403 0.763889 1.21572 0.747155 1.21572 0.730422C1.21572 0.695281 1.20811 0.665161 1.19288 0.64006C1.17934 0.613286 1.15481 0.590696 1.11928 0.572289C1.07021 0.545515 1.01775 0.526272 0.961917 0.514558C0.907772 0.501171 0.857011 0.492805 0.809634 0.489458L0.850243 0.323795H2.43906C2.55919 0.323795 2.67086 0.334672 2.77408 0.356426C2.87898 0.376506 2.97797 0.412483 3.07103 0.464357ZM2.53296 1.62149C2.61249 1.52945 2.66917 1.4324 2.70301 1.33032C2.73854 1.22657 2.75631 1.10944 2.75631 0.978916C2.75631 0.890228 2.74024 0.814926 2.70809 0.753012C2.67594 0.691098 2.63195 0.641734 2.57611 0.60492C2.52027 0.569779 2.45851 0.545515 2.39083 0.532129C2.32315 0.517068 2.25209 0.509538 2.17764 0.509538C2.1218 0.509538 2.0592 0.511212 1.98982 0.514558C1.92214 0.516232 1.86461 0.517905 1.81724 0.519578L1.4949 1.90512H1.81216C1.97798 1.90512 2.12095 1.87918 2.24109 1.82731C2.36291 1.77544 2.46021 1.70683 2.53296 1.62149ZM2.36799 3.34337C2.44075 3.24465 2.49574 3.13671 2.53296 3.01958C2.57019 2.90244 2.5888 2.78698 2.5888 2.67319C2.5888 2.49414 2.52789 2.35358 2.40606 2.25151C2.28423 2.14943 2.11334 2.09839 1.89338 2.09839C1.78678 2.09839 1.69541 2.10007 1.61927 2.10341C1.54313 2.10509 1.4856 2.10676 1.44668 2.10843L1.15988 3.33584C1.15481 3.35927 1.15058 3.38102 1.14719 3.4011C1.1455 3.42118 1.14466 3.44043 1.14466 3.45884C1.14466 3.54585 1.18949 3.6086 1.27917 3.64709C1.36885 3.68558 1.48306 3.70482 1.62181 3.70482C1.7927 3.70482 1.94075 3.67052 2.06596 3.60191C2.19287 3.53163 2.29354 3.44545 2.36799 3.34337Z" fill="black" fill-opacity="0.9"/>
<path d="M5.21551 3.53414H5.20028C5.12245 3.59605 5.048 3.65295 4.97693 3.70482C4.90587 3.75669 4.83565 3.8002 4.76628 3.83534C4.68506 3.8755 4.61146 3.90395 4.54547 3.92068C4.47948 3.93909 4.39318 3.94829 4.28659 3.94829C4.12415 3.94829 3.9981 3.90228 3.90842 3.81024C3.81874 3.71653 3.7739 3.59438 3.7739 3.44378C3.7739 3.40361 3.77729 3.35592 3.78405 3.3007C3.79082 3.24548 3.8069 3.16349 3.83228 3.05472L4.03024 2.25904C4.04716 2.18541 4.0607 2.12015 4.07085 2.06325C4.0827 2.00636 4.08862 1.95197 4.08862 1.9001C4.08862 1.80639 4.07255 1.74448 4.0404 1.71436C4.00994 1.68256 3.94649 1.66667 3.85004 1.66667C3.81282 1.66667 3.76544 1.67336 3.70791 1.68675C3.65038 1.70013 3.60555 1.71101 3.5734 1.71938L3.61147 1.55873C3.74345 1.50017 3.85935 1.45582 3.95918 1.4257C4.0607 1.39558 4.14192 1.38052 4.20283 1.38052C4.33819 1.38052 4.43718 1.41232 4.49978 1.4759C4.56408 1.53782 4.59623 1.62651 4.59623 1.74197C4.59623 1.77209 4.59284 1.81309 4.58608 1.86496C4.57931 1.91683 4.56915 1.96871 4.55562 2.02058L4.32973 2.9493C4.31281 3.01958 4.29843 3.08568 4.28659 3.14759C4.27643 3.20783 4.27136 3.25385 4.27136 3.28564C4.27136 3.39776 4.29589 3.48645 4.34496 3.55171C4.39403 3.61697 4.47186 3.6496 4.57846 3.6496C4.68675 3.6496 4.79758 3.62199 4.91094 3.56677C5.026 3.50987 5.14106 3.42453 5.25612 3.31074L5.70027 1.42068L6.14189 1.39056L6.17235 1.42821L5.79418 3.04468C5.77726 3.11329 5.76203 3.18273 5.7485 3.25301C5.73496 3.32162 5.72819 3.37015 5.72819 3.39859C5.72819 3.49398 5.7485 3.55924 5.78911 3.59438C5.83141 3.62784 5.90078 3.64458 5.99722 3.64458C6.02937 3.64458 6.07506 3.63956 6.13428 3.62952C6.1935 3.61948 6.23918 3.6086 6.27133 3.59689L6.23326 3.75753C6.09282 3.81442 5.97523 3.8571 5.88047 3.88554C5.78741 3.91399 5.70112 3.92821 5.6216 3.92821C5.48454 3.92821 5.38217 3.88889 5.31449 3.81024C5.2485 3.73159 5.21551 3.63956 5.21551 3.53414Z" fill="black" fill-opacity="0.9"/>
<path d="M7.48689 3.95582C7.19079 3.95582 6.95644 3.87048 6.78386 3.6998C6.61296 3.52912 6.52751 3.28648 6.52751 2.97189C6.52751 2.76272 6.55966 2.56275 6.62396 2.37199C6.68995 2.17955 6.78132 2.00887 6.89807 1.85994C7.01482 1.71101 7.16202 1.58969 7.33969 1.49598C7.51904 1.4006 7.71785 1.35291 7.93613 1.35291C8.17809 1.35291 8.36167 1.40395 8.48688 1.50602C8.61378 1.60643 8.67723 1.7336 8.67723 1.88755C8.67723 2.00301 8.64931 2.10425 8.59348 2.19127C8.53933 2.27828 8.45727 2.32179 8.34729 2.32179C8.25592 2.32179 8.18739 2.2992 8.14171 2.25402C8.09602 2.20884 8.07318 2.15863 8.07318 2.10341C8.07318 2.04987 8.09179 1.97707 8.12902 1.88504C8.16624 1.79133 8.19585 1.71603 8.21785 1.65914C8.19924 1.61396 8.15778 1.58133 8.09348 1.56124C8.02919 1.53949 7.96235 1.52861 7.89298 1.52861C7.66286 1.52861 7.46405 1.66165 7.29654 1.92771C7.13072 2.1921 7.04781 2.51673 7.04781 2.90161C7.04781 3.13922 7.10111 3.32831 7.20771 3.46888C7.316 3.60776 7.46151 3.67721 7.64425 3.67721C7.80838 3.67721 7.95389 3.6337 8.08079 3.54669C8.20939 3.45967 8.33206 3.33668 8.44881 3.17771L8.59348 3.28313C8.47673 3.46553 8.31768 3.62366 8.11633 3.75753C7.91667 3.88973 7.70686 3.95582 7.48689 3.95582Z" fill="black" fill-opacity="0.9"/>
<path d="M9.79381 3.95582C9.4977 3.95582 9.26336 3.87048 9.09077 3.6998C8.91988 3.52912 8.83443 3.28648 8.83443 2.97189C8.83443 2.76272 8.86658 2.56275 8.93088 2.37199C8.99686 2.17955 9.08823 2.00887 9.20498 1.85994C9.32173 1.71101 9.46894 1.58969 9.6466 1.49598C9.82596 1.4006 10.0248 1.35291 10.243 1.35291C10.485 1.35291 10.6686 1.40395 10.7938 1.50602C10.9207 1.60643 10.9841 1.7336 10.9841 1.88755C10.9841 2.00301 10.9562 2.10425 10.9004 2.19127C10.8462 2.27828 10.7642 2.32179 10.6542 2.32179C10.5628 2.32179 10.4943 2.2992 10.4486 2.25402C10.4029 2.20884 10.3801 2.15863 10.3801 2.10341C10.3801 2.04987 10.3987 1.97707 10.4359 1.88504C10.4732 1.79133 10.5028 1.71603 10.5248 1.65914C10.5062 1.61396 10.4647 1.58133 10.4004 1.56124C10.3361 1.53949 10.2693 1.52861 10.1999 1.52861C9.96978 1.52861 9.77097 1.66165 9.60346 1.92771C9.43764 2.1921 9.35473 2.51673 9.35473 2.90161C9.35473 3.13922 9.40803 3.32831 9.51462 3.46888C9.62291 3.60776 9.76843 3.67721 9.95117 3.67721C10.1153 3.67721 10.2608 3.6337 10.3877 3.54669C10.5163 3.45967 10.639 3.33668 10.7557 3.17771L10.9004 3.28313C10.7836 3.46553 10.6246 3.62366 10.4232 3.75753C10.2236 3.88973 10.0138 3.95582 9.79381 3.95582Z" fill="black" fill-opacity="0.9"/>
<path d="M12.7378 3.55422H12.72C12.6828 3.58434 12.6379 3.62282 12.5855 3.66968C12.5347 3.71486 12.4747 3.75837 12.4053 3.8002C12.3393 3.84203 12.2674 3.87801 12.1896 3.90813C12.1117 3.93993 12.0271 3.95582 11.9358 3.95582C11.6904 3.95582 11.4975 3.86881 11.3571 3.69478C11.2183 3.52075 11.149 3.28313 11.149 2.98193C11.149 2.77443 11.1879 2.57279 11.2657 2.37701C11.3435 2.18122 11.451 2.00552 11.588 1.8499C11.7183 1.70097 11.8731 1.58133 12.0525 1.49096C12.2319 1.39893 12.4163 1.35291 12.6058 1.35291C12.7259 1.35291 12.8401 1.36881 12.9484 1.4006C13.0584 1.4324 13.1447 1.46837 13.2073 1.50853L13.6718 1.39056L13.7022 1.42821L13.3164 3.04719C13.3029 3.09906 13.2885 3.16265 13.2733 3.23795C13.2598 3.31158 13.253 3.36596 13.253 3.4011C13.253 3.49649 13.2733 3.56091 13.3139 3.59438C13.3545 3.62784 13.423 3.64458 13.5195 3.64458C13.5516 3.64458 13.5973 3.63956 13.6565 3.62952C13.7158 3.61948 13.7614 3.6086 13.7936 3.59689L13.7555 3.75753C13.6032 3.81777 13.4899 3.86128 13.4154 3.88805C13.341 3.91483 13.2505 3.92821 13.1439 3.92821C13.022 3.92821 12.9256 3.89307 12.8545 3.82279C12.7835 3.75251 12.7445 3.66299 12.7378 3.55422ZM13.1007 1.96787C13.1007 1.91265 13.0948 1.85994 13.0829 1.80974C13.0711 1.75954 13.0466 1.71268 13.0093 1.66918C12.9755 1.62734 12.929 1.59388 12.8698 1.56878C12.8105 1.54367 12.7361 1.53112 12.6464 1.53112C12.5229 1.53112 12.4028 1.57129 12.286 1.65161C12.1693 1.73193 12.0643 1.83986 11.9713 1.9754C11.8833 2.10258 11.8114 2.25653 11.7556 2.43725C11.6997 2.61797 11.6718 2.8012 11.6718 2.98695C11.6718 3.08902 11.6777 3.17938 11.6896 3.25803C11.7014 3.33668 11.7242 3.40863 11.7581 3.4739C11.7902 3.53748 11.8368 3.58685 11.8977 3.62199C11.9586 3.65713 12.0356 3.6747 12.1286 3.6747C12.2234 3.6747 12.3224 3.64876 12.4256 3.59689C12.5305 3.54334 12.6481 3.45047 12.7784 3.31827L13.1007 1.96787Z" fill="black" fill-opacity="0.9"/>
<path d="M16.8871 3.54167H16.8694C16.8322 3.57346 16.7839 3.61529 16.7247 3.66717C16.6655 3.71737 16.6037 3.76171 16.5394 3.8002C16.4582 3.8504 16.3829 3.88889 16.3135 3.91566C16.2459 3.94244 16.1621 3.95582 16.0623 3.95582C15.8169 3.95582 15.624 3.86881 15.4836 3.69478C15.3449 3.51908 15.2755 3.28062 15.2755 2.97942C15.2755 2.76857 15.3127 2.56526 15.3872 2.36948C15.4633 2.17369 15.5665 1.99967 15.6968 1.84739C15.8237 1.70013 15.976 1.58133 16.1537 1.49096C16.333 1.39893 16.52 1.35291 16.7146 1.35291C16.8313 1.35291 16.9472 1.36797 17.0623 1.39809C17.1773 1.42821 17.2721 1.46503 17.3465 1.50853L17.5445 0.65512C17.5546 0.60994 17.5614 0.574799 17.5648 0.549699C17.5699 0.524598 17.5724 0.496988 17.5724 0.466867C17.5724 0.406627 17.5597 0.360609 17.5343 0.328815C17.5107 0.297021 17.4768 0.273594 17.4328 0.258534C17.3922 0.243474 17.3364 0.233434 17.2653 0.228414C17.1942 0.223394 17.1299 0.217537 17.0724 0.210843L17.108 0.0577309L18.1359 0L18.1612 0.0376506L17.4582 3.04719C17.4447 3.10241 17.4303 3.166 17.4151 3.23795C17.4015 3.30823 17.3948 3.36178 17.3948 3.39859C17.3948 3.49398 17.4151 3.55924 17.4557 3.59438C17.4963 3.62784 17.5648 3.64458 17.6612 3.64458C17.6934 3.64458 17.7391 3.63956 17.7983 3.62952C17.8575 3.61948 17.9032 3.6086 17.9354 3.59689L17.8973 3.75753C17.7552 3.82112 17.6376 3.86546 17.5445 3.89056C17.4514 3.91566 17.3651 3.92821 17.2856 3.92821C17.1638 3.92821 17.0665 3.89726 16.9937 3.83534C16.9227 3.77175 16.8871 3.67386 16.8871 3.54167ZM17.245 1.94277C17.2416 1.89424 17.2289 1.84739 17.2069 1.80221C17.1849 1.75535 17.157 1.71352 17.1232 1.67671C17.0843 1.63487 17.0335 1.60057 16.9709 1.5738C16.91 1.54535 16.8372 1.53112 16.7526 1.53112C16.6223 1.53112 16.4988 1.57129 16.3821 1.65161C16.267 1.73193 16.1655 1.83902 16.0775 1.97289C15.9929 2.10174 15.9252 2.25736 15.8745 2.43976C15.8237 2.62048 15.7983 2.80204 15.7983 2.98444C15.7983 3.08651 15.8042 3.17687 15.8161 3.25552C15.8279 3.33417 15.8508 3.40696 15.8846 3.4739C15.9168 3.53581 15.9625 3.58517 16.0217 3.62199C16.0809 3.65713 16.1596 3.6747 16.2577 3.6747C16.3508 3.6747 16.4514 3.64709 16.5597 3.59187C16.6697 3.53665 16.7915 3.44043 16.9252 3.30321L17.245 1.94277Z" fill="black" fill-opacity="0.9"/>
<path d="M19.4326 3.61195L19.3946 3.77259C19.2389 3.8345 19.1145 3.87718 19.0215 3.9006C18.9284 3.9257 18.8489 3.93825 18.7829 3.93825C18.6475 3.93825 18.546 3.90395 18.4783 3.83534C18.4107 3.76506 18.3768 3.67888 18.3768 3.57681C18.3768 3.53832 18.3802 3.49816 18.387 3.45633C18.3937 3.41449 18.4047 3.36178 18.42 3.29819L18.689 2.23143C18.7025 2.17286 18.7152 2.11011 18.7271 2.04317C18.7406 1.97624 18.7474 1.91934 18.7474 1.87249C18.7474 1.77878 18.7313 1.71687 18.6991 1.68675C18.6687 1.65495 18.6052 1.63906 18.5088 1.63906C18.4716 1.63906 18.4216 1.64491 18.359 1.65663C18.2981 1.66834 18.2516 1.67838 18.2195 1.68675L18.2575 1.5261C18.3895 1.46754 18.5079 1.42403 18.6128 1.39558C18.7178 1.36714 18.8007 1.35291 18.8616 1.35291C19.0003 1.35291 19.101 1.38554 19.1636 1.4508C19.2262 1.51606 19.2575 1.60392 19.2575 1.71436C19.2575 1.74448 19.2541 1.78548 19.2474 1.83735C19.2406 1.88922 19.2304 1.9411 19.2169 1.99297L18.9453 3.05974C18.9284 3.125 18.9132 3.18942 18.8996 3.25301C18.8878 3.31493 18.8819 3.36596 18.8819 3.40612C18.8819 3.50151 18.903 3.56677 18.9453 3.60191C18.9893 3.63705 19.0595 3.65462 19.156 3.65462C19.1881 3.65462 19.2338 3.65044 19.293 3.64207C19.354 3.6337 19.4005 3.62366 19.4326 3.61195ZM19.6128 0.404116C19.6128 0.499498 19.5815 0.583166 19.5189 0.65512C19.4563 0.725402 19.3785 0.760542 19.2854 0.760542C19.1991 0.760542 19.1247 0.727075 19.0621 0.660141C18.9995 0.591533 18.9682 0.513722 18.9682 0.426707C18.9682 0.334672 18.9995 0.254351 19.0621 0.185743C19.1247 0.117135 19.1991 0.0828313 19.2854 0.0828313C19.3819 0.0828313 19.4606 0.115462 19.5215 0.180723C19.5824 0.244311 19.6128 0.318775 19.6128 0.404116Z" fill="black" fill-opacity="0.9"/>
<path d="M23.7267 0.464357C23.8197 0.514558 23.8925 0.581493 23.9449 0.665161C23.9974 0.747155 24.0236 0.843374 24.0236 0.953815C24.0236 1.10609 23.9932 1.23996 23.9323 1.35542C23.8713 1.47088 23.7918 1.56794 23.6937 1.64659C23.5939 1.72691 23.4805 1.79384 23.3536 1.84739C23.2284 1.89926 23.1015 1.93775 22.9729 1.96285V1.98544C23.071 1.99716 23.1725 2.02058 23.2774 2.05572C23.3823 2.08919 23.4771 2.13437 23.5617 2.19127C23.6514 2.24983 23.7241 2.32597 23.78 2.41968C23.8375 2.51171 23.8663 2.62132 23.8663 2.74849C23.8663 2.93758 23.8214 3.10492 23.7318 3.2505C23.6438 3.39441 23.5321 3.51155 23.3967 3.60191C23.2512 3.69896 23.0947 3.77092 22.9272 3.81777C22.7614 3.86295 22.5905 3.88554 22.4145 3.88554H20.6556L20.6963 3.71988C20.7369 3.71653 20.7978 3.70984 20.879 3.6998C20.9602 3.68809 21.0186 3.6747 21.0541 3.65964C21.1133 3.63621 21.1582 3.60442 21.1886 3.56426C21.2208 3.52242 21.2436 3.47222 21.2572 3.41365L21.8587 0.828313C21.8621 0.81158 21.8646 0.795683 21.8663 0.780622C21.8697 0.763889 21.8714 0.747155 21.8714 0.730422C21.8714 0.695281 21.8638 0.665161 21.8485 0.64006C21.835 0.613286 21.8105 0.590696 21.7749 0.572289C21.7259 0.545515 21.6734 0.526272 21.6176 0.514558C21.5634 0.501171 21.5127 0.492805 21.4653 0.489458L21.5059 0.323795H23.0947C23.2148 0.323795 23.3265 0.334672 23.4297 0.356426C23.5346 0.376506 23.6336 0.412483 23.7267 0.464357ZM23.1886 1.62149C23.2681 1.52945 23.3248 1.4324 23.3587 1.33032C23.3942 1.22657 23.412 1.10944 23.412 0.978916C23.412 0.890228 23.3959 0.814926 23.3637 0.753012C23.3316 0.691098 23.2876 0.641734 23.2318 0.60492C23.1759 0.569779 23.1142 0.545515 23.0465 0.532129C22.9788 0.517068 22.9077 0.509538 22.8333 0.509538C22.7774 0.509538 22.7148 0.511212 22.6455 0.514558C22.5778 0.516232 22.5203 0.517905 22.4729 0.519578L22.1506 1.90512H22.4678C22.6336 1.90512 22.7766 1.87918 22.8967 1.82731C23.0186 1.77544 23.1159 1.70683 23.1886 1.62149ZM23.0236 3.34337C23.0964 3.24465 23.1514 3.13671 23.1886 3.01958C23.2258 2.90244 23.2444 2.78698 23.2444 2.67319C23.2444 2.49414 23.1835 2.35358 23.0617 2.25151C22.9399 2.14943 22.769 2.09839 22.549 2.09839C22.4424 2.09839 22.3511 2.10007 22.2749 2.10341C22.1988 2.10509 22.1412 2.10676 22.1023 2.10843L21.8155 3.33584C21.8105 3.35927 21.8062 3.38102 21.8028 3.4011C21.8011 3.42118 21.8003 3.44043 21.8003 3.45884C21.8003 3.54585 21.8451 3.6086 21.9348 3.64709C22.0245 3.68558 22.1387 3.70482 22.2775 3.70482C22.4483 3.70482 22.5964 3.67052 22.7216 3.60191C22.8485 3.53163 22.9492 3.44545 23.0236 3.34337Z" fill="black" fill-opacity="0.9"/>
<path d="M26.427 1.875C26.427 2.05238 26.3703 2.20465 26.2569 2.33183C26.1453 2.459 25.982 2.56024 25.7671 2.63554C25.6097 2.69244 25.4507 2.73845 25.2899 2.77359C25.1292 2.80873 24.9515 2.83802 24.757 2.86145C24.757 3.12584 24.806 3.32831 24.9042 3.46888C25.004 3.60776 25.1495 3.67721 25.3407 3.67721C25.5099 3.67721 25.6588 3.63537 25.7874 3.55171C25.9177 3.46804 26.0454 3.34337 26.1706 3.17771L26.3153 3.28313C26.18 3.48728 26.0107 3.65044 25.8077 3.77259C25.6047 3.89475 25.394 3.95582 25.1757 3.95582C24.8762 3.95582 24.647 3.87299 24.4879 3.70733C24.3306 3.54167 24.2519 3.30656 24.2519 3.00201C24.2519 2.79116 24.2849 2.59036 24.3509 2.3996C24.4186 2.20716 24.5167 2.03146 24.6453 1.87249C24.7705 1.71687 24.9236 1.59137 25.1047 1.49598C25.2874 1.4006 25.4888 1.35291 25.7087 1.35291C25.9524 1.35291 26.1326 1.40228 26.2493 1.501C26.3678 1.59806 26.427 1.72272 26.427 1.875ZM25.96 1.81225C25.96 1.74699 25.9507 1.69595 25.9321 1.65914C25.9135 1.62065 25.8898 1.5922 25.861 1.5738C25.8305 1.55371 25.7984 1.54116 25.7646 1.53614C25.7307 1.53112 25.696 1.52861 25.6605 1.52861C25.4575 1.52861 25.2696 1.63906 25.0971 1.85994C24.9262 2.08082 24.8179 2.35609 24.7722 2.68574C24.8906 2.66901 25.0243 2.64558 25.1732 2.61546C25.3221 2.58367 25.4456 2.54267 25.5438 2.49247C25.6842 2.42052 25.7882 2.32848 25.8559 2.21637C25.9253 2.10258 25.96 1.96787 25.96 1.81225Z" fill="black" fill-opacity="0.9"/>
<path d="M29.3024 2.31175C29.3024 2.53598 29.2627 2.74849 29.1831 2.9493C29.1036 3.1501 28.9979 3.32413 28.8659 3.47139C28.7187 3.6337 28.5588 3.75418 28.3862 3.83283C28.2153 3.91148 28.0393 3.9508 27.8583 3.9508C27.7128 3.9508 27.5935 3.93323 27.5004 3.89809C27.4074 3.86295 27.3244 3.81944 27.2517 3.76757L27.1045 4.4252C27.0943 4.46703 27.0859 4.50636 27.0791 4.54317C27.074 4.57999 27.0715 4.60927 27.0715 4.63102C27.0715 4.6762 27.0876 4.71218 27.1197 4.73896C27.1536 4.76573 27.1916 4.78497 27.2339 4.79669C27.2762 4.81007 27.3236 4.82011 27.3761 4.82681C27.4285 4.8335 27.4759 4.83852 27.5182 4.84187L27.4827 5H26.0842L26.1197 4.84187C26.1739 4.83852 26.2246 4.83434 26.272 4.82932C26.3194 4.8243 26.3642 4.81593 26.4065 4.80422C26.459 4.78916 26.5004 4.76071 26.5309 4.71888C26.563 4.67871 26.5859 4.62851 26.5994 4.56827L27.1299 2.25904C27.1434 2.19545 27.1561 2.13186 27.1679 2.06827C27.1798 2.00301 27.1857 1.94695 27.1857 1.9001C27.1857 1.80639 27.1705 1.74364 27.14 1.71185C27.1113 1.68005 27.0478 1.66416 26.9497 1.66416C26.9124 1.66416 26.8651 1.67169 26.8075 1.68675C26.75 1.70013 26.7052 1.71101 26.673 1.71938L26.7111 1.55873C26.8397 1.50184 26.9556 1.45833 27.0588 1.42821C27.162 1.39642 27.25 1.38052 27.3228 1.38052C27.4412 1.38052 27.5309 1.41064 27.5918 1.47088C27.6527 1.52945 27.6908 1.61145 27.706 1.71687H27.7263C27.8414 1.61145 27.964 1.52443 28.0943 1.45582C28.2263 1.38722 28.3574 1.35291 28.4877 1.35291C28.7449 1.35291 28.9446 1.43993 29.0867 1.61396C29.2305 1.78631 29.3024 2.01891 29.3024 2.31175ZM28.5106 3.34839C28.5969 3.21118 28.6628 3.05556 28.7085 2.88153C28.7559 2.70582 28.7796 2.52008 28.7796 2.3243C28.7796 2.23561 28.7711 2.14692 28.7542 2.05823C28.739 1.96787 28.7136 1.89341 28.6781 1.83484C28.6408 1.76958 28.5901 1.71938 28.5258 1.68424C28.4615 1.64742 28.3769 1.62902 28.272 1.62902C28.1941 1.62902 28.1079 1.65244 28.0131 1.6993C27.92 1.74615 27.8058 1.834 27.6705 1.96285L27.3456 3.38604C27.3574 3.48143 27.409 3.57095 27.5004 3.65462C27.5935 3.73661 27.7052 3.77761 27.8354 3.77761C27.9691 3.77761 28.0943 3.73912 28.2111 3.66215C28.3278 3.58517 28.4276 3.48059 28.5106 3.34839Z" fill="black" fill-opacity="0.9"/>
<path d="M32.254 2.31175C32.254 2.53598 32.2142 2.74849 32.1347 2.9493C32.0552 3.1501 31.9494 3.32413 31.8175 3.47139C31.6703 3.6337 31.5104 3.75418 31.3378 3.83283C31.1669 3.91148 30.9909 3.9508 30.8099 3.9508C30.6643 3.9508 30.5451 3.93323 30.452 3.89809C30.3589 3.86295 30.276 3.81944 30.2033 3.76757L30.0561 4.4252C30.0459 4.46703 30.0374 4.50636 30.0307 4.54317C30.0256 4.57999 30.0231 4.60927 30.0231 4.63102C30.0231 4.6762 30.0391 4.71218 30.0713 4.73896C30.1051 4.76573 30.1432 4.78497 30.1855 4.79669C30.2278 4.81007 30.2752 4.82011 30.3276 4.82681C30.3801 4.8335 30.4275 4.83852 30.4698 4.84187L30.4342 5H29.0358L29.0713 4.84187C29.1254 4.83852 29.1762 4.83434 29.2236 4.82932C29.271 4.8243 29.3158 4.81593 29.3581 4.80422C29.4106 4.78916 29.452 4.76071 29.4825 4.71888C29.5146 4.67871 29.5375 4.62851 29.551 4.56827L30.0814 2.25904C30.095 2.19545 30.1077 2.13186 30.1195 2.06827C30.1314 2.00301 30.1373 1.94695 30.1373 1.9001C30.1373 1.80639 30.1221 1.74364 30.0916 1.71185C30.0628 1.68005 29.9994 1.66416 29.9012 1.66416C29.864 1.66416 29.8166 1.67169 29.7591 1.68675C29.7016 1.70013 29.6567 1.71101 29.6246 1.71938L29.6627 1.55873C29.7913 1.50184 29.9072 1.45833 30.0104 1.42821C30.1136 1.39642 30.2016 1.38052 30.2743 1.38052C30.3928 1.38052 30.4825 1.41064 30.5434 1.47088C30.6043 1.52945 30.6423 1.61145 30.6576 1.71687H30.6779C30.7929 1.61145 30.9156 1.52443 31.0459 1.45582C31.1779 1.38722 31.309 1.35291 31.4393 1.35291C31.6965 1.35291 31.8961 1.43993 32.0383 1.61396C32.1821 1.78631 32.254 2.01891 32.254 2.31175ZM31.4621 3.34839C31.5484 3.21118 31.6144 3.05556 31.6601 2.88153C31.7075 2.70582 31.7312 2.52008 31.7312 2.3243C31.7312 2.23561 31.7227 2.14692 31.7058 2.05823C31.6906 1.96787 31.6652 1.89341 31.6296 1.83484C31.5924 1.76958 31.5417 1.71938 31.4774 1.68424C31.4131 1.64742 31.3285 1.62902 31.2236 1.62902C31.1457 1.62902 31.0594 1.65244 30.9647 1.6993C30.8716 1.74615 30.7574 1.834 30.622 1.96285L30.2972 3.38604C30.309 3.48143 30.3606 3.57095 30.452 3.65462C30.5451 3.73661 30.6567 3.77761 30.787 3.77761C30.9207 3.77761 31.0459 3.73912 31.1626 3.66215C31.2794 3.58517 31.3792 3.48059 31.4621 3.34839Z" fill="black" fill-opacity="0.9"/>
<path d="M35 2.33936C35 2.53681 34.9662 2.73427 34.8985 2.93173C34.8308 3.12918 34.7327 3.30238 34.6041 3.45131C34.4738 3.60525 34.3164 3.72908 34.132 3.82279C33.9493 3.91483 33.7369 3.96084 33.4949 3.96084C33.2141 3.96084 32.9856 3.87132 32.8097 3.69227C32.6354 3.51322 32.5483 3.27226 32.5483 2.96938C32.5483 2.74682 32.5855 2.53932 32.6599 2.34689C32.7344 2.15445 32.8342 1.98544 32.9594 1.83986C33.0863 1.69428 33.2428 1.57714 33.429 1.48845C33.6168 1.39809 33.8198 1.35291 34.0381 1.35291C34.3393 1.35291 34.5745 1.44411 34.7437 1.62651C34.9146 1.80723 35 2.04485 35 2.33936ZM34.4822 2.24398C34.4822 2.00636 34.4391 1.82815 34.3528 1.70934C34.2682 1.59053 34.1455 1.53112 33.9848 1.53112C33.8443 1.53112 33.7115 1.5738 33.5863 1.65914C33.4628 1.74448 33.3562 1.88337 33.2665 2.0758C33.1971 2.22139 33.1464 2.3837 33.1142 2.56275C33.0821 2.74013 33.066 2.90412 33.066 3.05472C33.066 3.29401 33.1075 3.47557 33.1904 3.5994C33.275 3.72155 33.4019 3.78263 33.5711 3.78263C33.7217 3.78263 33.8553 3.73578 33.9721 3.64207C34.0888 3.54836 34.1836 3.42955 34.2564 3.28564C34.3291 3.14508 34.3849 2.98444 34.4239 2.80371C34.4628 2.62132 34.4822 2.43474 34.4822 2.24398Z" fill="black" fill-opacity="0.9"/>
</svg>
