<svg width="22" height="23" viewBox="0 0 22 23" fill="none" xmlns="http://www.w3.org/2000/svg">
<path fill-rule="evenodd" clip-rule="evenodd" d="M5.19386 20.102L2.43386 23V17.6883C0.912698 15.8227 0 13.4473 0 10.8611C0 4.86322 4.90423 0 10.9524 0C17.0005 0 21.9048 4.86322 21.9048 10.8611C21.9048 16.859 17.0005 21.7222 10.9524 21.7222C8.92985 21.7291 6.94211 21.1699 5.19386 20.102Z" fill="white"/>
<circle cx="10.8571" cy="10.8571" r="9.85714" fill="black"/>
<path d="M7.5 12.1875V9H7.125V8.625H7.5V8.25H7.125V7.875H7.5V7.5H7.125V7.125H9.375C9.5625 7.13625 9.73125 7.215 9.8775 7.36125C10.0238 7.5075 10.1063 7.6875 10.125 7.875H13.875V8.25H10.125C10.1063 8.44875 10.0238 8.625 9.8775 8.78625C9.73125 8.9475 9.5625 9.01875 9.375 9H8.625V11.6438C8.64375 11.6438 8.67375 11.64 8.715 11.625C8.75625 11.61 8.79 11.625 8.8125 11.625C9.0225 11.625 9.2625 11.6775 9.5325 11.7825C9.68625 11.4375 9.94875 11.13 10.3238 10.875C10.6988 10.62 11.0738 10.5 11.4488 10.5C12.0225 10.5 12.51 10.6988 12.9075 11.0963C13.305 11.4938 13.5 11.9813 13.5 12.5625V12.6638C13.5 12.7125 13.4888 12.7388 13.4888 12.75H7.1775C7.22625 12.5625 7.33125 12.375 7.5 12.1875ZM8.25 11.7112V9H7.875V11.8875C8.0625 11.7937 8.17875 11.7375 8.25 11.7112ZM9.375 8.625V8.25H8.625V8.625H9.375ZM9.375 7.5H8.625V7.875H9.375V7.5ZM7.875 7.5V7.875H8.25V7.5H7.875ZM7.875 8.25V8.625H8.25V8.25H7.875ZM6.75 13.125H14.25L13.5 13.875H7.5L6.75 13.125Z" fill="white"/>
</svg>
