<svg width="32" height="12" viewBox="0 0 32 12" fill="none" xmlns="http://www.w3.org/2000/svg">
<path d="M2.7907 7.76744H3.02326V8H2.7907V7.76744ZM3.02326 7.76744H3.25581V8H3.02326V7.76744ZM3.25581 7.76744H3.48837V8H3.25581V7.76744ZM2.55814 7.53488H2.7907V7.76744H2.55814V7.53488ZM2.7907 7.53488H3.02326V7.76744H2.7907V7.53488ZM3.02326 7.53488H3.25581V7.76744H3.02326V7.53488ZM3.25581 7.53488H3.48837V7.76744H3.25581V7.53488ZM2.55814 7.30233H2.7907V7.53488H2.55814V7.30233ZM2.55814 7.06977H2.7907V7.30233H2.55814V7.06977ZM2.7907 7.06977H3.02326V7.30233H2.7907V7.06977ZM2.7907 7.30233H3.02326V7.53488H2.7907V7.30233ZM3.02326 7.30233H3.25581V7.53488H3.02326V7.30233ZM3.25581 7.30233H3.48837V7.53488H3.25581V7.30233ZM3.25581 7.06977H3.48837V7.30233H3.25581V7.06977ZM3.02326 7.06977H3.25581V7.30233H3.02326V7.06977ZM2.7907 6.83721H3.02326V7.06977H2.7907V6.83721ZM3.02326 6.83721H3.25581V7.06977H3.02326V6.83721ZM3.25581 6.83721H3.48837V7.06977H3.25581V6.83721ZM3.25581 6.60465H3.48837V6.83721H3.25581V6.60465ZM3.02326 6.60465H3.25581V6.83721H3.02326V6.60465ZM2.7907 6.60465H3.02326V6.83721H2.7907V6.60465ZM2.7907 6.37209H3.02326V6.60465H2.7907V6.37209ZM2.7907 6.13953H3.02326V6.37209H2.7907V6.13953ZM2.7907 5.90698H3.02326V6.13953H2.7907V5.90698ZM2.7907 5.67442H3.02326V5.90698H2.7907V5.67442ZM2.7907 5.44186H3.02326V5.67442H2.7907V5.44186ZM3.02326 5.44186H3.25581V5.67442H3.02326V5.44186ZM3.25581 5.44186H3.48837V5.67442H3.25581V5.44186ZM3.25581 5.67442H3.48837V5.90698H3.25581V5.67442ZM3.25581 5.90698H3.48837V6.13953H3.25581V5.90698ZM3.25581 6.13953H3.48837V6.37209H3.25581V6.13953ZM3.02326 6.13953H3.25581V6.37209H3.02326V6.13953ZM3.02326 6.37209H3.25581V6.60465H3.02326V6.37209ZM3.02326 5.90698H3.25581V6.13953H3.02326V5.90698ZM3.02326 5.67442H3.25581V5.90698H3.02326V5.67442ZM3.25581 6.37209H3.48837V6.60465H3.25581V6.37209ZM3.25581 5.2093H3.48837V5.44186H3.25581V5.2093ZM3.25581 4.97674H3.48837V5.2093H3.25581V4.97674ZM3.25581 4.74419H3.48837V4.97674H3.25581V4.74419ZM3.25581 4.51163H3.48837V4.74419H3.25581V4.51163ZM3.25581 4.27907H3.48837V4.51163H3.25581V4.27907ZM2.7907 4.27907H3.02326V4.51163H2.7907V4.27907ZM3.02326 4.51163H3.25581V4.74419H3.02326V4.51163ZM3.02326 4.74419H3.25581V4.97674H3.02326V4.74419ZM3.02326 4.97674H3.25581V5.2093H3.02326V4.97674ZM3.02326 5.2093H3.25581V5.44186H3.02326V5.2093ZM2.7907 5.2093H3.02326V5.44186H2.7907V5.2093ZM2.7907 4.97674H3.02326V5.2093H2.7907V4.97674ZM2.7907 4.74419H3.02326V4.97674H2.7907V4.74419ZM2.7907 4.51163H3.02326V4.74419H2.7907V4.51163ZM3.02326 4.27907H3.25581V4.51163H3.02326V4.27907ZM2.55814 6.83721H2.7907V7.06977H2.55814V6.83721ZM2.55814 6.60465H2.7907V6.83721H2.55814V6.60465ZM2.55814 6.37209H2.7907V6.60465H2.55814V6.37209ZM2.55814 6.13953H2.7907V6.37209H2.55814V6.13953ZM2.55814 5.90698H2.7907V6.13953H2.55814V5.90698ZM2.55814 5.67442H2.7907V5.90698H2.55814V5.67442ZM2.55814 5.44186H2.7907V5.67442H2.55814V5.44186ZM2.55814 5.2093H2.7907V5.44186H2.55814V5.2093ZM2.55814 4.97674H2.7907V5.2093H2.55814V4.97674ZM2.55814 4.74419H2.7907V4.97674H2.55814V4.74419ZM2.55814 4.27907H2.7907V4.51163H2.55814V4.27907ZM2.55814 4.51163H2.7907V4.74419H2.55814V4.51163ZM2.7907 4.04651H3.02326V4.27907H2.7907V4.04651ZM3.02326 4.04651H3.25581V4.27907H3.02326V4.04651ZM3.48837 4.51163H3.72093V4.74419H3.48837V4.51163ZM2.09302 4.51163H2.32558V4.74419H2.09302V4.51163ZM2.09302 4.27907H2.32558V4.51163H2.09302V4.27907ZM2.32558 4.27907H2.55814V4.51163H2.32558V4.27907ZM2.32558 4.04651H2.55814V4.27907H2.32558V4.04651ZM2.55814 4.04651H2.7907V4.27907H2.55814V4.04651ZM3.72093 4.74419H3.95349V4.97674H3.72093V4.74419ZM3.48837 4.74419H3.72093V4.97674H3.48837V4.74419ZM3.72093 4.51163H3.95349V4.74419H3.72093V4.51163ZM0.930233 7.76744H1.16279V8H0.930233V7.76744ZM1.16279 7.76744H1.39535V8H1.16279V7.76744ZM0.697674 7.53488H0.930233V7.76744H0.697674V7.53488ZM0.930233 7.53488H1.16279V7.76744H0.930233V7.53488ZM1.16279 7.53488H1.39535V7.76744H1.16279V7.53488ZM1.39535 7.53488H1.62791V7.76744H1.39535V7.53488ZM0.465116 7.30233H0.697674V7.53488H0.465116V7.30233ZM0.697674 7.30233H0.930233V7.53488H0.697674V7.30233ZM0.697674 7.06977H0.930233V7.30233H0.697674V7.06977ZM0.930233 7.06977H1.16279V7.30233H0.930233V7.06977ZM0.930233 7.30233H1.16279V7.53488H0.930233V7.30233ZM1.16279 7.30233H1.39535V7.53488H1.16279V7.30233ZM1.39535 7.30233H1.62791V7.53488H1.39535V7.30233ZM1.39535 7.06977H1.62791V7.30233H1.39535V7.06977ZM1.62791 7.30233H1.86047V7.53488H1.62791V7.30233ZM1.16279 7.06977H1.39535V7.30233H1.16279V7.06977ZM0.930233 6.83721H1.16279V7.06977H0.930233V6.83721ZM1.16279 6.83721H1.39535V7.06977H1.16279V6.83721ZM1.39535 6.83721H1.62791V7.06977H1.39535V6.83721ZM1.39535 6.60465H1.62791V6.83721H1.39535V6.60465ZM1.16279 6.60465H1.39535V6.83721H1.16279V6.60465ZM0.930233 6.60465H1.16279V6.83721H0.930233V6.60465ZM0.930233 6.37209H1.16279V6.60465H0.930233V6.37209ZM0.930233 6.13953H1.16279V6.37209H0.930233V6.13953ZM0.930233 5.90698H1.16279V6.13953H0.930233V5.90698ZM0.930233 5.67442H1.16279V5.90698H0.930233V5.67442ZM0.930233 5.44186H1.16279V5.67442H0.930233V5.44186ZM1.16279 5.44186H1.39535V5.67442H1.16279V5.44186ZM1.39535 5.44186H1.62791V5.67442H1.39535V5.44186ZM1.39535 5.67442H1.62791V5.90698H1.39535V5.67442ZM1.39535 5.90698H1.62791V6.13953H1.39535V5.90698ZM1.39535 6.13953H1.62791V6.37209H1.39535V6.13953ZM1.16279 6.13953H1.39535V6.37209H1.16279V6.13953ZM1.16279 6.37209H1.39535V6.60465H1.16279V6.37209ZM1.16279 5.90698H1.39535V6.13953H1.16279V5.90698ZM1.16279 5.67442H1.39535V5.90698H1.16279V5.67442ZM1.39535 6.37209H1.62791V6.60465H1.39535V6.37209ZM1.39535 5.2093H1.62791V5.44186H1.39535V5.2093ZM1.39535 4.97674H1.62791V5.2093H1.39535V4.97674ZM1.39535 4.74419H1.62791V4.97674H1.39535V4.74419ZM1.39535 4.51163H1.62791V4.74419H1.39535V4.51163ZM1.39535 4.27907H1.62791V4.51163H1.39535V4.27907ZM1.39535 4.04651H1.62791V4.27907H1.39535V4.04651ZM1.39535 3.5814H1.62791V3.81395H1.39535V3.5814ZM1.39535 3.34884H1.62791V3.5814H1.39535V3.34884ZM1.39535 3.11628H1.62791V3.34884H1.39535V3.11628ZM1.39535 2.88372H1.62791V3.11628H1.39535V2.88372ZM1.39535 2.65116H1.62791V2.88372H1.39535V2.65116ZM1.39535 2.4186H1.62791V2.65116H1.39535V2.4186ZM1.39535 2.18605H1.62791V2.4186H1.39535V2.18605ZM0.930233 2.65116H1.16279V2.88372H0.930233V2.65116ZM0.930233 2.88372H1.16279V3.11628H0.930233V2.88372ZM0.930233 3.11628H1.16279V3.34884H0.930233V3.11628ZM0.930233 3.34884H1.16279V3.5814H0.930233V3.34884ZM0.930233 3.5814H1.16279V3.81395H0.930233V3.5814ZM0.930233 4.04651H1.16279V4.27907H0.930233V4.04651ZM0.930233 4.27907H1.16279V4.51163H0.930233V4.27907ZM1.16279 4.51163H1.39535V4.74419H1.16279V4.51163ZM1.16279 4.74419H1.39535V4.97674H1.16279V4.74419ZM1.16279 4.97674H1.39535V5.2093H1.16279V4.97674ZM1.16279 5.2093H1.39535V5.44186H1.16279V5.2093ZM0.930233 5.2093H1.16279V5.44186H0.930233V5.2093ZM0.930233 4.97674H1.16279V5.2093H0.930233V4.97674ZM0.930233 4.74419H1.16279V4.97674H0.930233V4.74419ZM0.930233 4.51163H1.16279V4.74419H0.930233V4.51163ZM1.16279 4.27907H1.39535V4.51163H1.16279V4.27907ZM1.16279 4.04651H1.39535V4.27907H1.16279V4.04651ZM1.16279 3.5814H1.39535V3.81395H1.16279V3.5814ZM1.16279 3.34884H1.39535V3.5814H1.16279V3.34884ZM1.16279 3.11628H1.39535V3.34884H1.16279V3.11628ZM1.16279 2.88372H1.39535V3.11628H1.16279V2.88372ZM1.16279 2.65116H1.39535V2.88372H1.16279V2.65116ZM1.16279 2.4186H1.39535V2.65116H1.16279V2.4186ZM0.697674 6.83721H0.930233V7.06977H0.697674V6.83721ZM0.697674 6.60465H0.930233V6.83721H0.697674V6.60465ZM0.697674 6.37209H0.930233V6.60465H0.697674V6.37209ZM0.697674 6.13953H0.930233V6.37209H0.697674V6.13953ZM0.697674 5.90698H0.930233V6.13953H0.697674V5.90698ZM0.697674 5.67442H0.930233V5.90698H0.697674V5.67442ZM0.697674 5.44186H0.930233V5.67442H0.697674V5.44186ZM0.697674 5.2093H0.930233V5.44186H0.697674V5.2093ZM0.697674 4.97674H0.930233V5.2093H0.697674V4.97674ZM0.697674 4.74419H0.930233V4.97674H0.697674V4.74419ZM0.697674 4.27907H0.930233V4.51163H0.697674V4.27907ZM0.697674 3.5814H0.930233V3.81395H0.697674V3.5814ZM0.697674 3.34884H0.930233V3.5814H0.697674V3.34884ZM0.697674 3.11628H0.930233V3.34884H0.697674V3.11628ZM0.697674 4.04651H0.930233V4.27907H0.697674V4.04651ZM0.697674 4.51163H0.930233V4.74419H0.697674V4.51163ZM0.697674 2.88372H0.930233V3.11628H0.697674V2.88372ZM0.697674 3.81395H0.930233V4.04651H0.697674V3.81395ZM0.930233 3.81395H1.16279V4.04651H0.930233V3.81395ZM1.16279 3.81395H1.39535V4.04651H1.16279V3.81395ZM1.39535 3.81395H1.62791V4.04651H1.39535V3.81395ZM0.232558 7.06977H0.465116V7.30233H0.232558V7.06977ZM0.465116 7.06977H0.697674V7.30233H0.465116V7.06977ZM1.62791 7.06977H1.86047V7.30233H1.62791V7.06977ZM1.62791 4.74419H1.86047V4.97674H1.62791V4.74419ZM1.86047 4.74419H2.09302V4.97674H1.86047V4.74419ZM1.86047 4.51163H2.09302V4.74419H1.86047V4.51163ZM2.55814 7.76744H2.7907V8H2.55814V7.76744ZM2.7907 8H3.02326V8.23256H2.7907V8ZM2.55814 8H2.7907V8.23256H2.55814V8ZM2.32558 8H2.55814V8.23256H2.32558V8ZM2.32558 8.23256H2.55814V8.46512H2.32558V8.23256ZM2.09302 8.23256H2.32558V8.46512H2.09302V8.23256ZM2.7907 8.23256H3.02326V8.46512H2.7907V8.23256ZM2.55814 8.23256H2.7907V8.46512H2.55814V8.23256ZM2.32558 8.46512H2.55814V8.69767H2.32558V8.46512ZM2.09302 8.46512H2.32558V8.69767H2.09302V8.46512ZM1.86047 8.46512H2.09302V8.69767H1.86047V8.46512ZM1.62791 8.69767H1.86047V8.93023H1.62791V8.69767ZM1.86047 8.69767H2.09302V8.93023H1.86047V8.69767ZM2.32558 8.69767H2.55814V8.93023H2.32558V8.69767ZM2.09302 8.69767H2.32558V8.93023H2.09302V8.69767ZM1.62791 8.93023H1.86047V9.16279H1.62791V8.93023ZM1.86047 8.93023H2.09302V9.16279H1.86047V8.93023ZM1.86047 9.16279H2.09302V9.39535H1.86047V9.16279ZM1.62791 9.16279H1.86047V9.39535H1.62791V9.16279ZM2.09302 8.93023H2.32558V9.16279H2.09302V8.93023ZM2.55814 8.46512H2.7907V8.69767H2.55814V8.46512ZM3.02326 8H3.25581V8.23256H3.02326V8ZM1.62791 4.97674H1.86047V5.2093H1.62791V4.97674ZM1.62791 4.51163H1.86047V4.74419H1.62791V4.51163ZM1.86047 4.27907H2.09302V4.51163H1.86047V4.27907ZM2.09302 4.04651H2.32558V4.27907H2.09302V4.04651ZM0.232558 7.30233H0.465116V7.53488H0.232558V7.30233ZM0.697674 7.76744H0.930233V8H0.697674V7.76744ZM1.86047 7.06977H2.09302V7.30233H1.86047V7.06977ZM5.11969 7.76744H5.35224V8H5.11969V7.76744ZM5.35224 7.76744H5.5848V8H5.35224V7.76744ZM4.88713 7.53488H5.11969V7.76744H4.88713V7.53488ZM5.11969 7.53488H5.35224V7.76744H5.11969V7.53488ZM5.35224 7.53488H5.5848V7.76744H5.35224V7.53488ZM5.5848 7.53488H5.81736V7.76744H5.5848V7.53488ZM4.65457 7.30233H4.88713V7.53488H4.65457V7.30233ZM4.88713 7.30233H5.11969V7.53488H4.88713V7.30233ZM4.88713 7.06977H5.11969V7.30233H4.88713V7.06977ZM5.11969 7.06977H5.35224V7.30233H5.11969V7.06977ZM5.11969 7.30233H5.35224V7.53488H5.11969V7.30233ZM5.35224 7.30233H5.5848V7.53488H5.35224V7.30233ZM5.5848 7.30233H5.81736V7.53488H5.5848V7.30233ZM5.5848 7.06977H5.81736V7.30233H5.5848V7.06977ZM5.35224 7.06977H5.5848V7.30233H5.35224V7.06977ZM5.11969 6.83721H5.35224V7.06977H5.11969V6.83721ZM5.35224 6.83721H5.5848V7.06977H5.35224V6.83721ZM5.5848 6.83721H5.81736V7.06977H5.5848V6.83721ZM5.5848 6.60465H5.81736V6.83721H5.5848V6.60465ZM5.35224 6.60465H5.5848V6.83721H5.35224V6.60465ZM5.11969 6.60465H5.35224V6.83721H5.11969V6.60465ZM5.11969 6.37209H5.35224V6.60465H5.11969V6.37209ZM5.11969 6.13953H5.35224V6.37209H5.11969V6.13953ZM5.11969 5.90698H5.35224V6.13953H5.11969V5.90698ZM5.11969 5.67442H5.35224V5.90698H5.11969V5.67442ZM5.11969 5.44186H5.35224V5.67442H5.11969V5.44186ZM5.35224 5.44186H5.5848V5.67442H5.35224V5.44186ZM5.5848 5.44186H5.81736V5.67442H5.5848V5.44186ZM5.5848 5.67442H5.81736V5.90698H5.5848V5.67442ZM5.5848 5.90698H5.81736V6.13953H5.5848V5.90698ZM5.5848 6.13953H5.81736V6.37209H5.5848V6.13953ZM5.35224 6.13953H5.5848V6.37209H5.35224V6.13953ZM5.35224 6.37209H5.5848V6.60465H5.35224V6.37209ZM5.35224 5.90698H5.5848V6.13953H5.35224V5.90698ZM5.35224 5.67442H5.5848V5.90698H5.35224V5.67442ZM5.5848 6.37209H5.81736V6.60465H5.5848V6.37209ZM5.5848 5.2093H5.81736V5.44186H5.5848V5.2093ZM5.5848 4.97674H5.81736V5.2093H5.5848V4.97674ZM5.5848 4.74419H5.81736V4.97674H5.5848V4.74419ZM5.5848 4.51163H5.81736V4.74419H5.5848V4.51163ZM5.5848 4.27907H5.81736V4.51163H5.5848V4.27907ZM5.11969 4.27907H5.35224V4.51163H5.11969V4.27907ZM5.35224 4.51163H5.5848V4.74419H5.35224V4.51163ZM5.35224 4.74419H5.5848V4.97674H5.35224V4.74419ZM5.35224 4.97674H5.5848V5.2093H5.35224V4.97674ZM5.35224 5.2093H5.5848V5.44186H5.35224V5.2093ZM5.11969 5.2093H5.35224V5.44186H5.11969V5.2093ZM5.11969 4.97674H5.35224V5.2093H5.11969V4.97674ZM5.11969 4.74419H5.35224V4.97674H5.11969V4.74419ZM5.11969 4.51163H5.35224V4.74419H5.11969V4.51163ZM5.35224 4.27907H5.5848V4.51163H5.35224V4.27907ZM4.88713 6.83721H5.11969V7.06977H4.88713V6.83721ZM4.88713 6.60465H5.11969V6.83721H4.88713V6.60465ZM4.88713 6.37209H5.11969V6.60465H4.88713V6.37209ZM4.88713 6.13953H5.11969V6.37209H4.88713V6.13953ZM4.88713 5.90698H5.11969V6.13953H4.88713V5.90698ZM4.88713 5.67442H5.11969V5.90698H4.88713V5.67442ZM4.88713 5.44186H5.11969V5.67442H4.88713V5.44186ZM4.88713 5.2093H5.11969V5.44186H4.88713V5.2093ZM4.88713 4.97674H5.11969V5.2093H4.88713V4.97674ZM4.88713 4.74419H5.11969V4.97674H4.88713V4.74419ZM4.88713 4.27907H5.11969V4.51163H4.88713V4.27907ZM4.88713 4.51163H5.11969V4.74419H4.88713V4.51163ZM6.04992 7.06977H6.28248V7.30233H6.04992V7.06977ZM5.81736 7.30233H6.04992V7.53488H5.81736V7.30233ZM4.42201 7.06977H4.65457V7.30233H4.42201V7.06977ZM4.65457 7.06977H4.88713V7.30233H4.65457V7.06977ZM5.81736 7.06977H6.04992V7.30233H5.81736V7.06977ZM4.42201 7.30233H4.65457V7.53488H4.42201V7.30233ZM4.88713 7.76744H5.11969V8H4.88713V7.76744ZM4.42201 4.04651H4.65457V4.27907H4.42201V4.04651ZM4.65457 4.04651H4.88713V4.27907H4.65457V4.04651ZM4.65457 4.27907H4.88713V4.51163H4.65457V4.27907ZM4.42201 4.27907H4.65457V4.51163H4.42201V4.27907ZM5.81736 4.27907H6.04992V4.51163H5.81736V4.27907ZM5.81736 4.04651H6.04992V4.27907H5.81736V4.04651ZM6.04992 4.04651H6.28248V4.27907H6.04992V4.04651ZM6.04992 4.27907H6.28248V4.51163H6.04992V4.27907ZM4.88713 4.04651H5.11969V4.27907H4.88713V4.04651ZM5.11969 4.04651H5.35224V4.27907H5.11969V4.04651ZM5.35224 4.04651H5.5848V4.27907H5.35224V4.04651ZM5.5848 4.04651H5.81736V4.27907H5.5848V4.04651ZM5.5848 3.81395H5.81736V4.04651H5.5848V3.81395ZM5.5848 3.5814H5.81736V3.81395H5.5848V3.5814ZM5.5848 3.34884H5.81736V3.5814H5.5848V3.34884ZM5.35224 3.34884H5.5848V3.5814H5.35224V3.34884ZM5.11969 3.34884H5.35224V3.5814H5.11969V3.34884ZM5.11969 3.5814H5.35224V3.81395H5.11969V3.5814ZM5.11969 3.81395H5.35224V4.04651H5.11969V3.81395ZM5.35224 3.81395H5.5848V4.04651H5.35224V3.81395ZM5.35224 3.5814H5.5848V3.81395H5.35224V3.5814ZM4.88713 3.81395H5.11969V4.04651H4.88713V3.81395ZM4.88713 3.5814H5.11969V3.81395H4.88713V3.5814ZM4.88713 3.34884H5.11969V3.5814H4.88713V3.34884ZM5.81736 2.4186H6.04992V2.65116H5.81736V2.4186ZM5.81736 2.65116H6.04992V2.88372H5.81736V2.65116ZM6.28248 2.65116H6.51503V2.88372H6.28248V2.65116ZM6.51503 2.65116H6.74759V2.88372H6.51503V2.65116ZM6.28248 2.4186H6.51503V2.65116H6.28248V2.4186ZM6.04992 2.4186H6.28248V2.65116H6.04992V2.4186ZM6.04992 2.65116H6.28248V2.88372H6.04992V2.65116ZM6.74759 2.88372H6.98015V3.11628H6.74759V2.88372ZM6.51503 3.11628H6.74759V3.34884H6.51503V3.11628ZM6.51503 2.88372H6.74759V3.11628H6.51503V2.88372ZM6.28248 2.88372H6.51503V3.11628H6.28248V2.88372ZM6.28248 3.11628H6.51503V3.34884H6.28248V3.11628ZM5.5848 2.88372H5.81736V3.11628H5.5848V2.88372ZM5.35224 2.88372H5.5848V3.11628H5.35224V2.88372ZM5.35224 3.11628H5.5848V3.34884H5.35224V3.11628ZM5.5848 3.11628H5.81736V3.34884H5.5848V3.11628ZM5.5848 2.65116H5.81736V2.88372H5.5848V2.65116ZM5.11969 3.11628H5.35224V3.34884H5.11969V3.11628ZM6.04992 2.88372H6.28248V3.11628H6.04992V2.88372ZM5.81736 2.88372H6.04992V3.11628H5.81736V2.88372ZM6.04992 3.11628H6.28248V3.34884H6.04992V3.11628ZM6.28248 3.34884H6.51503V3.5814H6.28248V3.34884ZM6.04992 2.18605H6.28248V2.4186H6.04992V2.18605ZM6.28248 4.04651H6.51503V4.27907H6.28248V4.04651ZM6.51503 4.04651H6.74759V4.27907H6.51503V4.04651ZM6.51503 4.27907H6.74759V4.51163H6.51503V4.27907ZM6.28248 4.27907H6.51503V4.51163H6.28248V4.27907Z" fill="black"/>
<path d="M8.228 7V4.424H8.768V5.504H9.892V4.424H10.432V7H9.892V5.92H8.768V7H8.228ZM10.9186 4.756V4.332H11.5066V4.756H10.9186ZM10.9626 7V5.504H10.6786L10.7266 5.104H11.5026V7H10.9626ZM12.7624 7.704C12.621 7.704 12.4757 7.69467 12.3264 7.676C12.1797 7.65733 12.0557 7.63067 11.9544 7.596V7.192C12.061 7.22667 12.1864 7.25333 12.3304 7.272C12.4744 7.29333 12.609 7.304 12.7344 7.304C12.9184 7.304 13.0517 7.29333 13.1344 7.272C13.217 7.25333 13.2584 7.21867 13.2584 7.168C13.2584 7.12533 13.2397 7.096 13.2024 7.08C13.1677 7.064 13.093 7.056 12.9784 7.056H12.4624C12.1237 7.056 11.9544 6.93067 11.9544 6.68C11.9544 6.60267 11.9757 6.532 12.0184 6.468C12.061 6.404 12.129 6.35333 12.2224 6.316C12.0064 6.20667 11.8984 6.02267 11.8984 5.764C11.8984 5.51867 11.9744 5.34133 12.1264 5.232C12.2784 5.12 12.5037 5.064 12.8024 5.064C12.8637 5.064 12.9304 5.06933 13.0024 5.08C13.077 5.088 13.133 5.096 13.1704 5.104H13.8824L13.8704 5.444H13.5704C13.653 5.52133 13.6944 5.62933 13.6944 5.768C13.6944 5.96267 13.633 6.11867 13.5104 6.236C13.3877 6.35067 13.2064 6.408 12.9664 6.408C12.9237 6.408 12.8824 6.40667 12.8424 6.404C12.805 6.39867 12.7664 6.39333 12.7264 6.388C12.6464 6.39867 12.5784 6.41733 12.5224 6.444C12.469 6.47067 12.4424 6.50667 12.4424 6.552C12.4424 6.61333 12.497 6.644 12.6064 6.644H13.1424C13.3344 6.644 13.4824 6.688 13.5864 6.776C13.6904 6.86133 13.7424 6.98667 13.7424 7.152C13.7424 7.33867 13.6584 7.47733 13.4904 7.568C13.3224 7.65867 13.0797 7.704 12.7624 7.704ZM12.8064 6.104C12.9664 6.104 13.077 6.07733 13.1384 6.024C13.2024 5.968 13.2344 5.87467 13.2344 5.744C13.2344 5.61333 13.2024 5.51867 13.1384 5.46C13.077 5.40133 12.9664 5.372 12.8064 5.372C12.6544 5.372 12.545 5.40133 12.4784 5.46C12.4117 5.516 12.3784 5.61067 12.3784 5.744C12.3784 5.86667 12.409 5.95733 12.4704 6.016C12.5344 6.07467 12.6464 6.104 12.8064 6.104ZM14.2085 7V4.304H14.7485V5.264C14.8258 5.20533 14.9205 5.15733 15.0325 5.12C15.1445 5.08267 15.2658 5.064 15.3965 5.064C15.6471 5.064 15.8298 5.12267 15.9445 5.24C16.0591 5.35733 16.1165 5.53867 16.1165 5.784V7H15.5765V5.812C15.5765 5.684 15.5498 5.59333 15.4965 5.54C15.4458 5.48667 15.3498 5.46 15.2085 5.46C15.1258 5.46 15.0418 5.47867 14.9565 5.516C14.8738 5.55333 14.8045 5.6 14.7485 5.656V7H14.2085ZM17.435 7V4.424H19.247V4.844H17.975V5.504H19.099V5.92H17.975V7H17.435ZM19.9998 7.04C19.8798 7.04 19.7678 7.01867 19.6638 6.976C19.5624 6.93067 19.4798 6.86533 19.4158 6.78C19.3544 6.692 19.3238 6.58267 19.3238 6.452C19.3238 6.26533 19.3891 6.116 19.5198 6.004C19.6531 5.892 19.8491 5.836 20.1078 5.836H20.6678V5.784C20.6678 5.66667 20.6344 5.584 20.5678 5.536C20.5038 5.488 20.3731 5.464 20.1758 5.464C19.9598 5.464 19.7518 5.49733 19.5518 5.564V5.184C19.6398 5.14933 19.7464 5.12133 19.8718 5.1C19.9998 5.076 20.1384 5.064 20.2878 5.064C20.5731 5.064 20.7931 5.12267 20.9478 5.24C21.1051 5.35467 21.1838 5.54 21.1838 5.796V7H20.7158L20.6878 6.828C20.6131 6.89467 20.5211 6.94667 20.4118 6.984C20.3024 7.02133 20.1651 7.04 19.9998 7.04ZM20.1478 6.684C20.2678 6.684 20.3718 6.664 20.4598 6.624C20.5478 6.584 20.6171 6.53333 20.6678 6.472V6.172H20.1198C19.9091 6.172 19.8038 6.25867 19.8038 6.432C19.8038 6.6 19.9184 6.684 20.1478 6.684ZM22.2866 7.04C22.1453 7.04 22.0106 7.02933 21.8826 7.008C21.7546 6.98933 21.652 6.96533 21.5746 6.936V6.488C21.668 6.52533 21.7733 6.55467 21.8906 6.576C22.008 6.59467 22.116 6.604 22.2146 6.604C22.348 6.604 22.4413 6.596 22.4946 6.58C22.5506 6.564 22.5786 6.528 22.5786 6.472C22.5786 6.408 22.536 6.36133 22.4506 6.332C22.368 6.30267 22.244 6.26133 22.0786 6.208C21.9053 6.14933 21.772 6.07867 21.6786 5.996C21.5853 5.91333 21.5386 5.79067 21.5386 5.628C21.5386 5.44667 21.604 5.308 21.7346 5.212C21.868 5.11333 22.0813 5.064 22.3746 5.064C22.492 5.064 22.6026 5.07333 22.7066 5.092C22.8106 5.108 22.8986 5.128 22.9706 5.152V5.596C22.8986 5.56133 22.816 5.536 22.7226 5.52C22.6293 5.50133 22.5426 5.492 22.4626 5.492C22.348 5.492 22.256 5.5 22.1866 5.516C22.12 5.532 22.0866 5.56667 22.0866 5.62C22.0866 5.67867 22.1226 5.72 22.1946 5.744C22.2693 5.768 22.384 5.804 22.5386 5.852C22.6906 5.89733 22.8093 5.94667 22.8946 6C22.98 6.05333 23.04 6.11733 23.0746 6.192C23.1093 6.264 23.1266 6.35467 23.1266 6.464C23.1266 6.848 22.8466 7.04 22.2866 7.04ZM23.5014 7V4.304H24.0414V5.264C24.1188 5.20533 24.2134 5.15733 24.3254 5.12C24.4374 5.08267 24.5588 5.064 24.6894 5.064C24.9401 5.064 25.1228 5.12267 25.2374 5.24C25.3521 5.35733 25.4094 5.53867 25.4094 5.784V7H24.8694V5.812C24.8694 5.684 24.8428 5.59333 24.7894 5.54C24.7388 5.48667 24.6428 5.46 24.5014 5.46C24.4188 5.46 24.3348 5.47867 24.2494 5.516C24.1668 5.55333 24.0974 5.6 24.0414 5.656V7H23.5014ZM25.9811 4.756V4.332H26.5691V4.756H25.9811ZM26.0251 7V5.504H25.7411L25.7891 5.104H26.5651V7H26.0251ZM27.9729 7.04C27.6182 7.04 27.3582 6.95467 27.1929 6.784C27.0275 6.61067 26.9449 6.36667 26.9449 6.052C26.9449 5.73733 27.0275 5.49467 27.1929 5.324C27.3609 5.15067 27.6209 5.064 27.9729 5.064C28.3275 5.064 28.5875 5.15067 28.7529 5.324C28.9209 5.49467 29.0049 5.73733 29.0049 6.052C29.0049 6.36667 28.9222 6.61067 28.7569 6.784C28.5915 6.95467 28.3302 7.04 27.9729 7.04ZM27.9729 6.58C28.1462 6.58 28.2702 6.54133 28.3449 6.464C28.4195 6.384 28.4569 6.24667 28.4569 6.052C28.4569 5.85733 28.4195 5.72133 28.3449 5.644C28.2702 5.564 28.1462 5.524 27.9729 5.524C27.8022 5.524 27.6795 5.564 27.6049 5.644C27.5302 5.72133 27.4929 5.85733 27.4929 6.052C27.4929 6.24667 27.5302 6.384 27.6049 6.464C27.6795 6.54133 27.8022 6.58 27.9729 6.58ZM29.3803 7V5.104H29.8803L29.9003 5.284C29.9777 5.22533 30.075 5.17467 30.1923 5.132C30.3123 5.08667 30.4377 5.064 30.5683 5.064C30.819 5.064 31.0017 5.12267 31.1163 5.24C31.231 5.35733 31.2883 5.53867 31.2883 5.784V7H30.7483V5.812C30.7483 5.684 30.7217 5.59333 30.6683 5.54C30.6177 5.48667 30.5217 5.46 30.3803 5.46C30.2977 5.46 30.2137 5.47867 30.1283 5.516C30.0457 5.55333 29.9763 5.6 29.9203 5.656V7H29.3803Z" fill="black"/>
</svg>
