<svg width="22" height="23" viewBox="0 0 22 23" fill="none" xmlns="http://www.w3.org/2000/svg">
<path fill-rule="evenodd" clip-rule="evenodd" d="M5.19386 20.102L2.43386 23V17.6883C0.912698 15.8227 0 13.4473 0 10.8611C0 4.86322 4.90423 0 10.9524 0C17.0005 0 21.9048 4.86322 21.9048 10.8611C21.9048 16.859 17.0005 21.7222 10.9524 21.7222C8.92985 21.7291 6.94211 21.1699 5.19386 20.102Z" fill="white"/>
<circle cx="10.8571" cy="10.8571" r="9.85714" fill="black"/>
<path d="M9.7907 12.7674H10.0233V13H9.7907V12.7674ZM10.0233 12.7674H10.2558V13H10.0233V12.7674ZM10.2558 12.7674H10.4884V13H10.2558V12.7674ZM9.55814 12.5349H9.7907V12.7674H9.55814V12.5349ZM9.7907 12.5349H10.0233V12.7674H9.7907V12.5349ZM10.0233 12.5349H10.2558V12.7674H10.0233V12.5349ZM10.2558 12.5349H10.4884V12.7674H10.2558V12.5349ZM9.55814 12.3023H9.7907V12.5349H9.55814V12.3023ZM9.55814 12.0698H9.7907V12.3023H9.55814V12.0698ZM9.7907 12.0698H10.0233V12.3023H9.7907V12.0698ZM9.7907 12.3023H10.0233V12.5349H9.7907V12.3023ZM10.0233 12.3023H10.2558V12.5349H10.0233V12.3023ZM10.2558 12.3023H10.4884V12.5349H10.2558V12.3023ZM10.2558 12.0698H10.4884V12.3023H10.2558V12.0698ZM10.0233 12.0698H10.2558V12.3023H10.0233V12.0698ZM9.7907 11.8372H10.0233V12.0698H9.7907V11.8372ZM10.0233 11.8372H10.2558V12.0698H10.0233V11.8372ZM10.2558 11.8372H10.4884V12.0698H10.2558V11.8372ZM10.2558 11.6047H10.4884V11.8372H10.2558V11.6047ZM10.0233 11.6047H10.2558V11.8372H10.0233V11.6047ZM9.7907 11.6047H10.0233V11.8372H9.7907V11.6047ZM9.7907 11.3721H10.0233V11.6047H9.7907V11.3721ZM9.7907 11.1395H10.0233V11.3721H9.7907V11.1395ZM9.7907 10.907H10.0233V11.1395H9.7907V10.907ZM9.7907 10.6744H10.0233V10.907H9.7907V10.6744ZM9.7907 10.4419H10.0233V10.6744H9.7907V10.4419ZM10.0233 10.4419H10.2558V10.6744H10.0233V10.4419ZM10.2558 10.4419H10.4884V10.6744H10.2558V10.4419ZM10.2558 10.6744H10.4884V10.907H10.2558V10.6744ZM10.2558 10.907H10.4884V11.1395H10.2558V10.907ZM10.2558 11.1395H10.4884V11.3721H10.2558V11.1395ZM10.0233 11.1395H10.2558V11.3721H10.0233V11.1395ZM10.0233 11.3721H10.2558V11.6047H10.0233V11.3721ZM10.0233 10.907H10.2558V11.1395H10.0233V10.907ZM10.0233 10.6744H10.2558V10.907H10.0233V10.6744ZM10.2558 11.3721H10.4884V11.6047H10.2558V11.3721ZM10.2558 10.2093H10.4884V10.4419H10.2558V10.2093ZM10.2558 9.97674H10.4884V10.2093H10.2558V9.97674ZM10.2558 9.74419H10.4884V9.97674H10.2558V9.74419ZM10.2558 9.51163H10.4884V9.74419H10.2558V9.51163ZM10.2558 9.27907H10.4884V9.51163H10.2558V9.27907ZM9.7907 9.27907H10.0233V9.51163H9.7907V9.27907ZM10.0233 9.51163H10.2558V9.74419H10.0233V9.51163ZM10.0233 9.74419H10.2558V9.97674H10.0233V9.74419ZM10.0233 9.97674H10.2558V10.2093H10.0233V9.97674ZM10.0233 10.2093H10.2558V10.4419H10.0233V10.2093ZM9.7907 10.2093H10.0233V10.4419H9.7907V10.2093ZM9.7907 9.97674H10.0233V10.2093H9.7907V9.97674ZM9.7907 9.74419H10.0233V9.97674H9.7907V9.74419ZM9.7907 9.51163H10.0233V9.74419H9.7907V9.51163ZM10.0233 9.27907H10.2558V9.51163H10.0233V9.27907ZM9.55814 11.8372H9.7907V12.0698H9.55814V11.8372ZM9.55814 11.6047H9.7907V11.8372H9.55814V11.6047ZM9.55814 11.3721H9.7907V11.6047H9.55814V11.3721ZM9.55814 11.1395H9.7907V11.3721H9.55814V11.1395ZM9.55814 10.907H9.7907V11.1395H9.55814V10.907ZM9.55814 10.6744H9.7907V10.907H9.55814V10.6744ZM9.55814 10.4419H9.7907V10.6744H9.55814V10.4419ZM9.55814 10.2093H9.7907V10.4419H9.55814V10.2093ZM9.55814 9.97674H9.7907V10.2093H9.55814V9.97674ZM9.55814 9.74419H9.7907V9.97674H9.55814V9.74419ZM9.55814 9.27907H9.7907V9.51163H9.55814V9.27907ZM9.55814 9.51163H9.7907V9.74419H9.55814V9.51163ZM9.7907 9.04651H10.0233V9.27907H9.7907V9.04651ZM10.0233 9.04651H10.2558V9.27907H10.0233V9.04651ZM10.4884 9.51163H10.7209V9.74419H10.4884V9.51163ZM9.09302 9.51163H9.32558V9.74419H9.09302V9.51163ZM9.09302 9.27907H9.32558V9.51163H9.09302V9.27907ZM9.32558 9.27907H9.55814V9.51163H9.32558V9.27907ZM9.32558 9.04651H9.55814V9.27907H9.32558V9.04651ZM9.55814 9.04651H9.7907V9.27907H9.55814V9.04651ZM10.7209 9.74419H10.9535V9.97674H10.7209V9.74419ZM10.4884 9.74419H10.7209V9.97674H10.4884V9.74419ZM10.7209 9.51163H10.9535V9.74419H10.7209V9.51163ZM7.93023 12.7674H8.16279V13H7.93023V12.7674ZM8.16279 12.7674H8.39535V13H8.16279V12.7674ZM7.69767 12.5349H7.93023V12.7674H7.69767V12.5349ZM7.93023 12.5349H8.16279V12.7674H7.93023V12.5349ZM8.16279 12.5349H8.39535V12.7674H8.16279V12.5349ZM8.39535 12.5349H8.62791V12.7674H8.39535V12.5349ZM7.46512 12.3023H7.69767V12.5349H7.46512V12.3023ZM7.69767 12.3023H7.93023V12.5349H7.69767V12.3023ZM7.69767 12.0698H7.93023V12.3023H7.69767V12.0698ZM7.93023 12.0698H8.16279V12.3023H7.93023V12.0698ZM7.93023 12.3023H8.16279V12.5349H7.93023V12.3023ZM8.16279 12.3023H8.39535V12.5349H8.16279V12.3023ZM8.39535 12.3023H8.62791V12.5349H8.39535V12.3023ZM8.39535 12.0698H8.62791V12.3023H8.39535V12.0698ZM8.62791 12.3023H8.86047V12.5349H8.62791V12.3023ZM8.16279 12.0698H8.39535V12.3023H8.16279V12.0698ZM7.93023 11.8372H8.16279V12.0698H7.93023V11.8372ZM8.16279 11.8372H8.39535V12.0698H8.16279V11.8372ZM8.39535 11.8372H8.62791V12.0698H8.39535V11.8372ZM8.39535 11.6047H8.62791V11.8372H8.39535V11.6047ZM8.16279 11.6047H8.39535V11.8372H8.16279V11.6047ZM7.93023 11.6047H8.16279V11.8372H7.93023V11.6047ZM7.93023 11.3721H8.16279V11.6047H7.93023V11.3721ZM7.93023 11.1395H8.16279V11.3721H7.93023V11.1395ZM7.93023 10.907H8.16279V11.1395H7.93023V10.907ZM7.93023 10.6744H8.16279V10.907H7.93023V10.6744ZM7.93023 10.4419H8.16279V10.6744H7.93023V10.4419ZM8.16279 10.4419H8.39535V10.6744H8.16279V10.4419ZM8.39535 10.4419H8.62791V10.6744H8.39535V10.4419ZM8.39535 10.6744H8.62791V10.907H8.39535V10.6744ZM8.39535 10.907H8.62791V11.1395H8.39535V10.907ZM8.39535 11.1395H8.62791V11.3721H8.39535V11.1395ZM8.16279 11.1395H8.39535V11.3721H8.16279V11.1395ZM8.16279 11.3721H8.39535V11.6047H8.16279V11.3721ZM8.16279 10.907H8.39535V11.1395H8.16279V10.907ZM8.16279 10.6744H8.39535V10.907H8.16279V10.6744ZM8.39535 11.3721H8.62791V11.6047H8.39535V11.3721ZM8.39535 10.2093H8.62791V10.4419H8.39535V10.2093ZM8.39535 9.97674H8.62791V10.2093H8.39535V9.97674ZM8.39535 9.74419H8.62791V9.97674H8.39535V9.74419ZM8.39535 9.51163H8.62791V9.74419H8.39535V9.51163ZM8.39535 9.27907H8.62791V9.51163H8.39535V9.27907ZM8.39535 9.04651H8.62791V9.27907H8.39535V9.04651ZM8.39535 8.5814H8.62791V8.81395H8.39535V8.5814ZM8.39535 8.34884H8.62791V8.5814H8.39535V8.34884ZM8.39535 8.11628H8.62791V8.34884H8.39535V8.11628ZM8.39535 7.88372H8.62791V8.11628H8.39535V7.88372ZM8.39535 7.65116H8.62791V7.88372H8.39535V7.65116ZM8.39535 7.4186H8.62791V7.65116H8.39535V7.4186ZM8.39535 7.18605H8.62791V7.4186H8.39535V7.18605ZM7.93023 7.65116H8.16279V7.88372H7.93023V7.65116ZM7.93023 7.88372H8.16279V8.11628H7.93023V7.88372ZM7.93023 8.11628H8.16279V8.34884H7.93023V8.11628ZM7.93023 8.34884H8.16279V8.5814H7.93023V8.34884ZM7.93023 8.5814H8.16279V8.81395H7.93023V8.5814ZM7.93023 9.04651H8.16279V9.27907H7.93023V9.04651ZM7.93023 9.27907H8.16279V9.51163H7.93023V9.27907ZM8.16279 9.51163H8.39535V9.74419H8.16279V9.51163ZM8.16279 9.74419H8.39535V9.97674H8.16279V9.74419ZM8.16279 9.97674H8.39535V10.2093H8.16279V9.97674ZM8.16279 10.2093H8.39535V10.4419H8.16279V10.2093ZM7.93023 10.2093H8.16279V10.4419H7.93023V10.2093ZM7.93023 9.97674H8.16279V10.2093H7.93023V9.97674ZM7.93023 9.74419H8.16279V9.97674H7.93023V9.74419ZM7.93023 9.51163H8.16279V9.74419H7.93023V9.51163ZM8.16279 9.27907H8.39535V9.51163H8.16279V9.27907ZM8.16279 9.04651H8.39535V9.27907H8.16279V9.04651ZM8.16279 8.5814H8.39535V8.81395H8.16279V8.5814ZM8.16279 8.34884H8.39535V8.5814H8.16279V8.34884ZM8.16279 8.11628H8.39535V8.34884H8.16279V8.11628ZM8.16279 7.88372H8.39535V8.11628H8.16279V7.88372ZM8.16279 7.65116H8.39535V7.88372H8.16279V7.65116ZM8.16279 7.4186H8.39535V7.65116H8.16279V7.4186ZM7.69767 11.8372H7.93023V12.0698H7.69767V11.8372ZM7.69767 11.6047H7.93023V11.8372H7.69767V11.6047ZM7.69767 11.3721H7.93023V11.6047H7.69767V11.3721ZM7.69767 11.1395H7.93023V11.3721H7.69767V11.1395ZM7.69767 10.907H7.93023V11.1395H7.69767V10.907ZM7.69767 10.6744H7.93023V10.907H7.69767V10.6744ZM7.69767 10.4419H7.93023V10.6744H7.69767V10.4419ZM7.69767 10.2093H7.93023V10.4419H7.69767V10.2093ZM7.69767 9.97674H7.93023V10.2093H7.69767V9.97674ZM7.69767 9.74419H7.93023V9.97674H7.69767V9.74419ZM7.69767 9.27907H7.93023V9.51163H7.69767V9.27907ZM7.69767 8.5814H7.93023V8.81395H7.69767V8.5814ZM7.69767 8.34884H7.93023V8.5814H7.69767V8.34884ZM7.69767 8.11628H7.93023V8.34884H7.69767V8.11628ZM7.69767 9.04651H7.93023V9.27907H7.69767V9.04651ZM7.69767 9.51163H7.93023V9.74419H7.69767V9.51163ZM7.69767 7.88372H7.93023V8.11628H7.69767V7.88372ZM7.69767 8.81395H7.93023V9.04651H7.69767V8.81395ZM7.93023 8.81395H8.16279V9.04651H7.93023V8.81395ZM8.16279 8.81395H8.39535V9.04651H8.16279V8.81395ZM8.39535 8.81395H8.62791V9.04651H8.39535V8.81395ZM7.23256 12.0698H7.46512V12.3023H7.23256V12.0698ZM7.46512 12.0698H7.69767V12.3023H7.46512V12.0698ZM8.62791 12.0698H8.86047V12.3023H8.62791V12.0698ZM8.62791 9.74419H8.86047V9.97674H8.62791V9.74419ZM8.86047 9.74419H9.09302V9.97674H8.86047V9.74419ZM8.86047 9.51163H9.09302V9.74419H8.86047V9.51163ZM9.55814 12.7674H9.7907V13H9.55814V12.7674ZM9.7907 13H10.0233V13.2326H9.7907V13ZM9.55814 13H9.7907V13.2326H9.55814V13ZM9.32558 13H9.55814V13.2326H9.32558V13ZM9.32558 13.2326H9.55814V13.4651H9.32558V13.2326ZM9.09302 13.2326H9.32558V13.4651H9.09302V13.2326ZM9.7907 13.2326H10.0233V13.4651H9.7907V13.2326ZM9.55814 13.2326H9.7907V13.4651H9.55814V13.2326ZM9.32558 13.4651H9.55814V13.6977H9.32558V13.4651ZM9.09302 13.4651H9.32558V13.6977H9.09302V13.4651ZM8.86047 13.4651H9.09302V13.6977H8.86047V13.4651ZM8.62791 13.6977H8.86047V13.9302H8.62791V13.6977ZM8.86047 13.6977H9.09302V13.9302H8.86047V13.6977ZM9.32558 13.6977H9.55814V13.9302H9.32558V13.6977ZM9.09302 13.6977H9.32558V13.9302H9.09302V13.6977ZM8.62791 13.9302H8.86047V14.1628H8.62791V13.9302ZM8.86047 13.9302H9.09302V14.1628H8.86047V13.9302ZM8.86047 14.1628H9.09302V14.3953H8.86047V14.1628ZM8.62791 14.1628H8.86047V14.3953H8.62791V14.1628ZM9.09302 13.9302H9.32558V14.1628H9.09302V13.9302ZM9.55814 13.4651H9.7907V13.6977H9.55814V13.4651ZM10.0233 13H10.2558V13.2326H10.0233V13ZM8.62791 9.97674H8.86047V10.2093H8.62791V9.97674ZM8.62791 9.51163H8.86047V9.74419H8.62791V9.51163ZM8.86047 9.27907H9.09302V9.51163H8.86047V9.27907ZM9.09302 9.04651H9.32558V9.27907H9.09302V9.04651ZM7.23256 12.3023H7.46512V12.5349H7.23256V12.3023ZM7.69767 12.7674H7.93023V13H7.69767V12.7674ZM8.86047 12.0698H9.09302V12.3023H8.86047V12.0698ZM12.1197 12.7674H12.3522V13H12.1197V12.7674ZM12.3522 12.7674H12.5848V13H12.3522V12.7674ZM11.8871 12.5349H12.1197V12.7674H11.8871V12.5349ZM12.1197 12.5349H12.3522V12.7674H12.1197V12.5349ZM12.3522 12.5349H12.5848V12.7674H12.3522V12.5349ZM12.5848 12.5349H12.8174V12.7674H12.5848V12.5349ZM11.6546 12.3023H11.8871V12.5349H11.6546V12.3023ZM11.8871 12.3023H12.1197V12.5349H11.8871V12.3023ZM11.8871 12.0698H12.1197V12.3023H11.8871V12.0698ZM12.1197 12.0698H12.3522V12.3023H12.1197V12.0698ZM12.1197 12.3023H12.3522V12.5349H12.1197V12.3023ZM12.3522 12.3023H12.5848V12.5349H12.3522V12.3023ZM12.5848 12.3023H12.8174V12.5349H12.5848V12.3023ZM12.5848 12.0698H12.8174V12.3023H12.5848V12.0698ZM12.3522 12.0698H12.5848V12.3023H12.3522V12.0698ZM12.1197 11.8372H12.3522V12.0698H12.1197V11.8372ZM12.3522 11.8372H12.5848V12.0698H12.3522V11.8372ZM12.5848 11.8372H12.8174V12.0698H12.5848V11.8372ZM12.5848 11.6047H12.8174V11.8372H12.5848V11.6047ZM12.3522 11.6047H12.5848V11.8372H12.3522V11.6047ZM12.1197 11.6047H12.3522V11.8372H12.1197V11.6047ZM12.1197 11.3721H12.3522V11.6047H12.1197V11.3721ZM12.1197 11.1395H12.3522V11.3721H12.1197V11.1395ZM12.1197 10.907H12.3522V11.1395H12.1197V10.907ZM12.1197 10.6744H12.3522V10.907H12.1197V10.6744ZM12.1197 10.4419H12.3522V10.6744H12.1197V10.4419ZM12.3522 10.4419H12.5848V10.6744H12.3522V10.4419ZM12.5848 10.4419H12.8174V10.6744H12.5848V10.4419ZM12.5848 10.6744H12.8174V10.907H12.5848V10.6744ZM12.5848 10.907H12.8174V11.1395H12.5848V10.907ZM12.5848 11.1395H12.8174V11.3721H12.5848V11.1395ZM12.3522 11.1395H12.5848V11.3721H12.3522V11.1395ZM12.3522 11.3721H12.5848V11.6047H12.3522V11.3721ZM12.3522 10.907H12.5848V11.1395H12.3522V10.907ZM12.3522 10.6744H12.5848V10.907H12.3522V10.6744ZM12.5848 11.3721H12.8174V11.6047H12.5848V11.3721ZM12.5848 10.2093H12.8174V10.4419H12.5848V10.2093ZM12.5848 9.97674H12.8174V10.2093H12.5848V9.97674ZM12.5848 9.74419H12.8174V9.97674H12.5848V9.74419ZM12.5848 9.51163H12.8174V9.74419H12.5848V9.51163ZM12.5848 9.27907H12.8174V9.51163H12.5848V9.27907ZM12.1197 9.27907H12.3522V9.51163H12.1197V9.27907ZM12.3522 9.51163H12.5848V9.74419H12.3522V9.51163ZM12.3522 9.74419H12.5848V9.97674H12.3522V9.74419ZM12.3522 9.97674H12.5848V10.2093H12.3522V9.97674ZM12.3522 10.2093H12.5848V10.4419H12.3522V10.2093ZM12.1197 10.2093H12.3522V10.4419H12.1197V10.2093ZM12.1197 9.97674H12.3522V10.2093H12.1197V9.97674ZM12.1197 9.74419H12.3522V9.97674H12.1197V9.74419ZM12.1197 9.51163H12.3522V9.74419H12.1197V9.51163ZM12.3522 9.27907H12.5848V9.51163H12.3522V9.27907ZM11.8871 11.8372H12.1197V12.0698H11.8871V11.8372ZM11.8871 11.6047H12.1197V11.8372H11.8871V11.6047ZM11.8871 11.3721H12.1197V11.6047H11.8871V11.3721ZM11.8871 11.1395H12.1197V11.3721H11.8871V11.1395ZM11.8871 10.907H12.1197V11.1395H11.8871V10.907ZM11.8871 10.6744H12.1197V10.907H11.8871V10.6744ZM11.8871 10.4419H12.1197V10.6744H11.8871V10.4419ZM11.8871 10.2093H12.1197V10.4419H11.8871V10.2093ZM11.8871 9.97674H12.1197V10.2093H11.8871V9.97674ZM11.8871 9.74419H12.1197V9.97674H11.8871V9.74419ZM11.8871 9.27907H12.1197V9.51163H11.8871V9.27907ZM11.8871 9.51163H12.1197V9.74419H11.8871V9.51163ZM13.0499 12.0698H13.2825V12.3023H13.0499V12.0698ZM12.8174 12.3023H13.0499V12.5349H12.8174V12.3023ZM11.422 12.0698H11.6546V12.3023H11.422V12.0698ZM11.6546 12.0698H11.8871V12.3023H11.6546V12.0698ZM12.8174 12.0698H13.0499V12.3023H12.8174V12.0698ZM11.422 12.3023H11.6546V12.5349H11.422V12.3023ZM11.8871 12.7674H12.1197V13H11.8871V12.7674ZM11.422 9.04651H11.6546V9.27907H11.422V9.04651ZM11.6546 9.04651H11.8871V9.27907H11.6546V9.04651ZM11.6546 9.27907H11.8871V9.51163H11.6546V9.27907ZM11.422 9.27907H11.6546V9.51163H11.422V9.27907ZM12.8174 9.27907H13.0499V9.51163H12.8174V9.27907ZM12.8174 9.04651H13.0499V9.27907H12.8174V9.04651ZM13.0499 9.04651H13.2825V9.27907H13.0499V9.04651ZM13.0499 9.27907H13.2825V9.51163H13.0499V9.27907ZM11.8871 9.04651H12.1197V9.27907H11.8871V9.04651ZM12.1197 9.04651H12.3522V9.27907H12.1197V9.04651ZM12.3522 9.04651H12.5848V9.27907H12.3522V9.04651ZM12.5848 9.04651H12.8174V9.27907H12.5848V9.04651ZM12.5848 8.81395H12.8174V9.04651H12.5848V8.81395ZM12.5848 8.5814H12.8174V8.81395H12.5848V8.5814ZM12.5848 8.34884H12.8174V8.5814H12.5848V8.34884ZM12.3522 8.34884H12.5848V8.5814H12.3522V8.34884ZM12.1197 8.34884H12.3522V8.5814H12.1197V8.34884ZM12.1197 8.5814H12.3522V8.81395H12.1197V8.5814ZM12.1197 8.81395H12.3522V9.04651H12.1197V8.81395ZM12.3522 8.81395H12.5848V9.04651H12.3522V8.81395ZM12.3522 8.5814H12.5848V8.81395H12.3522V8.5814ZM11.8871 8.81395H12.1197V9.04651H11.8871V8.81395ZM11.8871 8.5814H12.1197V8.81395H11.8871V8.5814ZM11.8871 8.34884H12.1197V8.5814H11.8871V8.34884ZM12.8174 7.4186H13.0499V7.65116H12.8174V7.4186ZM12.8174 7.65116H13.0499V7.88372H12.8174V7.65116ZM13.2825 7.65116H13.515V7.88372H13.2825V7.65116ZM13.515 7.65116H13.7476V7.88372H13.515V7.65116ZM13.2825 7.4186H13.515V7.65116H13.2825V7.4186ZM13.0499 7.4186H13.2825V7.65116H13.0499V7.4186ZM13.0499 7.65116H13.2825V7.88372H13.0499V7.65116ZM13.7476 7.88372H13.9802V8.11628H13.7476V7.88372ZM13.515 8.11628H13.7476V8.34884H13.515V8.11628ZM13.515 7.88372H13.7476V8.11628H13.515V7.88372ZM13.2825 7.88372H13.515V8.11628H13.2825V7.88372ZM13.2825 8.11628H13.515V8.34884H13.2825V8.11628ZM12.5848 7.88372H12.8174V8.11628H12.5848V7.88372ZM12.3522 7.88372H12.5848V8.11628H12.3522V7.88372ZM12.3522 8.11628H12.5848V8.34884H12.3522V8.11628ZM12.5848 8.11628H12.8174V8.34884H12.5848V8.11628ZM12.5848 7.65116H12.8174V7.88372H12.5848V7.65116ZM12.1197 8.11628H12.3522V8.34884H12.1197V8.11628ZM13.0499 7.88372H13.2825V8.11628H13.0499V7.88372ZM12.8174 7.88372H13.0499V8.11628H12.8174V7.88372ZM13.0499 8.11628H13.2825V8.34884H13.0499V8.11628ZM13.2825 8.34884H13.515V8.5814H13.2825V8.34884ZM13.0499 7.18605H13.2825V7.4186H13.0499V7.18605ZM13.2825 9.04651H13.515V9.27907H13.2825V9.04651ZM13.515 9.04651H13.7476V9.27907H13.515V9.04651ZM13.515 9.27907H13.7476V9.51163H13.515V9.27907ZM13.2825 9.27907H13.515V9.51163H13.2825V9.27907Z" fill="white"/>
</svg>
