<svg width="22" height="23" viewBox="0 0 22 23" fill="none" xmlns="http://www.w3.org/2000/svg">
<path fill-rule="evenodd" clip-rule="evenodd" d="M5.19386 20.102L2.43386 23V17.6883C0.912698 15.8227 0 13.4473 0 10.8611C0 4.86322 4.90423 0 10.9524 0C17.0005 0 21.9048 4.86322 21.9048 10.8611C21.9048 16.859 17.0005 21.7222 10.9524 21.7222C8.92985 21.7291 6.94211 21.1699 5.19386 20.102Z" fill="white"/>
<circle cx="10.8571" cy="10.8571" r="9.85714" fill="black"/>
<path d="M4.822 11.59C4.91 11.746 5.006 11.882 5.11 11.998C5.218 12.114 5.336 12.204 5.464 12.268C5.592 12.332 5.73 12.364 5.878 12.364C6.05 12.364 6.19 12.32 6.298 12.232C6.406 12.144 6.46 12.024 6.46 11.872C6.46 11.74 6.426 11.634 6.358 11.554C6.294 11.474 6.196 11.404 6.064 11.344C5.936 11.28 5.778 11.212 5.59 11.14C5.49 11.104 5.374 11.056 5.242 10.996C5.114 10.932 4.992 10.852 4.876 10.756C4.76 10.656 4.664 10.536 4.588 10.396C4.512 10.252 4.474 10.08 4.474 9.88C4.474 9.64 4.534 9.434 4.654 9.262C4.778 9.086 4.944 8.952 5.152 8.86C5.364 8.764 5.6 8.716 5.86 8.716C6.128 8.716 6.358 8.762 6.55 8.854C6.746 8.942 6.908 9.056 7.036 9.196C7.168 9.332 7.27 9.474 7.342 9.622L6.67 9.994C6.614 9.894 6.546 9.804 6.466 9.724C6.39 9.64 6.302 9.574 6.202 9.526C6.102 9.474 5.988 9.448 5.86 9.448C5.692 9.448 5.566 9.488 5.482 9.568C5.398 9.644 5.356 9.734 5.356 9.838C5.356 9.942 5.39 10.034 5.458 10.114C5.526 10.19 5.63 10.264 5.77 10.336C5.91 10.404 6.086 10.474 6.298 10.546C6.434 10.594 6.564 10.654 6.688 10.726C6.816 10.798 6.93 10.886 7.03 10.99C7.134 11.09 7.214 11.21 7.27 11.35C7.33 11.486 7.36 11.644 7.36 11.824C7.36 12.028 7.32 12.21 7.24 12.37C7.16 12.53 7.05 12.666 6.91 12.778C6.77 12.886 6.612 12.968 6.436 13.024C6.264 13.084 6.082 13.114 5.89 13.114C5.634 13.114 5.394 13.066 5.17 12.97C4.95 12.87 4.758 12.736 4.594 12.568C4.43 12.4 4.302 12.218 4.21 12.022L4.822 11.59ZM7.98752 8.32H8.76752V13H7.98752V8.32ZM9.34839 11.62C9.34839 11.332 9.41439 11.08 9.54639 10.864C9.68239 10.648 9.86439 10.48 10.0924 10.36C10.3244 10.24 10.5864 10.18 10.8784 10.18C11.1704 10.18 11.4304 10.24 11.6584 10.36C11.8904 10.48 12.0724 10.648 12.2044 10.864C12.3404 11.08 12.4084 11.332 12.4084 11.62C12.4084 11.904 12.3404 12.156 12.2044 12.376C12.0724 12.592 11.8904 12.76 11.6584 12.88C11.4304 13 11.1704 13.06 10.8784 13.06C10.5864 13.06 10.3244 13 10.0924 12.88C9.86439 12.76 9.68239 12.592 9.54639 12.376C9.41439 12.156 9.34839 11.904 9.34839 11.62ZM10.1404 11.62C10.1404 11.776 10.1724 11.914 10.2364 12.034C10.3044 12.15 10.3944 12.242 10.5064 12.31C10.6184 12.374 10.7424 12.406 10.8784 12.406C11.0144 12.406 11.1384 12.374 11.2504 12.31C11.3624 12.242 11.4504 12.15 11.5144 12.034C11.5824 11.914 11.6164 11.776 11.6164 11.62C11.6164 11.464 11.5824 11.326 11.5144 11.206C11.4504 11.086 11.3624 10.994 11.2504 10.93C11.1384 10.866 11.0144 10.834 10.8784 10.834C10.7424 10.834 10.6184 10.866 10.5064 10.93C10.3944 10.994 10.3044 11.086 10.2364 11.206C10.1724 11.326 10.1404 11.464 10.1404 11.62ZM12.4955 10.24H13.3235L13.9295 11.77L14.7095 10.03L15.5195 11.776L16.1315 10.24H16.9535L15.6035 13.186L14.7155 11.428L13.8515 13.186L12.4955 10.24Z" fill="white"/>
</svg>
