<svg width="13" height="6" viewBox="0 0 13 6" fill="none" xmlns="http://www.w3.org/2000/svg">
<path d="M0.822 3.59C0.91 3.746 1.006 3.882 1.11 3.998C1.218 4.114 1.336 4.204 1.464 4.268C1.592 4.332 1.73 4.364 1.878 4.364C2.05 4.364 2.19 4.32 2.298 4.232C2.406 4.144 2.46 4.024 2.46 3.872C2.46 3.74 2.426 3.634 2.358 3.554C2.294 3.474 2.196 3.404 2.064 3.344C1.936 3.28 1.778 3.212 1.59 3.14C1.49 3.104 1.374 3.056 1.242 2.996C1.114 2.932 0.992 2.852 0.876 2.756C0.76 2.656 0.664 2.536 0.588 2.396C0.512 2.252 0.474 2.08 0.474 1.88C0.474 1.64 0.534 1.434 0.654 1.262C0.778 1.086 0.944 0.952 1.152 0.86C1.364 0.764 1.6 0.716 1.86 0.716C2.128 0.716 2.358 0.762 2.55 0.854C2.746 0.942 2.908 1.056 3.036 1.196C3.168 1.332 3.27 1.474 3.342 1.622L2.67 1.994C2.614 1.894 2.546 1.804 2.466 1.724C2.39 1.64 2.302 1.574 2.202 1.526C2.102 1.474 1.988 1.448 1.86 1.448C1.692 1.448 1.566 1.488 1.482 1.568C1.398 1.644 1.356 1.734 1.356 1.838C1.356 1.942 1.39 2.034 1.458 2.114C1.526 2.19 1.63 2.264 1.77 2.336C1.91 2.404 2.086 2.474 2.298 2.546C2.434 2.594 2.564 2.654 2.688 2.726C2.816 2.798 2.93 2.886 3.03 2.99C3.134 3.09 3.214 3.21 3.27 3.35C3.33 3.486 3.36 3.644 3.36 3.824C3.36 4.028 3.32 4.21 3.24 4.37C3.16 4.53 3.05 4.666 2.91 4.778C2.77 4.886 2.612 4.968 2.436 5.024C2.264 5.084 2.082 5.114 1.89 5.114C1.634 5.114 1.394 5.066 1.17 4.97C0.95 4.87 0.758 4.736 0.594 4.568C0.43 4.4 0.302 4.218 0.21 4.022L0.822 3.59ZM3.98752 0.32H4.76752V5H3.98752V0.32ZM5.34839 3.62C5.34839 3.332 5.41439 3.08 5.54639 2.864C5.68239 2.648 5.86439 2.48 6.09239 2.36C6.32439 2.24 6.58639 2.18 6.87839 2.18C7.17039 2.18 7.43039 2.24 7.65839 2.36C7.89039 2.48 8.07239 2.648 8.20439 2.864C8.34039 3.08 8.40839 3.332 8.40839 3.62C8.40839 3.904 8.34039 4.156 8.20439 4.376C8.07239 4.592 7.89039 4.76 7.65839 4.88C7.43039 5 7.17039 5.06 6.87839 5.06C6.58639 5.06 6.32439 5 6.09239 4.88C5.86439 4.76 5.68239 4.592 5.54639 4.376C5.41439 4.156 5.34839 3.904 5.34839 3.62ZM6.14039 3.62C6.14039 3.776 6.17239 3.914 6.23639 4.034C6.30439 4.15 6.39439 4.242 6.50639 4.31C6.61839 4.374 6.74239 4.406 6.87839 4.406C7.01439 4.406 7.13839 4.374 7.25039 4.31C7.36239 4.242 7.45039 4.15 7.51439 4.034C7.58239 3.914 7.61639 3.776 7.61639 3.62C7.61639 3.464 7.58239 3.326 7.51439 3.206C7.45039 3.086 7.36239 2.994 7.25039 2.93C7.13839 2.866 7.01439 2.834 6.87839 2.834C6.74239 2.834 6.61839 2.866 6.50639 2.93C6.39439 2.994 6.30439 3.086 6.23639 3.206C6.17239 3.326 6.14039 3.464 6.14039 3.62ZM8.49553 2.24H9.32353L9.92953 3.77L10.7095 2.03L11.5195 3.776L12.1315 2.24H12.9535L11.6035 5.186L10.7155 3.428L9.85153 5.186L8.49553 2.24Z" fill="black" fill-opacity="0.8"/>
</svg>
