<svg width="34" height="7" viewBox="0 0 34 7" fill="none" xmlns="http://www.w3.org/2000/svg">
<path d="M0.978 4.204C0.698 4.204 0.478 4.156 0.318 4.06C0.158 3.968 0.078 3.836 0.078 3.664C0.078 3.488 0.13 3.326 0.234 3.178C0.338 3.026 0.472 2.896 0.636 2.788C0.804 2.676 0.978 2.59 1.158 2.53C1.342 2.466 1.512 2.434 1.668 2.434C1.748 2.434 1.788 2.446 1.788 2.47C1.788 2.506 1.746 2.524 1.662 2.524C1.514 2.524 1.352 2.56 1.176 2.632C1.004 2.704 0.85 2.804 0.714 2.932C0.606 3.028 0.524 3.126 0.468 3.226C0.416 3.322 0.39 3.412 0.39 3.496C0.39 3.62 0.448 3.724 0.564 3.808C0.68 3.888 0.854 3.928 1.086 3.928C1.222 3.928 1.36 3.918 1.5 3.898C1.64 3.874 1.766 3.848 1.878 3.82C1.994 3.792 2.082 3.77 2.142 3.754C2.29 3.706 2.438 3.648 2.586 3.58C2.738 3.512 2.874 3.436 2.994 3.352C3.114 3.264 3.202 3.176 3.258 3.088C3.29 3.04 3.312 2.994 3.324 2.95C3.34 2.906 3.348 2.864 3.348 2.824C3.348 2.712 3.298 2.618 3.198 2.542C3.098 2.462 2.97 2.39 2.814 2.326C2.658 2.262 2.492 2.202 2.316 2.146C2.14 2.086 1.974 2.024 1.818 1.96C1.662 1.896 1.534 1.824 1.434 1.744C1.334 1.66 1.284 1.56 1.284 1.444C1.284 1.312 1.332 1.194 1.428 1.09C1.528 0.982 1.654 0.888 1.806 0.808C1.962 0.724 2.128 0.656 2.304 0.604C2.48 0.548 2.648 0.506 2.808 0.478C2.968 0.45 3.1 0.436 3.204 0.436C3.644 0.436 3.864 0.546 3.864 0.766C3.864 0.854 3.828 0.956 3.756 1.072C3.724 1.132 3.678 1.19 3.618 1.246C3.558 1.298 3.512 1.324 3.48 1.324C3.456 1.324 3.444 1.31 3.444 1.282C3.444 1.27 3.466 1.246 3.51 1.21C3.554 1.17 3.598 1.122 3.642 1.066C3.686 1.01 3.708 0.954 3.708 0.898C3.708 0.814 3.66 0.75 3.564 0.706C3.472 0.662 3.35 0.64 3.198 0.64C3.126 0.64 3.022 0.652 2.886 0.676C2.75 0.696 2.602 0.73 2.442 0.778C2.282 0.826 2.128 0.89 1.98 0.97C1.704 1.122 1.566 1.252 1.566 1.36C1.566 1.44 1.644 1.516 1.8 1.588C1.916 1.64 2.05 1.694 2.202 1.75C2.354 1.806 2.508 1.866 2.664 1.93C2.82 1.994 2.964 2.066 3.096 2.146C3.232 2.226 3.34 2.316 3.42 2.416C3.504 2.512 3.546 2.622 3.546 2.746C3.546 2.914 3.454 3.086 3.27 3.262C3.126 3.398 2.958 3.524 2.766 3.64C2.578 3.756 2.378 3.856 2.166 3.94C1.958 4.024 1.752 4.088 1.548 4.132C1.344 4.18 1.154 4.204 0.978 4.204ZM4.07892 4.06C4.00692 4.06 3.94092 4.044 3.88092 4.012C3.82492 3.98 3.78292 3.92 3.75492 3.832C3.75092 3.82 3.74692 3.808 3.74292 3.796C3.74292 3.784 3.74292 3.77 3.74292 3.754C3.74292 3.674 3.76092 3.574 3.79692 3.454C3.83292 3.334 3.87692 3.218 3.92892 3.106C3.90492 3.138 3.87692 3.178 3.84492 3.226C3.81292 3.27 3.76692 3.328 3.70692 3.4C3.69092 3.416 3.67292 3.424 3.65292 3.424C3.62492 3.424 3.61092 3.408 3.61092 3.376C3.61092 3.352 3.61892 3.332 3.63492 3.316C3.73892 3.184 3.83092 3.066 3.91092 2.962C3.99492 2.858 4.05692 2.77 4.09692 2.698C4.09692 2.69 4.10892 2.666 4.13292 2.626C4.15692 2.582 4.18892 2.522 4.22892 2.446C4.19692 2.45 4.16892 2.454 4.14492 2.458C4.12492 2.458 4.10692 2.458 4.09092 2.458C4.06292 2.458 4.03892 2.446 4.01892 2.422C3.99892 2.398 3.99692 2.368 4.01292 2.332C4.03292 2.276 4.07692 2.244 4.14492 2.236C4.21292 2.228 4.27292 2.222 4.32492 2.218C4.32892 2.21 4.33692 2.206 4.34892 2.206C4.39692 2.118 4.44292 2.032 4.48692 1.948C4.53092 1.864 4.56692 1.794 4.59492 1.738C4.62692 1.682 4.64292 1.652 4.64292 1.648C4.72292 1.52 4.77492 1.436 4.79892 1.396C4.82292 1.352 4.85492 1.326 4.89492 1.318C4.93892 1.314 4.98492 1.316 5.03292 1.324C5.08492 1.332 5.11892 1.35 5.13492 1.378C5.14692 1.394 5.15292 1.414 5.15292 1.438C5.15292 1.474 5.14492 1.51 5.12892 1.546C5.11292 1.578 5.09692 1.604 5.08092 1.624C5.06492 1.652 5.04292 1.672 5.01492 1.684C4.99092 1.692 4.96892 1.716 4.94892 1.756C4.90892 1.832 4.86492 1.914 4.81692 2.002C4.76892 2.09 4.71892 2.174 4.66692 2.254L4.73892 2.248C4.83492 2.24 4.92492 2.23 5.00892 2.218C5.09692 2.206 5.19692 2.202 5.30892 2.206C5.32892 2.206 5.34892 2.21 5.36892 2.218C5.39292 2.222 5.40492 2.23 5.40492 2.242C5.40492 2.258 5.35292 2.28 5.24892 2.308C5.20892 2.324 5.12092 2.342 4.98492 2.362C4.85292 2.378 4.71692 2.394 4.57692 2.41C4.53692 2.486 4.50092 2.55 4.46892 2.602C4.43692 2.65 4.41492 2.686 4.40292 2.71C4.31492 2.894 4.23492 3.062 4.16292 3.214C4.09492 3.362 4.05692 3.484 4.04892 3.58C4.04492 3.596 4.04292 3.612 4.04292 3.628C4.04292 3.64 4.04292 3.654 4.04292 3.67C4.04292 3.83 4.09492 3.91 4.19892 3.91C4.26292 3.91 4.34492 3.876 4.44492 3.808C4.54492 3.736 4.64692 3.65 4.75092 3.55C4.85492 3.446 4.94892 3.348 5.03292 3.256C5.12092 3.16 5.18092 3.088 5.21292 3.04C5.22492 3.028 5.23692 3.022 5.24892 3.022C5.26492 3.022 5.27692 3.028 5.28492 3.04C5.29692 3.052 5.29892 3.068 5.29092 3.088C5.25492 3.156 5.19292 3.242 5.10492 3.346C5.02092 3.446 4.92492 3.548 4.81692 3.652C4.71292 3.752 4.61092 3.838 4.51092 3.91C4.45892 3.95 4.39292 3.984 4.31292 4.012C4.23692 4.044 4.15892 4.06 4.07892 4.06ZM4.88644 6.202C4.83844 6.19 4.79644 6.178 4.76044 6.166C4.68444 6.126 4.63044 6.08 4.59844 6.028C4.56644 5.98 4.55044 5.928 4.55044 5.872C4.55044 5.78 4.58244 5.68 4.64644 5.572C4.70644 5.468 4.78644 5.36 4.88644 5.248C4.98644 5.128 5.11244 5.006 5.26444 4.882C5.42044 4.758 5.58244 4.638 5.75044 4.522C5.91844 4.41 6.06644 4.312 6.19444 4.228C6.26244 4.088 6.33244 3.938 6.40444 3.778C6.48044 3.618 6.55244 3.464 6.62044 3.316C6.68844 3.164 6.74644 3.026 6.79444 2.902C6.84644 2.778 6.88444 2.682 6.90844 2.614C6.84444 2.69 6.77044 2.786 6.68644 2.902C6.60244 3.014 6.51044 3.134 6.41044 3.262C6.31044 3.386 6.20644 3.504 6.09844 3.616C5.99444 3.728 5.88644 3.82 5.77444 3.892C5.66244 3.96 5.55244 3.994 5.44444 3.994C5.28444 3.994 5.17244 3.954 5.10844 3.874C5.04844 3.79 5.01844 3.692 5.01844 3.58C5.01844 3.5 5.02844 3.42 5.04844 3.34C5.07244 3.26 5.10244 3.186 5.13844 3.118C5.16244 3.07 5.20044 3.006 5.25244 2.926C5.30444 2.846 5.36444 2.764 5.43244 2.68C5.50044 2.596 5.56844 2.526 5.63644 2.47C5.70844 2.414 5.77644 2.386 5.84044 2.386C5.91644 2.386 5.97444 2.414 6.01444 2.47C6.05444 2.522 6.05844 2.558 6.02644 2.578C5.96244 2.622 5.88244 2.69 5.78644 2.782C5.69444 2.87 5.60244 2.972 5.51044 3.088C5.48644 3.12 5.45644 3.17 5.42044 3.238C5.38844 3.306 5.35844 3.38 5.33044 3.46C5.30244 3.536 5.28844 3.606 5.28844 3.67C5.28844 3.698 5.29244 3.726 5.30044 3.754C5.30844 3.778 5.32244 3.796 5.34244 3.808C5.37444 3.832 5.41044 3.844 5.45044 3.844C5.50644 3.844 5.56844 3.826 5.63644 3.79C5.70844 3.754 5.77644 3.708 5.84044 3.652C6.06444 3.436 6.26444 3.21 6.44044 2.974C6.61644 2.738 6.80244 2.504 6.99844 2.272C7.01044 2.232 7.04444 2.212 7.10044 2.212C7.16444 2.212 7.23044 2.232 7.29844 2.272C7.37044 2.308 7.40044 2.338 7.38844 2.362C7.35244 2.442 7.30444 2.548 7.24444 2.68C7.18844 2.812 7.12644 2.954 7.05844 3.106C6.99044 3.258 6.92244 3.41 6.85444 3.562C6.78644 3.71 6.72444 3.844 6.66844 3.964C6.71644 3.94 6.80244 3.88 6.92644 3.784C7.05044 3.688 7.18644 3.572 7.33444 3.436C7.48244 3.296 7.61644 3.152 7.73644 3.004C7.76044 2.98 7.77844 2.968 7.79044 2.968C7.81444 2.968 7.82644 2.984 7.82644 3.016C7.82644 3.044 7.81444 3.076 7.79044 3.112C7.73044 3.192 7.64644 3.286 7.53844 3.394C7.43444 3.502 7.32044 3.612 7.19644 3.724C7.07644 3.832 6.95844 3.93 6.84244 4.018C6.72644 4.11 6.62644 4.18 6.54244 4.228C6.41844 4.492 6.29844 4.74 6.18244 4.972C6.06644 5.208 5.96044 5.398 5.86444 5.542C5.80044 5.642 5.72244 5.744 5.63044 5.848C5.53844 5.952 5.43844 6.038 5.33044 6.106C5.22244 6.178 5.10844 6.214 4.98844 6.214C4.97244 6.214 4.95644 6.212 4.94044 6.208C4.92444 6.208 4.90644 6.206 4.88644 6.202ZM4.90444 6.07C4.93644 6.07 4.97444 6.06 5.01844 6.04C5.06644 6.02 5.11644 5.988 5.16844 5.944C5.32044 5.82 5.44844 5.674 5.55244 5.506C5.65644 5.342 5.74844 5.168 5.82844 4.984C5.91244 4.8 5.99644 4.624 6.08044 4.456C5.92444 4.572 5.74844 4.708 5.55244 4.864C5.35644 5.024 5.17844 5.182 5.01844 5.338C4.92244 5.434 4.85244 5.528 4.80844 5.62C4.76444 5.716 4.74244 5.8 4.74244 5.872C4.74244 6.004 4.79644 6.07 4.90444 6.07ZM8.01267 4.06C7.84467 4.06 7.72667 4.018 7.65867 3.934C7.59467 3.85 7.56267 3.746 7.56267 3.622C7.56267 3.506 7.58867 3.36 7.64067 3.184C7.69667 3.008 7.76867 2.818 7.85667 2.614C7.94467 2.41 8.03867 2.208 8.13867 2.008C8.24267 1.804 8.34467 1.618 8.44467 1.45C8.54867 1.278 8.63867 1.14 8.71467 1.036C8.79067 0.936 8.87267 0.836 8.96067 0.736C9.04867 0.636 9.14667 0.552 9.25467 0.484C9.36267 0.416 9.48467 0.382 9.62067 0.382C9.71267 0.382 9.79067 0.408 9.85467 0.46C9.92267 0.508 9.95667 0.582 9.95667 0.682C9.95667 0.722 9.94867 0.768 9.93267 0.82C9.92067 0.872 9.89867 0.926 9.86667 0.982C9.62267 1.406 9.33067 1.798 8.99067 2.158C8.65467 2.518 8.29867 2.852 7.92267 3.16C7.90667 3.22 7.89067 3.274 7.87467 3.322C7.86267 3.37 7.85267 3.408 7.84467 3.436C7.84067 3.456 7.83867 3.478 7.83867 3.502C7.83867 3.522 7.83867 3.542 7.83867 3.562C7.83867 3.658 7.85467 3.742 7.88667 3.814C7.91867 3.886 7.97267 3.922 8.04867 3.922C8.12067 3.922 8.20867 3.888 8.31267 3.82C8.42067 3.748 8.52867 3.662 8.63667 3.562C8.74467 3.458 8.84267 3.358 8.93067 3.262C9.01867 3.166 9.08067 3.092 9.11667 3.04C9.12867 3.028 9.14067 3.022 9.15267 3.022C9.16867 3.022 9.18067 3.03 9.18867 3.046C9.20067 3.062 9.20067 3.082 9.18867 3.106C9.14867 3.174 9.08467 3.258 8.99667 3.358C8.90867 3.458 8.81067 3.56 8.70267 3.664C8.59467 3.764 8.49067 3.852 8.39067 3.928C8.26667 4.016 8.14067 4.06 8.01267 4.06ZM8.00667 2.92C8.15867 2.816 8.31667 2.682 8.48067 2.518C8.64467 2.35 8.80467 2.168 8.96067 1.972C9.12067 1.776 9.26467 1.582 9.39267 1.39C9.52467 1.198 9.63067 1.024 9.71067 0.868C9.73467 0.824 9.75067 0.786 9.75867 0.754C9.77067 0.718 9.77667 0.686 9.77667 0.658C9.77667 0.582 9.74467 0.544 9.68067 0.544C9.62467 0.544 9.55467 0.574 9.47067 0.634C9.25467 0.802 9.05467 1.018 8.87067 1.282C8.68667 1.542 8.52267 1.816 8.37867 2.104C8.23467 2.392 8.11067 2.664 8.00667 2.92ZM9.58092 4.09C9.40092 4.09 9.24492 4.048 9.11292 3.964C8.98092 3.88 8.91492 3.752 8.91492 3.58C8.91492 3.488 8.94292 3.376 8.99892 3.244C9.03892 3.152 9.11292 3.046 9.22092 2.926C9.32892 2.806 9.45492 2.69 9.59892 2.578C9.74292 2.462 9.88892 2.368 10.0369 2.296C10.1849 2.22 10.3189 2.182 10.4389 2.182C10.4829 2.182 10.5229 2.188 10.5589 2.2C10.6269 2.224 10.6729 2.262 10.6969 2.314C10.7249 2.366 10.7389 2.42 10.7389 2.476C10.7389 2.528 10.7309 2.578 10.7149 2.626C10.6989 2.674 10.6789 2.716 10.6549 2.752C10.5829 2.86 10.4789 2.956 10.3429 3.04C10.2109 3.124 10.0749 3.19 9.93492 3.238C9.79892 3.286 9.68692 3.314 9.59892 3.322H9.58692C9.53492 3.322 9.50892 3.306 9.50892 3.274C9.50892 3.254 9.52492 3.244 9.55692 3.244C9.65292 3.236 9.77292 3.192 9.91692 3.112C10.0649 3.028 10.1949 2.942 10.3069 2.854C10.3549 2.814 10.4109 2.758 10.4749 2.686C10.5429 2.614 10.5769 2.544 10.5769 2.476C10.5769 2.404 10.5429 2.368 10.4749 2.368C10.4389 2.368 10.4009 2.376 10.3609 2.392C10.3249 2.408 10.2949 2.42 10.2709 2.428C10.1549 2.484 10.0269 2.572 9.88692 2.692C9.74692 2.808 9.61892 2.94 9.50292 3.088C9.39092 3.232 9.31292 3.378 9.26892 3.526C9.25692 3.558 9.24892 3.59 9.24492 3.622C9.24092 3.65 9.23892 3.678 9.23892 3.706C9.23892 3.802 9.26892 3.87 9.32892 3.91C9.39292 3.95 9.46892 3.97 9.55692 3.97C9.68892 3.97 9.82492 3.942 9.96492 3.886C10.1049 3.826 10.2409 3.75 10.3729 3.658C10.5049 3.566 10.6249 3.468 10.7329 3.364C10.8449 3.256 10.9389 3.152 11.0149 3.052C11.0269 3.036 11.0409 3.028 11.0569 3.028C11.0729 3.024 11.0829 3.026 11.0869 3.034C11.1029 3.038 11.1109 3.05 11.1109 3.07C11.1109 3.086 11.1069 3.102 11.0989 3.118C10.9869 3.274 10.8509 3.426 10.6909 3.574C10.5349 3.722 10.3609 3.846 10.1689 3.946C9.98092 4.042 9.78492 4.09 9.58092 4.09ZM12.5589 4.654C12.4549 4.638 12.3809 4.588 12.3369 4.504C12.2929 4.42 12.2709 4.316 12.2709 4.192C12.2709 4.044 12.2909 3.884 12.3309 3.712C12.3749 3.54 12.4249 3.378 12.4809 3.226C12.5369 3.074 12.5809 2.958 12.6129 2.878C12.5209 2.986 12.4149 3.104 12.2949 3.232C12.1789 3.36 12.0569 3.482 11.9289 3.598C11.8009 3.714 11.6769 3.81 11.5569 3.886C11.4409 3.958 11.3389 3.994 11.2509 3.994C11.1869 3.994 11.1189 3.976 11.0469 3.94C10.9749 3.9 10.9169 3.85 10.8729 3.79C10.8129 3.71 10.7829 3.628 10.7829 3.544C10.7829 3.436 10.8189 3.324 10.8909 3.208C10.9669 3.092 11.0629 2.98 11.1789 2.872C11.2989 2.76 11.4249 2.66 11.5569 2.572C11.6929 2.48 11.8209 2.404 11.9409 2.344C12.0649 2.28 12.1649 2.238 12.2409 2.218C12.2809 2.21 12.3229 2.202 12.3669 2.194C12.4109 2.186 12.4569 2.182 12.5049 2.182C12.5649 2.182 12.6249 2.19 12.6849 2.206C12.7449 2.218 12.7949 2.24 12.8349 2.272L12.8589 2.29C12.9549 2.07 13.0609 1.848 13.1769 1.624C13.2929 1.396 13.4169 1.188 13.5489 1C13.6809 0.812 13.8209 0.662 13.9689 0.55C14.1169 0.434 14.2709 0.376 14.4309 0.376C14.4509 0.376 14.4709 0.378 14.4909 0.382C14.5109 0.382 14.5289 0.384 14.5449 0.388C14.6449 0.408 14.7149 0.444 14.7549 0.496C14.7989 0.544 14.8209 0.602 14.8209 0.67C14.8209 0.718 14.8109 0.77 14.7909 0.826C14.7749 0.878 14.7509 0.93 14.7189 0.982C14.6309 1.138 14.5149 1.292 14.3709 1.444C14.2309 1.596 14.0769 1.744 13.9089 1.888C13.7409 2.028 13.5729 2.164 13.4049 2.296C13.2409 2.428 13.0909 2.552 12.9549 2.668C12.8949 2.808 12.8349 2.972 12.7749 3.16C12.7149 3.348 12.6649 3.508 12.6249 3.64C12.6009 3.736 12.5809 3.826 12.5649 3.91C12.5529 3.994 12.5469 4.072 12.5469 4.144C12.5469 4.276 12.5709 4.384 12.6189 4.468C12.6589 4.532 12.7089 4.564 12.7689 4.564C12.8129 4.564 12.8529 4.548 12.8889 4.516C12.9049 4.508 12.9189 4.498 12.9309 4.486C12.9469 4.474 12.9649 4.462 12.9849 4.45C13.0089 4.438 13.0289 4.432 13.0449 4.432C13.0729 4.432 13.0749 4.454 13.0509 4.498C13.0389 4.51 13.0249 4.524 13.0089 4.54C12.9929 4.56 12.9749 4.58 12.9549 4.6C12.9269 4.62 12.8849 4.636 12.8289 4.648C12.7729 4.66 12.7169 4.666 12.6609 4.666C12.6449 4.666 12.6269 4.664 12.6069 4.66C12.5909 4.66 12.5749 4.658 12.5589 4.654ZM13.1349 2.326C13.2949 2.218 13.4689 2.084 13.6569 1.924C13.8449 1.76 14.0209 1.586 14.1849 1.402C14.3489 1.214 14.4749 1.036 14.5629 0.868C14.6149 0.772 14.6409 0.696 14.6409 0.64C14.6409 0.572 14.6109 0.538 14.5509 0.538C14.4949 0.538 14.4209 0.57 14.3289 0.634C14.0609 0.842 13.8349 1.09 13.6509 1.378C13.4669 1.662 13.2949 1.978 13.1349 2.326ZM11.0829 3.85C11.1029 3.874 11.1289 3.886 11.1609 3.886C11.2209 3.886 11.2909 3.86 11.3709 3.808C11.4549 3.756 11.5109 3.716 11.5389 3.688C11.7429 3.524 11.9469 3.348 12.1509 3.16C12.3589 2.968 12.5529 2.776 12.7329 2.584C12.7489 2.548 12.7629 2.514 12.7749 2.482C12.7869 2.446 12.8009 2.412 12.8169 2.38C12.7569 2.356 12.6869 2.344 12.6069 2.344C12.4469 2.344 12.2709 2.396 12.0789 2.5C11.8869 2.604 11.7149 2.726 11.5629 2.866C11.5149 2.906 11.4489 2.976 11.3649 3.076C11.2849 3.172 11.2109 3.278 11.1429 3.394C11.0749 3.51 11.0409 3.616 11.0409 3.712C11.0409 3.764 11.0549 3.81 11.0829 3.85ZM15.521 4.168C15.481 4.168 15.433 4.164 15.377 4.156C15.325 4.148 15.279 4.138 15.239 4.126C15.199 4.114 15.179 4.104 15.179 4.096C15.179 4.088 15.197 4.08 15.233 4.072C15.273 4.068 15.341 4.066 15.437 4.066C15.537 4.066 15.645 4.042 15.761 3.994C15.881 3.942 15.995 3.882 16.103 3.814C16.211 3.746 16.303 3.686 16.379 3.634C16.499 3.546 16.623 3.434 16.751 3.298C16.879 3.158 16.969 3.006 17.021 2.842C17.029 2.814 17.039 2.776 17.051 2.728C17.063 2.68 17.069 2.632 17.069 2.584C17.069 2.54 17.061 2.504 17.045 2.476C17.029 2.444 16.999 2.428 16.955 2.428C16.875 2.428 16.791 2.45 16.703 2.494C16.619 2.538 16.537 2.59 16.457 2.65C16.381 2.706 16.315 2.76 16.259 2.812C16.211 2.848 16.153 2.902 16.085 2.974C16.017 3.046 15.949 3.126 15.881 3.214C15.817 3.302 15.765 3.39 15.725 3.478C15.685 3.562 15.671 3.638 15.683 3.706C15.691 3.722 15.685 3.754 15.665 3.802C15.649 3.85 15.619 3.874 15.575 3.874C15.539 3.874 15.497 3.84 15.449 3.772C15.421 3.74 15.407 3.674 15.407 3.574C15.407 3.482 15.417 3.382 15.437 3.274C15.457 3.166 15.475 3.078 15.491 3.01C15.451 3.058 15.415 3.11 15.383 3.166C15.355 3.218 15.295 3.296 15.203 3.4C15.187 3.416 15.169 3.424 15.149 3.424C15.121 3.424 15.107 3.408 15.107 3.376C15.107 3.352 15.115 3.332 15.131 3.316C15.275 3.132 15.395 2.976 15.491 2.848C15.591 2.716 15.653 2.622 15.677 2.566C15.709 2.482 15.751 2.374 15.803 2.242C15.859 2.11 15.921 1.97 15.989 1.822C16.057 1.67 16.127 1.524 16.199 1.384C16.271 1.24 16.341 1.116 16.409 1.012C16.469 0.92 16.539 0.828 16.619 0.736C16.699 0.64 16.789 0.562 16.889 0.502C16.989 0.438 17.097 0.406 17.213 0.406C17.257 0.406 17.305 0.412 17.357 0.424C17.361 0.424 17.371 0.428 17.387 0.436L17.447 0.454C17.455 0.458 17.461 0.46 17.465 0.46C17.469 0.46 17.473 0.462 17.477 0.466C17.589 0.534 17.645 0.628 17.645 0.748C17.645 0.844 17.613 0.952 17.549 1.072C17.493 1.184 17.401 1.314 17.273 1.462C17.149 1.606 17.005 1.754 16.841 1.906C16.681 2.054 16.515 2.198 16.343 2.338C16.175 2.474 16.021 2.59 15.881 2.686C15.841 2.762 15.805 2.85 15.773 2.95C15.741 3.05 15.715 3.15 15.695 3.25C15.775 3.134 15.865 3.022 15.965 2.914C16.065 2.802 16.153 2.714 16.229 2.65C16.353 2.546 16.473 2.464 16.589 2.404C16.709 2.34 16.819 2.308 16.919 2.308C16.967 2.308 17.025 2.324 17.093 2.356C17.165 2.388 17.229 2.43 17.285 2.482C17.345 2.53 17.379 2.582 17.387 2.638C17.387 2.65 17.387 2.662 17.387 2.674C17.391 2.682 17.393 2.692 17.393 2.704C17.393 2.812 17.363 2.922 17.303 3.034C17.243 3.146 17.167 3.252 17.075 3.352C16.987 3.452 16.893 3.542 16.793 3.622C16.697 3.702 16.611 3.768 16.535 3.82C16.383 3.92 16.221 4.002 16.049 4.066C15.881 4.134 15.705 4.168 15.521 4.168ZM15.947 2.446C16.131 2.326 16.315 2.184 16.499 2.02C16.683 1.856 16.853 1.684 17.009 1.504C17.169 1.324 17.297 1.156 17.393 1C17.453 0.904 17.483 0.81 17.483 0.718C17.483 0.674 17.473 0.638 17.453 0.61C17.437 0.578 17.409 0.562 17.369 0.562C17.341 0.562 17.307 0.57 17.267 0.586C17.231 0.602 17.191 0.63 17.147 0.67C16.979 0.798 16.823 0.958 16.679 1.15C16.535 1.342 16.403 1.55 16.283 1.774C16.163 1.994 16.051 2.218 15.947 2.446ZM17.32 6.202C17.272 6.19 17.23 6.178 17.194 6.166C17.118 6.126 17.064 6.08 17.032 6.028C17 5.98 16.984 5.928 16.984 5.872C16.984 5.78 17.016 5.68 17.08 5.572C17.14 5.468 17.22 5.36 17.32 5.248C17.42 5.128 17.546 5.006 17.698 4.882C17.854 4.758 18.016 4.638 18.184 4.522C18.352 4.41 18.5 4.312 18.628 4.228C18.696 4.088 18.766 3.938 18.838 3.778C18.914 3.618 18.986 3.464 19.054 3.316C19.122 3.164 19.18 3.026 19.228 2.902C19.28 2.778 19.318 2.682 19.342 2.614C19.278 2.69 19.204 2.786 19.12 2.902C19.036 3.014 18.944 3.134 18.844 3.262C18.744 3.386 18.64 3.504 18.532 3.616C18.428 3.728 18.32 3.82 18.208 3.892C18.096 3.96 17.986 3.994 17.878 3.994C17.718 3.994 17.606 3.954 17.542 3.874C17.482 3.79 17.452 3.692 17.452 3.58C17.452 3.5 17.462 3.42 17.482 3.34C17.506 3.26 17.536 3.186 17.572 3.118C17.596 3.07 17.634 3.006 17.686 2.926C17.738 2.846 17.798 2.764 17.866 2.68C17.934 2.596 18.002 2.526 18.07 2.47C18.142 2.414 18.21 2.386 18.274 2.386C18.35 2.386 18.408 2.414 18.448 2.47C18.488 2.522 18.492 2.558 18.46 2.578C18.396 2.622 18.316 2.69 18.22 2.782C18.128 2.87 18.036 2.972 17.944 3.088C17.92 3.12 17.89 3.17 17.854 3.238C17.822 3.306 17.792 3.38 17.764 3.46C17.736 3.536 17.722 3.606 17.722 3.67C17.722 3.698 17.726 3.726 17.734 3.754C17.742 3.778 17.756 3.796 17.776 3.808C17.808 3.832 17.844 3.844 17.884 3.844C17.94 3.844 18.002 3.826 18.07 3.79C18.142 3.754 18.21 3.708 18.274 3.652C18.498 3.436 18.698 3.21 18.874 2.974C19.05 2.738 19.236 2.504 19.432 2.272C19.444 2.232 19.478 2.212 19.534 2.212C19.598 2.212 19.664 2.232 19.732 2.272C19.804 2.308 19.834 2.338 19.822 2.362C19.786 2.442 19.738 2.548 19.678 2.68C19.622 2.812 19.56 2.954 19.492 3.106C19.424 3.258 19.356 3.41 19.288 3.562C19.22 3.71 19.158 3.844 19.102 3.964C19.15 3.94 19.236 3.88 19.36 3.784C19.484 3.688 19.62 3.572 19.768 3.436C19.916 3.296 20.05 3.152 20.17 3.004C20.194 2.98 20.212 2.968 20.224 2.968C20.248 2.968 20.26 2.984 20.26 3.016C20.26 3.044 20.248 3.076 20.224 3.112C20.164 3.192 20.08 3.286 19.972 3.394C19.868 3.502 19.754 3.612 19.63 3.724C19.51 3.832 19.392 3.93 19.276 4.018C19.16 4.11 19.06 4.18 18.976 4.228C18.852 4.492 18.732 4.74 18.616 4.972C18.5 5.208 18.394 5.398 18.298 5.542C18.234 5.642 18.156 5.744 18.064 5.848C17.972 5.952 17.872 6.038 17.764 6.106C17.656 6.178 17.542 6.214 17.422 6.214C17.406 6.214 17.39 6.212 17.374 6.208C17.358 6.208 17.34 6.206 17.32 6.202ZM17.338 6.07C17.37 6.07 17.408 6.06 17.452 6.04C17.5 6.02 17.55 5.988 17.602 5.944C17.754 5.82 17.882 5.674 17.986 5.506C18.09 5.342 18.182 5.168 18.262 4.984C18.346 4.8 18.43 4.624 18.514 4.456C18.358 4.572 18.182 4.708 17.986 4.864C17.79 5.024 17.612 5.182 17.452 5.338C17.356 5.434 17.286 5.528 17.242 5.62C17.198 5.716 17.176 5.8 17.176 5.872C17.176 6.004 17.23 6.07 17.338 6.07ZM24.6988 4.984C24.5308 4.984 24.3568 4.96 24.1768 4.912C24.0008 4.868 23.8348 4.814 23.6788 4.75C23.5228 4.69 23.3868 4.64 23.2708 4.6C23.0588 4.524 22.8608 4.45 22.6768 4.378C22.4928 4.306 22.3628 4.262 22.2868 4.246C21.8988 4.146 21.6248 4.096 21.4648 4.096C21.4368 4.116 21.4108 4.132 21.3868 4.144C21.3628 4.16 21.3368 4.17 21.3088 4.174C21.2968 4.178 21.2788 4.18 21.2548 4.18C21.1828 4.18 21.1468 4.156 21.1468 4.108C21.1468 4.08 21.1688 4.052 21.2128 4.024C21.2448 4.008 21.2808 4 21.3208 4C21.3648 3.996 21.4088 3.992 21.4528 3.988C21.5448 3.908 21.6308 3.806 21.7108 3.682C21.7948 3.558 21.8548 3.464 21.8908 3.4C21.9228 3.344 21.9528 3.29 21.9808 3.238C22.0128 3.182 22.0448 3.128 22.0768 3.076C22.0128 3.092 21.9468 3.108 21.8788 3.124C21.8108 3.136 21.7448 3.142 21.6808 3.142C21.5648 3.142 21.4588 3.118 21.3628 3.07C21.2708 3.022 21.2248 2.934 21.2248 2.806C21.2248 2.722 21.2608 2.644 21.3328 2.572C21.4088 2.5 21.4868 2.464 21.5668 2.464C21.6148 2.464 21.6388 2.484 21.6388 2.524C21.6388 2.548 21.6208 2.56 21.5848 2.56C21.5408 2.56 21.5008 2.586 21.4648 2.638C21.4288 2.69 21.4108 2.744 21.4108 2.8C21.4108 2.84 21.4228 2.88 21.4468 2.92C21.4748 2.956 21.5208 2.978 21.5848 2.986C21.6448 2.998 21.7088 3.004 21.7768 3.004C21.8928 3.004 22.0108 2.988 22.1308 2.956C22.1868 2.844 22.2388 2.734 22.2868 2.626C22.3388 2.514 22.3888 2.404 22.4368 2.296C22.5368 2.076 22.6388 1.862 22.7428 1.654C22.8468 1.446 22.9488 1.26 23.0488 1.096C23.1488 0.932 23.2388 0.81 23.3188 0.73C23.4708 0.586 23.6228 0.484 23.7748 0.424C23.9308 0.364 24.0708 0.334 24.1948 0.334C24.2188 0.334 24.2428 0.336 24.2668 0.34C24.2908 0.34 24.3128 0.342 24.3328 0.346C24.4808 0.37 24.5848 0.422 24.6448 0.502C24.7048 0.578 24.7348 0.67 24.7348 0.778C24.7348 0.834 24.7288 0.892 24.7168 0.952C24.6648 1.204 24.5588 1.44 24.3988 1.66C24.2428 1.88 24.0528 2.08 23.8288 2.26C23.6048 2.436 23.3648 2.586 23.1088 2.71C22.8568 2.834 22.6108 2.924 22.3708 2.98C22.3188 3.068 22.2628 3.156 22.2028 3.244C22.1468 3.328 22.0848 3.412 22.0168 3.496C21.9768 3.556 21.9188 3.634 21.8428 3.73C21.7668 3.822 21.6888 3.908 21.6088 3.988C21.6648 3.992 21.7248 3.996 21.7888 4C21.8568 4.008 21.9288 4.018 22.0048 4.03C22.3368 4.082 22.6688 4.158 23.0008 4.258C23.3368 4.362 23.6688 4.456 23.9968 4.54C24.0888 4.564 24.2188 4.594 24.3868 4.63C24.5588 4.666 24.7188 4.684 24.8668 4.684C25.0108 4.684 25.1208 4.658 25.1968 4.606C25.2568 4.57 25.2868 4.52 25.2868 4.456C25.2868 4.408 25.2648 4.368 25.2208 4.336C25.1968 4.316 25.1848 4.3 25.1848 4.288C25.1848 4.248 25.2088 4.242 25.2568 4.27C25.3088 4.306 25.3448 4.348 25.3648 4.396C25.3888 4.444 25.4008 4.494 25.4008 4.546C25.4008 4.606 25.3888 4.66 25.3648 4.708C25.3448 4.76 25.3188 4.796 25.2868 4.816C25.1228 4.928 24.9268 4.984 24.6988 4.984ZM22.4608 2.842C22.9048 2.65 23.2948 2.416 23.6308 2.14C23.9668 1.864 24.2328 1.5 24.4288 1.048C24.4928 0.908 24.5248 0.786 24.5248 0.682C24.5248 0.598 24.4988 0.532 24.4468 0.484C24.4188 0.448 24.3728 0.43 24.3088 0.43C24.1768 0.43 24.0408 0.476 23.9008 0.568C23.7808 0.656 23.6668 0.772 23.5588 0.916C23.4548 1.06 23.3568 1.212 23.2648 1.372C23.1728 1.532 23.0908 1.684 23.0188 1.828C22.9508 1.968 22.8928 2.08 22.8448 2.164C22.8128 2.228 22.7628 2.322 22.6948 2.446C22.6308 2.57 22.5528 2.702 22.4608 2.842ZM25.5214 4.06C25.4534 4.06 25.3894 4.044 25.3294 4.012C25.2734 3.98 25.2314 3.92 25.2034 3.832C25.1914 3.796 25.1854 3.746 25.1854 3.682C25.1854 3.594 25.1974 3.496 25.2214 3.388C25.2454 3.28 25.2714 3.188 25.2994 3.112C25.2794 3.12 25.2414 3.156 25.1854 3.22C25.1334 3.28 25.0674 3.354 24.9874 3.442C24.9114 3.526 24.8254 3.612 24.7294 3.7C24.6374 3.784 24.5414 3.854 24.4414 3.91C24.3414 3.966 24.2434 3.994 24.1474 3.994C24.0834 3.994 24.0154 3.976 23.9434 3.94C23.8714 3.9 23.8134 3.85 23.7694 3.79C23.7094 3.71 23.6794 3.628 23.6794 3.544C23.6794 3.436 23.7154 3.324 23.7874 3.208C23.8634 3.092 23.9594 2.98 24.0754 2.872C24.1954 2.76 24.3214 2.66 24.4534 2.572C24.5894 2.48 24.7174 2.404 24.8374 2.344C24.9614 2.28 25.0614 2.238 25.1374 2.218C25.2174 2.194 25.3074 2.182 25.4074 2.182C25.4634 2.182 25.5214 2.19 25.5814 2.206C25.6414 2.218 25.6914 2.24 25.7314 2.272C25.7634 2.288 25.7894 2.31 25.8094 2.338C25.8294 2.366 25.8394 2.396 25.8394 2.428C25.8394 2.46 25.8254 2.47 25.7974 2.458C25.7654 2.41 25.7214 2.38 25.6654 2.368C25.6134 2.352 25.5594 2.344 25.5034 2.344C25.3434 2.344 25.1674 2.396 24.9754 2.5C24.7834 2.604 24.6114 2.726 24.4594 2.866C24.4114 2.906 24.3454 2.976 24.2614 3.076C24.1814 3.172 24.1074 3.278 24.0394 3.394C23.9714 3.51 23.9374 3.616 23.9374 3.712C23.9374 3.764 23.9514 3.81 23.9794 3.85C23.9954 3.878 24.0214 3.892 24.0574 3.892C24.1134 3.892 24.1874 3.862 24.2794 3.802C24.3754 3.742 24.4734 3.67 24.5734 3.586C24.6734 3.498 24.7634 3.414 24.8434 3.334C24.9274 3.254 24.9874 3.196 25.0234 3.16C25.0434 3.14 25.0814 3.1 25.1374 3.04C25.1974 2.976 25.2614 2.908 25.3294 2.836C25.3974 2.764 25.4574 2.702 25.5094 2.65C25.5654 2.598 25.6014 2.572 25.6174 2.572C25.6374 2.572 25.6694 2.578 25.7134 2.59C25.7614 2.598 25.8014 2.612 25.8334 2.632C25.8654 2.652 25.8714 2.678 25.8514 2.71C25.7474 2.862 25.6634 3.022 25.5994 3.19C25.5394 3.354 25.5034 3.484 25.4914 3.58C25.4874 3.596 25.4854 3.612 25.4854 3.628C25.4854 3.64 25.4854 3.654 25.4854 3.67C25.4854 3.83 25.5414 3.91 25.6534 3.91C25.7134 3.91 25.7934 3.874 25.8934 3.802C25.9934 3.73 26.0954 3.644 26.1994 3.544C26.3034 3.444 26.3974 3.348 26.4814 3.256C26.5694 3.16 26.6294 3.088 26.6614 3.04C26.6734 3.028 26.6854 3.022 26.6974 3.022C26.7134 3.022 26.7274 3.03 26.7394 3.046C26.7514 3.058 26.7514 3.074 26.7394 3.094C26.6954 3.166 26.6314 3.252 26.5474 3.352C26.4634 3.452 26.3694 3.552 26.2654 3.652C26.1614 3.752 26.0594 3.838 25.9594 3.91C25.9074 3.95 25.8414 3.984 25.7614 4.012C25.6814 4.044 25.6014 4.06 25.5214 4.06ZM26.6322 4.3C26.4722 4.3 26.3922 4.256 26.3922 4.168C26.3922 4.104 26.4262 4.038 26.4942 3.97C26.5462 3.918 26.6042 3.876 26.6682 3.844C26.7322 3.812 26.7722 3.796 26.7882 3.796C26.8082 3.796 26.8182 3.804 26.8182 3.82C26.8222 3.836 26.8142 3.848 26.7942 3.856C26.7542 3.88 26.7082 3.914 26.6562 3.958C26.6082 3.998 26.5842 4.042 26.5842 4.09C26.5842 4.154 26.6222 4.186 26.6982 4.186C26.7902 4.186 26.8862 4.158 26.9862 4.102C27.0862 4.05 27.1782 3.982 27.2622 3.898C27.3502 3.814 27.4202 3.73 27.4722 3.646C27.5282 3.558 27.5562 3.482 27.5562 3.418C27.5562 3.366 27.5382 3.318 27.5022 3.274C27.4662 3.23 27.3922 3.178 27.2802 3.118C27.2042 3.074 27.1302 3.028 27.0582 2.98C26.9902 2.932 26.9382 2.874 26.9022 2.806C26.8702 2.862 26.8282 2.93 26.7762 3.01C26.7282 3.086 26.6702 3.166 26.6022 3.25C26.5782 3.274 26.5542 3.286 26.5302 3.286C26.5062 3.286 26.4942 3.276 26.4942 3.256C26.4942 3.244 26.5042 3.224 26.5242 3.196C26.6322 3.068 26.7122 2.95 26.7642 2.842C26.8162 2.734 26.8522 2.652 26.8722 2.596C26.8882 2.48 26.9422 2.37 27.0342 2.266C27.1262 2.162 27.2382 2.072 27.3702 1.996C27.5022 1.916 27.6362 1.854 27.7722 1.81C27.9122 1.766 28.0362 1.744 28.1442 1.744C28.2522 1.744 28.3482 1.764 28.4322 1.804C28.5162 1.844 28.5582 1.908 28.5582 1.996C28.5582 2.044 28.5442 2.096 28.5162 2.152C28.4802 2.228 28.4202 2.296 28.3362 2.356C28.3322 2.36 28.3262 2.362 28.3182 2.362C28.2862 2.362 28.2702 2.348 28.2702 2.32C28.2702 2.3 28.2802 2.28 28.3002 2.26C28.3322 2.232 28.3582 2.198 28.3782 2.158C28.3982 2.118 28.4082 2.08 28.4082 2.044C28.4082 1.972 28.3662 1.936 28.2822 1.936C28.1942 1.936 28.0782 1.96 27.9342 2.008C27.7942 2.056 27.6642 2.118 27.5442 2.194C27.4082 2.282 27.2942 2.378 27.2022 2.482C27.1102 2.586 27.0642 2.678 27.0642 2.758C27.0642 2.798 27.0762 2.836 27.1002 2.872C27.1282 2.904 27.1802 2.942 27.2562 2.986C27.2962 3.01 27.3522 3.042 27.4242 3.082C27.4962 3.118 27.5582 3.152 27.6102 3.184C27.7742 3.284 27.8562 3.39 27.8562 3.502C27.8562 3.594 27.8162 3.688 27.7362 3.784C27.6562 3.876 27.5522 3.96 27.4242 4.036C27.3002 4.116 27.1682 4.18 27.0282 4.228C26.8882 4.276 26.7562 4.3 26.6322 4.3ZM28.3896 4.078C28.3576 4.078 28.3496 4.064 28.3656 4.036C28.3736 4.012 28.3936 3.952 28.4256 3.856C28.4616 3.76 28.5036 3.644 28.5516 3.508C28.5996 3.372 28.6496 3.234 28.7016 3.094C28.7536 2.95 28.8016 2.822 28.8456 2.71C28.8176 2.746 28.7736 2.798 28.7136 2.866C28.6576 2.934 28.5976 3.006 28.5336 3.082C28.4696 3.158 28.4096 3.224 28.3536 3.28C28.3416 3.292 28.3336 3.298 28.3296 3.298C28.3176 3.298 28.3116 3.286 28.3116 3.262C28.3116 3.214 28.3236 3.17 28.3476 3.13C28.4356 3.018 28.5196 2.914 28.5996 2.818C28.6836 2.718 28.7596 2.624 28.8276 2.536C28.7876 2.512 28.7676 2.482 28.7676 2.446C28.7676 2.39 28.7956 2.362 28.8516 2.362C28.8756 2.362 28.8936 2.366 28.9056 2.374C28.9096 2.378 28.9136 2.38 28.9176 2.38C28.9216 2.38 28.9256 2.384 28.9296 2.392C28.9496 2.364 28.9656 2.338 28.9776 2.314C28.9936 2.29 29.0076 2.264 29.0196 2.236C29.0356 2.2 29.0676 2.132 29.1156 2.032C29.1676 1.928 29.2316 1.806 29.3076 1.666C29.3836 1.526 29.4696 1.382 29.5656 1.234C29.6656 1.082 29.7716 0.942 29.8836 0.814C29.9996 0.682 30.1176 0.576 30.2376 0.496C30.3616 0.416 30.4876 0.376 30.6156 0.376C30.6316 0.376 30.6476 0.378 30.6636 0.382C30.6796 0.382 30.6956 0.384 30.7116 0.388C30.8116 0.408 30.8816 0.444 30.9216 0.496C30.9616 0.544 30.9816 0.602 30.9816 0.67C30.9816 0.718 30.9716 0.77 30.9516 0.826C30.9356 0.878 30.9116 0.93 30.8796 0.982C30.7996 1.122 30.6936 1.264 30.5616 1.408C30.4296 1.548 30.2816 1.688 30.1176 1.828C29.9576 1.964 29.7956 2.098 29.6316 2.23C29.4716 2.358 29.3216 2.48 29.1816 2.596C29.0856 2.8 29.0116 2.982 28.9596 3.142C28.9076 3.298 28.8676 3.424 28.8396 3.52C28.8836 3.464 28.9496 3.384 29.0376 3.28C29.1256 3.176 29.2256 3.064 29.3376 2.944C29.4496 2.824 29.5656 2.71 29.6856 2.602C29.8056 2.49 29.9196 2.4 30.0276 2.332C30.1356 2.26 30.2276 2.224 30.3036 2.224C30.3996 2.224 30.4476 2.274 30.4476 2.374C30.4476 2.47 30.4136 2.576 30.3456 2.692C30.2776 2.808 30.2216 2.906 30.1776 2.986C30.1216 3.102 30.0756 3.214 30.0396 3.322C30.0076 3.426 29.9876 3.512 29.9796 3.58C29.9756 3.596 29.9736 3.612 29.9736 3.628C29.9736 3.64 29.9736 3.654 29.9736 3.67C29.9736 3.83 30.0296 3.91 30.1416 3.91C30.2016 3.91 30.2816 3.874 30.3816 3.802C30.4816 3.73 30.5836 3.644 30.6876 3.544C30.7916 3.444 30.8856 3.348 30.9696 3.256C31.0576 3.16 31.1176 3.088 31.1496 3.04C31.1616 3.028 31.1756 3.022 31.1916 3.022C31.2076 3.022 31.2196 3.028 31.2276 3.04C31.2356 3.052 31.2356 3.068 31.2276 3.088C31.1876 3.156 31.1256 3.242 31.0416 3.346C30.9576 3.446 30.8636 3.548 30.7596 3.652C30.6556 3.752 30.5536 3.838 30.4536 3.91C30.4016 3.95 30.3336 3.984 30.2496 4.012C30.1696 4.044 30.0896 4.06 30.0096 4.06C29.9456 4.06 29.8836 4.044 29.8236 4.012C29.7636 3.98 29.7196 3.92 29.6916 3.832C29.6796 3.796 29.6736 3.746 29.6736 3.682C29.6736 3.662 29.6736 3.642 29.6736 3.622C29.6736 3.598 29.6756 3.574 29.6796 3.55C29.6956 3.422 29.7376 3.288 29.8056 3.148C29.8776 3.004 29.9436 2.876 30.0036 2.764C30.0196 2.732 30.0316 2.704 30.0396 2.68C30.0516 2.656 30.0576 2.636 30.0576 2.62C30.0576 2.588 30.0436 2.572 30.0156 2.572C29.9876 2.572 29.9436 2.59 29.8836 2.626C29.8236 2.662 29.7436 2.724 29.6436 2.812C29.5556 2.888 29.4616 2.988 29.3616 3.112C29.2656 3.232 29.1696 3.356 29.0736 3.484C28.9816 3.612 28.8996 3.722 28.8276 3.814C28.7596 3.906 28.7116 3.96 28.6836 3.976C28.6636 3.988 28.6176 4.008 28.5456 4.036C28.4736 4.064 28.4216 4.078 28.3896 4.078ZM29.2956 2.326C29.4556 2.218 29.6296 2.084 29.8176 1.924C30.0056 1.76 30.1816 1.586 30.3456 1.402C30.5136 1.214 30.6416 1.036 30.7296 0.868C30.7776 0.776 30.8016 0.7 30.8016 0.64C30.8016 0.572 30.7716 0.538 30.7116 0.538C30.6836 0.538 30.6516 0.546 30.6156 0.562C30.5796 0.574 30.5376 0.598 30.4896 0.634C30.2216 0.842 29.9956 1.09 29.8116 1.378C29.6276 1.662 29.4556 1.978 29.2956 2.326ZM31.618 4.09C31.438 4.09 31.282 4.048 31.15 3.964C31.018 3.88 30.952 3.752 30.952 3.58C30.952 3.488 30.98 3.376 31.036 3.244C31.076 3.152 31.15 3.046 31.258 2.926C31.366 2.806 31.492 2.69 31.636 2.578C31.78 2.462 31.926 2.368 32.074 2.296C32.222 2.22 32.356 2.182 32.476 2.182C32.52 2.182 32.56 2.188 32.596 2.2C32.664 2.224 32.71 2.262 32.734 2.314C32.762 2.366 32.776 2.42 32.776 2.476C32.776 2.528 32.768 2.578 32.752 2.626C32.736 2.674 32.716 2.716 32.692 2.752C32.62 2.86 32.516 2.956 32.38 3.04C32.248 3.124 32.112 3.19 31.972 3.238C31.836 3.286 31.724 3.314 31.636 3.322H31.624C31.572 3.322 31.546 3.306 31.546 3.274C31.546 3.254 31.562 3.244 31.594 3.244C31.69 3.236 31.81 3.192 31.954 3.112C32.102 3.028 32.232 2.942 32.344 2.854C32.392 2.814 32.448 2.758 32.512 2.686C32.58 2.614 32.614 2.544 32.614 2.476C32.614 2.404 32.58 2.368 32.512 2.368C32.476 2.368 32.438 2.376 32.398 2.392C32.362 2.408 32.332 2.42 32.308 2.428C32.192 2.484 32.064 2.572 31.924 2.692C31.784 2.808 31.656 2.94 31.54 3.088C31.428 3.232 31.35 3.378 31.306 3.526C31.294 3.558 31.286 3.59 31.282 3.622C31.278 3.65 31.276 3.678 31.276 3.706C31.276 3.802 31.306 3.87 31.366 3.91C31.43 3.95 31.506 3.97 31.594 3.97C31.726 3.97 31.862 3.942 32.002 3.886C32.142 3.826 32.278 3.75 32.41 3.658C32.542 3.566 32.662 3.468 32.77 3.364C32.882 3.256 32.976 3.152 33.052 3.052C33.064 3.036 33.078 3.028 33.094 3.028C33.11 3.024 33.12 3.026 33.124 3.034C33.14 3.038 33.148 3.05 33.148 3.07C33.148 3.086 33.144 3.102 33.136 3.118C33.024 3.274 32.888 3.426 32.728 3.574C32.572 3.722 32.398 3.846 32.206 3.946C32.018 4.042 31.822 4.09 31.618 4.09Z" fill="black"/>
</svg>
