<svg width="22" height="23" viewBox="0 0 22 23" fill="none" xmlns="http://www.w3.org/2000/svg">
<path fill-rule="evenodd" clip-rule="evenodd" d="M5.19386 20.102L2.43386 23V17.6883C0.912698 15.8227 0 13.4473 0 10.8611C0 4.86322 4.90423 0 10.9524 0C17.0005 0 21.9048 4.86322 21.9048 10.8611C21.9048 16.859 17.0005 21.7222 10.9524 21.7222C8.92985 21.7291 6.94211 21.1699 5.19386 20.102Z" fill="white"/>
<circle cx="10.8571" cy="10.8571" r="9.85714" fill="black"/>
<g clip-path="url(#clip0_2226_10)">
<path d="M8.50766 9.80164C8.46859 10.2935 8.90068 10.6557 9.19557 10.6557C9.49086 10.642 10.6409 9.67281 10.6409 9.67281C11.1818 8.98873 11.1842 8.68455 11.1842 8.44547C11.139 7.38994 9.216 8.99762 8.50766 9.80164ZM13.2648 9.39309C13.5258 8.84062 13.1746 8.22701 12.4107 8.76598C11.8037 9.1518 11.0178 9.94551 10.6417 10.2562C10.4672 10.6086 10.9095 11.5756 11.6103 11.065C12.4386 10.4632 13.0435 9.89732 13.2648 9.39309ZM13.9757 6.05105L14.1439 5H16V6.91863L15.3198 6.92676L14.5007 9.70086C14.5517 10.6799 14.0552 10.6959 13.9918 11.1451C13.8324 12.2742 12.5697 13.1981 12.087 13.1981C11.765 13.1887 11.5296 12.8197 11.4506 12.4981C12.3584 11.494 13.5792 10.705 13.5792 10.705C13.6554 10.1769 13.4879 10.0088 14.0513 9.55879L14.589 6.73187C14.1298 6.42865 13.9155 6.43336 13.9757 6.05105ZM10.3529 10.7327C10.8237 11.6812 11.5038 11.7059 12.5584 10.4983C12.5835 10.61 12.6109 10.727 12.5605 11.0078C10.4153 12.9265 8.3948 14.7939 7.77979 15H6V14.5227C6.28945 14.1212 8.665 12.1619 10.3529 10.7327ZM13.5234 12.5692C13.4268 13.3902 12.6783 14.1087 11.678 15H8.50805L11.1805 12.7489C11.6418 13.7988 12.4612 13.6467 13.5234 12.5692M9.77461 10.7057L6 13.9229V11.8356L8.22129 10.0273C8.34012 10.7004 9.06807 11.2931 9.77461 10.7057" fill="white"/>
</g>
<defs>
<clipPath id="clip0_2226_10">
<rect width="10" height="10" fill="white" transform="translate(6 5)"/>
</clipPath>
</defs>
</svg>
