<svg width="500" height="500" viewBox="0 0 500 500" fill="none" xmlns="http://www.w3.org/2000/svg">
<rect width="500" height="500" fill="#252525"/>
<g clip-path="url(#clip0_2243_7618)">
<path d="M324.73 175.27C305.644 156.168 279.143 144.311 249.998 144.319C220.852 144.311 194.355 156.168 175.269 175.27C156.167 194.356 144.31 220.853 144.318 249.998C144.31 279.143 156.167 305.645 175.269 324.731C194.355 343.834 220.852 355.69 249.998 355.682C279.143 355.69 305.644 343.834 324.73 324.731C343.833 305.645 355.689 279.144 355.681 249.998C355.689 220.853 343.833 194.356 324.73 175.27ZM307.334 307.335C292.62 322.024 272.428 331.072 249.998 331.08C227.573 331.072 207.381 322.025 192.666 307.335C177.976 292.619 168.924 272.427 168.92 249.998C168.924 227.573 177.975 207.381 192.666 192.666C207.38 177.975 227.573 168.924 249.998 168.92C272.428 168.924 292.62 177.975 307.334 192.666C322.025 207.38 331.076 227.572 331.08 249.998C331.076 272.427 322.024 292.619 307.334 307.335Z" fill="#F6F6F6"/>
<path d="M205.725 302.427V240.917C205.725 214.338 222.732 197.572 249.988 197.572C277.267 197.572 294.271 214.338 294.271 240.917V302.427H268.173V241.838C268.173 228.326 261.642 220.634 249.988 220.634C238.339 220.634 231.823 228.327 231.823 241.838V302.427H205.725Z" fill="#F6F6F6"/>
</g>
<defs>
<clipPath id="clip0_2243_7618">
<rect width="213" height="213" fill="white" transform="translate(143.5 143.5)"/>
</clipPath>
</defs>
</svg>
