<svg width="130" height="83" viewBox="0 0 130 83" fill="none" xmlns="http://www.w3.org/2000/svg">
<g clip-path="url(#clip0_837_7274)">
<path fill-rule="evenodd" clip-rule="evenodd" d="M113.001 20.784H129.503L127.881 29.6129H121.19L119.643 37.9399H125.639L124.161 46.2737H118.158L111.736 82.3527H101.916L113.001 20.784ZM109.473 20.784H99.4479L93.3763 53.1911C93.1485 54.6314 92.7942 56.0487 92.3174 57.4268C92.1855 57.6878 91.9825 57.9063 91.732 58.0571C91.4814 58.2079 91.1934 58.285 90.9009 58.2794C90.7852 58.2938 90.6678 58.285 90.5555 58.2536C90.4432 58.2222 90.3383 58.1688 90.2468 58.0965C90.1553 58.0242 90.0791 57.9345 90.0226 57.8325C89.9661 57.7305 89.9304 57.6183 89.9177 57.5024C89.9127 56.2413 90.0535 54.9838 90.3371 53.7549L96.5256 20.784H86.459L81.5838 46.8376C80.6693 51.7815 80.0986 55.027 79.9611 56.581C79.8604 58.1048 80.1268 59.6304 80.738 61.0299C81.3931 62.5258 82.5716 63.7312 84.0523 64.4198C85.8569 65.3708 87.8791 65.8331 89.9177 65.7606C91.8594 65.8044 93.787 65.4193 95.563 64.6329C97.2384 63.9107 98.7149 62.795 99.8674 61.3805C100.958 60.1703 101.8 58.7566 102.343 57.2205C103.049 54.9053 103.591 52.5432 103.966 50.1518L109.466 20.7771L109.473 20.784ZM68.4504 49.0998C68.8767 44.0871 69.5093 38.0155 70.4307 30.6718C67.8178 39.0744 66.0507 45.146 65.1362 49.0998H68.4504ZM78.6958 20.784L75.5878 64.8461H66.3188L67.309 56.8629H63.7747L61.6568 64.8461H51.6452L65.7688 20.784H78.6958ZM57.7993 20.784H49.3142L45.6493 40.6284L43.6689 20.784H35.2663L27.015 64.8461H35.4863L39.2269 44.7885L40.7122 64.8461H49.5343L57.7856 20.784H57.7993ZM30.7556 21.1415L22.4217 41.0479L24.4846 64.8461H15.2156L13.5172 49.0998L10.5536 64.8461H0.878906L10.9799 0.595703H20.6546L15.7107 35.7533L21.851 21.1415H30.7556Z" fill="black"/>
</g>
<defs>
<clipPath id="clip0_837_7274">
<rect width="128.645" height="81.7638" fill="white" transform="translate(0.878906 0.595703)"/>
</clipPath>
</defs>
</svg>
