<svg width="223" height="60" viewBox="0 0 223 60" fill="none" xmlns="http://www.w3.org/2000/svg">
<g clip-path="url(#clip0_168_376)">
<path d="M81.0329 46.3391H71.1131L60.8484 32.0113H59.6245C59.6069 32.0513 59.6014 32.0967 59.6014 32.1481V46.3395H51.2979V1.07422H59.6018V26.0935C59.6018 26.105 59.6018 26.1221 59.6072 26.1335H60.8022L70.1419 14.7134H80.1138L68.3497 28.6147C68.2035 28.7624 68.2035 29.1208 68.3497 29.3371L81.0329 46.3391Z" fill="black"/>
<path d="M112.747 14.7139V33.7301C112.747 41.9466 107.336 47.1305 98.6642 47.1305C89.9856 47.1305 84.5752 41.9466 84.5752 33.7301V14.7139H92.8787V33.4456C92.8787 37.6222 94.9578 40.0005 98.6642 40.0005C102.371 40.0005 104.444 37.6222 104.444 33.4456V14.7139H112.747Z" fill="black"/>
<path d="M0.650879 46.3395V27.3233C0.650879 19.1068 6.06127 13.9229 14.7336 13.9229C23.4122 13.9229 28.8226 19.1068 28.8226 27.3233V46.3395H20.519V27.6078C20.519 23.4312 18.4399 21.0528 14.7336 21.0528C11.0272 21.0528 8.954 23.4312 8.954 27.6078V46.3395H0.650879Z" fill="black"/>
<path d="M128.967 1.07422H120.658V46.3391H128.967V1.07422Z" fill="black"/>
<path d="M140.151 1.07422C137.265 1.07422 134.887 3.30477 134.887 6.18959C134.887 9.06909 137.189 11.305 140.151 11.305C143.191 11.305 145.492 9.14259 145.492 6.18959C145.492 3.30439 143.12 1.07422 140.151 1.07422Z" fill="black"/>
<path d="M144.304 14.7139H136V46.3395H144.304V14.7139Z" fill="black"/>
<path d="M39.6734 1.07422C36.7865 1.07422 34.4092 3.30477 34.4092 6.18959C34.4092 9.06909 36.7105 11.305 39.6734 11.305C42.7127 11.305 45.0136 9.14259 45.0136 6.18959C45.014 3.30439 42.6422 1.07422 39.6734 1.07422Z" fill="black"/>
<path d="M43.8247 14.7139H35.522V46.3395H43.8247V14.7139Z" fill="black"/>
<path d="M170.836 13.916C167.369 13.916 164.09 15.1907 161.455 17.4612H160.161V14.7127H151.928V59.5846H160.161V43.5499H161.455C164.043 45.8772 167.311 47.129 170.836 47.129C179.661 47.129 186.552 39.8573 186.552 30.4172C186.552 21.0513 179.73 13.916 170.836 13.916ZM169.056 39.9994C163.868 39.9994 160.085 35.9652 160.085 30.4911C160.085 25.0855 163.938 21.051 169.056 21.051C174.32 21.051 178.173 25.0113 178.173 30.4172C178.173 35.9652 174.396 39.9994 169.056 39.9994Z" fill="black"/>
<path d="M222.242 29.5413C222.202 28.614 222.107 27.7262 221.956 26.8667C220.597 18.844 214.923 13.916 206.631 13.916C197.438 13.916 190.692 20.9089 190.692 30.4176C190.692 40.432 197.66 47.1294 208.189 47.1294C211.96 47.1294 216.24 46.1278 218.032 44.9103V37.6439C218.015 37.6611 217.991 37.6778 217.974 37.695C216.123 39.277 212.194 40.432 208.71 40.432C203.211 40.432 199.364 38.0309 199.229 34.3665V33.5869H222.278V30.776C222.278 30.3608 222.266 29.9454 222.242 29.5413ZM198.872 27.7491C199.388 24.0219 201.666 20.6191 206.485 20.6191C211.591 20.6191 213.453 23.7431 213.957 27.7491H198.872Z" fill="black"/>
</g>
<defs>
<clipPath id="clip0_168_376">
<rect width="223" height="59.0294" fill="white" transform="translate(0 0.897461)"/>
</clipPath>
</defs>
</svg>
