<svg width="500" height="499" viewBox="0 0 500 499" fill="none" xmlns="http://www.w3.org/2000/svg">
<rect width="499.227" height="498.929" fill="#252525"/>
<path d="M331.663 366.928C326.255 368.827 321.518 370.328 317.389 371.492C313.325 372.656 308.716 373.238 303.531 373.238C294.538 373.238 287.369 371.216 282.024 367.204C276.679 363.192 273.287 357.342 271.782 349.623H270.758C263.269 357.556 255.236 363.59 246.691 367.786C238.113 371.951 227.776 374.034 215.678 374.034C202.908 374.034 192.41 370.298 184.185 362.793C175.928 355.289 171.863 345.488 171.863 333.39C171.863 327.111 172.791 321.475 174.616 316.544C176.44 311.582 179.224 307.141 182.905 303.159C185.785 299.882 189.562 296.911 194.299 294.338C199.035 291.735 203.452 289.683 207.581 288.151C212.765 286.252 223.263 282.791 239.105 277.737C254.916 272.653 265.605 268.702 271.11 265.823V249.498C271.11 248.089 270.79 245.302 270.15 241.228C269.51 237.154 268.166 233.295 266.086 229.65C263.781 225.577 260.549 222.054 256.356 218.992C252.131 215.959 246.21 214.459 238.465 214.459C233.184 214.459 228.256 215.316 223.711 217.031C219.166 218.747 215.998 220.523 214.174 222.422C214.174 224.627 214.718 227.874 215.774 232.131C216.894 236.45 217.406 240.401 217.406 244.046C217.406 247.936 215.582 251.427 211.997 254.613C208.349 257.829 203.324 259.422 196.859 259.422C191.098 259.422 186.874 257.461 184.153 253.571C181.433 249.651 180.089 245.271 180.089 240.432C180.089 235.592 181.945 230.508 185.689 225.914C189.434 221.258 194.267 217.154 200.284 213.509C205.468 210.446 211.741 207.843 219.102 205.668C226.463 203.555 233.665 202.452 240.674 202.452C250.339 202.452 258.788 203.095 265.957 204.351C273.127 205.607 279.688 208.333 285.544 212.529C291.401 216.603 295.85 222.116 298.922 229.13C301.963 236.144 303.531 245.118 303.531 256.114C303.531 271.887 303.371 285.854 303.019 298.014C302.667 310.173 302.475 323.497 302.475 337.923C302.475 342.211 303.275 345.641 304.843 348.153C306.38 350.726 308.78 352.839 312.012 354.616C313.741 355.596 316.461 356.178 320.206 356.27C323.918 356.392 327.759 356.423 331.695 356.423V366.99L331.663 366.928ZM271.398 279.728C261.605 282.485 253.028 285.18 245.698 287.845C238.337 290.479 231.456 293.787 225.151 297.769C219.39 301.505 214.846 305.977 211.517 311.092C208.157 316.207 206.524 322.333 206.524 329.378C206.524 338.536 209.021 345.304 214.014 349.592C219.038 353.911 225.343 356.025 233.089 356.025C241.282 356.025 248.483 354.126 254.692 350.328C260.901 346.53 266.117 342.027 270.406 336.851L271.43 279.728H271.398ZM277.639 181.288L271.078 186.556C259.236 177.551 248.611 169.649 239.297 162.88C229.984 156.08 223.103 150.935 218.59 147.412C214.206 143.89 211.133 141.041 209.373 138.836C207.581 136.6 206.685 133.292 206.685 128.759C206.685 125.574 208.029 122.603 210.653 119.908C213.309 117.243 216.702 115.895 220.831 115.895C225.311 115.895 229.184 116.875 232.384 118.866C235.585 120.826 239.041 124.686 242.722 130.413C246.627 136.478 251.235 143.4 256.548 151.118C261.829 158.898 268.838 168.944 277.607 181.288H277.639Z" fill="#F6F6F6"/>
</svg>
