<svg width="244" height="97" viewBox="0 0 244 97" fill="none" xmlns="http://www.w3.org/2000/svg">
<path fill-rule="evenodd" clip-rule="evenodd" d="M154.21 14.4809C143.693 13.0882 133.096 12.3883 122.487 12.3857C111.877 12.3898 101.28 13.0897 90.7628 14.4809L88.957 14.7245L92.0074 19.2315C93.1067 20.7709 93.6955 22.6153 93.6912 24.5058V73.8509C93.6912 78.0168 95.6068 80.5505 99.7919 80.989C104.711 81.2493 109.605 81.8681 114.434 82.8405C117.016 83.263 119.525 84.0461 121.889 85.167L122.426 85.4594L122.963 85.167C125.326 84.0461 127.836 83.263 130.418 82.8405C135.246 81.8681 140.14 81.2493 145.059 80.989H145.12C149.354 80.5505 151.221 78.0168 151.221 73.8509V24.5058C151.215 22.6244 151.8 20.7884 152.893 19.2558L155.955 14.7245L154.21 14.4809ZM150.684 17.6723C149.27 19.671 148.511 22.0585 148.512 24.5058V73.8509C148.512 76.7622 147.536 77.956 144.852 78.2361C139.824 78.535 134.822 79.1739 129.881 80.1485C127.327 80.5888 124.833 81.3247 122.45 82.3411C120.067 81.3247 117.573 80.5888 115.019 80.1485C110.091 79.1633 105.101 78.5122 100.085 78.1996C97.4492 77.9194 96.4243 76.7257 96.4243 73.8144V24.5058C96.426 22.0585 95.6671 19.671 94.2524 17.6723L93.7156 16.8805C103.254 15.728 112.854 15.1504 122.462 15.1508C132.062 15.1508 141.654 15.7284 151.185 16.8805L150.684 17.6723Z" fill="black"/>
<path d="M136.852 64.8874C136.852 66.5562 137.963 66.739 138.512 66.739C139.061 66.739 139.854 66.5562 139.854 64.8874V54.6554C139.201 54.9507 138.48 55.0644 137.768 54.9843C136.969 54.9066 136.196 54.6617 135.498 54.2656C134.522 54.363 133.534 54.5092 132.558 54.6798C133.039 52.8147 133.26 50.8923 133.216 48.9669C133.216 47.7488 133.216 35.0197 133.216 33.3753C133.324 30.8173 133.086 28.2566 132.509 25.7622C133.57 25.957 134.632 26.1032 135.693 26.2128C136.468 25.5675 137.454 25.2293 138.463 25.2627C139.484 25.2302 140.479 25.5874 141.245 26.2615C142.304 26.1605 143.355 25.9937 144.393 25.7622C143.857 28.899 143.66 32.0844 143.807 35.2633V60.4657C143.666 63.6 143.862 66.7405 144.393 69.8329C143.39 69.6152 142.376 69.4566 141.355 69.3578C140.571 70.084 139.532 70.4734 138.463 70.4419C137.43 70.4609 136.429 70.0814 135.669 69.3822C134.62 69.4918 133.558 69.638 132.509 69.8329C132.882 68.6044 133.075 67.3284 133.082 66.0446V57.4936C133.416 57.6067 133.767 57.6603 134.119 57.6519C134.766 57.6519 135.169 57.3839 135.779 57.3839C136.124 57.3791 136.468 57.416 136.804 57.4936L136.852 64.8874ZM120.503 67.4211C120.503 69.3457 121.796 69.5649 122.418 69.5649C123.04 69.5649 123.98 69.3457 123.98 67.4211V55.435C123.213 55.7718 122.373 55.906 121.54 55.8248C120.616 55.7247 119.722 55.4343 118.916 54.9721C117.782 55.0939 116.647 55.2645 115.512 55.4594C116.066 53.2996 116.321 51.074 116.269 48.8451C116.269 47.4078 116.269 31.5603 116.269 29.6601C116.392 26.7012 116.117 23.739 115.451 20.8532C116.671 21.0724 117.891 21.243 119.112 21.3648C120.011 20.6295 121.146 20.2444 122.308 20.2807C123.492 20.243 124.646 20.6518 125.542 21.4257C126.773 21.3124 127.995 21.1212 129.202 20.8532C128.582 24.4725 128.353 28.1479 128.519 31.8161V62.2685C128.356 65.8962 128.585 69.5308 129.202 73.1096C128.044 72.8458 126.871 72.6586 125.688 72.5492C124.774 73.3803 123.568 73.818 122.333 73.7673C121.139 73.7874 119.982 73.3517 119.099 72.5492C117.879 72.671 116.659 72.8416 115.439 73.073C115.866 71.6499 116.088 70.1734 116.098 68.6879V58.5655C116.49 58.698 116.904 58.7599 117.318 58.7482C118.062 58.7482 118.538 58.4558 119.234 58.4558C119.643 58.4481 120.052 58.4849 120.454 58.5655L120.503 67.4211ZM123.98 48.3578V28.442C123.98 26.5296 123.028 26.0058 122.418 26.0058C121.808 26.0058 120.503 26.5052 120.503 28.442V48.3578C120.503 50.2703 121.796 50.794 122.418 50.794C123.04 50.794 124.017 50.2824 124.017 48.3578H123.98ZM104.641 64.8874C104.641 66.5562 105.763 66.739 106.3 66.739C106.837 66.739 107.642 66.5562 107.642 64.8874V54.6554C106.989 54.9507 106.268 55.0644 105.556 54.9843C104.757 54.9066 103.984 54.6617 103.286 54.2656C102.31 54.363 101.322 54.5092 100.346 54.6798C100.827 52.8147 101.049 50.8923 101.005 48.9669C101.005 47.7488 101.005 35.0197 101.005 33.3753C101.112 30.8173 100.874 28.2566 100.297 25.7622C101.358 25.957 102.42 26.1032 103.481 26.2128C104.257 25.5685 105.243 25.2304 106.251 25.2627C107.272 25.2302 108.267 25.5874 109.033 26.2615C110.092 26.1605 111.143 25.9937 112.181 25.7622C111.645 28.899 111.448 32.0844 111.595 35.2633V60.4657C111.454 63.6 111.65 66.7405 112.181 69.8329C111.179 69.6152 110.164 69.4566 109.143 69.3578C108.359 70.084 107.32 70.4734 106.251 70.4419C105.218 70.4609 104.217 70.0814 103.457 69.3822C102.408 69.4918 101.346 69.638 100.297 69.8329C100.71 68.6021 100.94 67.3176 100.98 66.0202V57.4936C101.314 57.6067 101.665 57.6603 102.017 57.6519C102.664 57.6519 103.067 57.3839 103.677 57.3839C104.022 57.3791 104.366 57.416 104.702 57.4936L104.641 64.8874ZM107.642 48.5406V32.3277C107.642 30.6711 106.825 30.2447 106.3 30.2447C105.775 30.2447 104.641 30.6711 104.641 32.3277V48.5406C104.641 50.1972 105.763 50.6479 106.3 50.6479C106.837 50.6479 107.679 50.185 107.679 48.5406H107.642ZM139.817 48.5406V32.3277C139.817 30.6711 139 30.2447 138.475 30.2447C137.951 30.2447 136.816 30.6711 136.816 32.3277V48.5406C136.816 50.1972 137.926 50.6479 138.475 50.6479C139.024 50.6479 139.854 50.185 139.854 48.5406H139.817Z" fill="black"/>
<path d="M240.209 37.9464C240.191 37.5032 240.319 37.0664 240.574 36.7032C240.828 36.3401 241.195 36.0707 241.618 35.9365C242.002 35.921 242.384 35.9983 242.732 36.1619C243.079 36.3255 243.382 36.5705 243.615 36.8762C245.024 39.3428 240.3 41.3526 240.209 37.9464Z" fill="black"/>
<path d="M211.651 50.8016C212.956 51.6891 213.752 54.3906 215.932 55.5391C216.751 56.0076 217.694 56.2126 218.634 56.1263C219.182 54.6777 217.681 53.9077 217.42 52.7592C217.877 53.2083 218.437 53.5384 219.052 53.7204C219.666 53.9024 220.316 53.9309 220.944 53.8033C220.951 53.4593 220.867 53.1194 220.7 52.8188C220.532 52.5183 220.288 52.2679 219.991 52.0936C219.57 51.8798 219.133 51.6966 218.686 51.5455C218.294 51.3864 217.925 51.1757 217.589 50.919L217.289 50.6319C218.744 50.5926 220.199 50.6405 221.648 50.7755C222.694 51.0845 223.657 51.6242 224.467 52.3547C226.451 53.7641 226.947 54.9648 229.414 54.1296C229.322 52.2502 227.913 52.5113 227.417 51.415C228.565 51.4802 232.467 53.2682 233.25 50.9843C232.415 49.7445 229.061 50.6189 227.508 50.1882C227.678 49.6923 230.732 49.0006 230.118 47.3823C228.356 46.5731 226.125 49.118 222.797 49.4574C220.904 49.6401 219.169 49.6531 217.433 49.6792L217.511 49.5878C218.516 48.8309 220.043 48.8178 220.121 46.9777C217.916 46.1555 217.198 47.4475 216.206 47.7346C216.428 47.1082 216.832 46.5861 217.067 45.8945C217.312 45.2468 217.312 44.5322 217.067 43.8846C214.666 43.5714 213.961 46.1294 213.061 48.1523C212.822 48.8461 212.413 49.4695 211.873 49.9663C207.031 50.3839 203.025 50.9582 202.973 50.9451C203.582 50.5013 204.138 49.989 204.63 49.4182C204.857 49.1334 205.02 48.8029 205.108 48.4493C205.196 48.0956 205.207 47.7273 205.139 47.3692C202.529 46.547 200.193 49.9794 199.018 51.0104C197.178 51.428 196.826 51.428 193.08 52.446C189.902 53.2982 186.799 54.4068 183.801 55.7609C183.801 55.7609 183.892 57.066 186.307 56.1002C188.708 55.091 191.166 54.2195 193.667 53.4901C195.677 52.9028 198.653 52.0545 200.571 53.4248C201.08 53.8033 201.576 54.1426 202.15 54.495C202.722 54.9192 203.35 55.2618 204.017 55.5129C205.134 55.9433 206.371 55.9433 207.488 55.5129C206.822 52.9028 204.121 53.0986 203.39 51.9892C206.111 51.3904 208.872 50.9934 211.651 50.8016V50.8016Z" fill="black"/>
<path d="M188.88 22.6113C190.354 23.0158 192.247 24.4123 194.4 24.2296C195.347 24.2062 196.261 23.8816 197.01 23.303C196.71 21.776 195.026 21.9326 194.191 21.0974C194.817 21.2339 195.467 21.2148 196.083 21.0419C196.7 20.869 197.265 20.5474 197.728 20.1055C197.554 19.8093 197.304 19.5657 197.003 19.4003C196.702 19.2349 196.362 19.1538 196.018 19.1658C195.578 19.1999 195.142 19.2697 194.713 19.3746C194.28 19.4292 193.842 19.4292 193.408 19.3746H193.095C194.246 18.5189 195.473 17.7719 196.762 17.1429C197.812 16.8573 198.911 16.7994 199.986 16.9733C202.413 17.1168 203.51 17.926 205.128 15.8509C204.045 14.3109 202.988 15.2767 201.983 14.6241C202.988 14.0629 207.203 13.4887 206.694 11.1526C205.324 10.5392 202.961 13.0711 201.408 13.5279C201.291 13.0319 203.497 10.8132 202.087 9.78223C200.169 10.0302 199.712 13.4887 196.997 15.4463C195.483 16.5296 194.074 17.417 192.586 18.4219C193.03 17.2343 194.322 16.4121 193.447 14.7807C191.137 15.2636 191.229 16.7384 190.485 17.5475C190.341 16.8819 190.406 16.2424 190.237 15.5246C189.989 14.4284 189.676 14.4023 189.167 13.815C186.974 14.833 187.744 17.3778 188.057 19.5704C188.27 20.4127 188.168 21.3039 187.77 22.0762C186.778 22.8984 185.708 23.8642 184.534 24.9865C182.136 27.2382 179.903 29.6588 177.852 32.2298C177.852 32.2298 178.556 33.3913 180.227 31.3684C181.886 29.3663 183.659 27.462 185.539 25.6652C186.504 24.6733 187.653 23.6423 188.88 22.6113Z" fill="black"/>
<path d="M220.258 12.3918V12.3005C221.645 10.1413 222.705 7.78833 223.403 5.31829C224.356 1.62489 226.013 0.437251 227.318 0.450301C228.623 0.463352 229.132 1.49438 229.093 2.82557C228.974 4.16351 228.451 5.43352 227.592 6.46678C225.683 9.02508 223.16 11.0625 220.258 12.3918V12.3918Z" fill="black"/>
<path d="M228.686 25.0649C221.534 22.6896 212.582 28.4581 207.152 34.6833C207.152 34.6833 207.152 34.7616 207.152 34.8008C216.17 29.5413 224.98 32.4647 228.686 25.0649Z" fill="black"/>
<path d="M207.252 21.3586C207.542 21.5136 207.774 21.7598 207.911 22.0593C208.047 22.3588 208.082 22.695 208.009 23.0161C207.886 23.2712 207.704 23.4926 207.476 23.6609C207.249 23.8292 206.983 23.9394 206.704 23.9818C204.602 23.9949 204.994 20.1971 207.252 21.3586Z" fill="black"/>
<path d="M159.035 69.8426C160.197 68.159 160.197 66.3319 160.849 64.8049C162.091 61.7483 163.97 58.991 166.359 56.7161C168.749 54.4412 171.595 52.7008 174.709 51.6105C176.889 50.9319 180.621 49.9661 178.377 47.4995C182.997 46.9122 188.7 45.7506 188.099 43.2318C191.99 42.6548 195.659 41.0611 198.736 38.6118C199.808 37.5701 200.758 36.4098 201.568 35.1533C202.547 33.8482 203.852 32.4388 204.048 30.7291C203.278 30.4942 203.199 31.5122 202.847 31.9167C200.808 33.8775 198.417 35.436 195.8 36.5106C192.335 37.7221 188.805 38.7416 185.228 39.5645C180.504 37.2806 177.228 40.974 175.297 42.9447C171.564 41.1045 167.531 47.4603 165.769 50.0444C161.611 55.8297 159.266 62.7213 159.035 69.8426V69.8426ZM166.422 52.9417C168.938 49.8547 172.044 47.2993 175.558 45.4244C179.289 43.5467 183.197 42.0429 187.225 40.9349C189.483 40.2301 191.963 39.5645 194.312 39.0816C193.92 39.8908 191.245 40.5955 188.53 41.4439C184.03 42.7012 179.66 44.3836 175.479 46.4685C172.182 48.2073 169.135 50.3849 166.422 52.9417Z" fill="black"/>
<path d="M160.026 45.4233L160.157 45.3581C163.25 40.5292 165.09 38.0104 168.183 35.2306C172.999 30.9107 173.403 27.4001 172.49 25.6382C171.576 23.8763 169.527 23.7328 167.543 24.8291C165.632 26.0452 164.138 27.8166 163.263 29.9058C160.892 34.7225 159.779 40.0606 160.026 45.4233Z" fill="black"/>
<path d="M4.62883 59.01C4.65054 59.4524 4.52358 59.8894 4.26814 60.2513C4.0127 60.6132 3.64353 60.8791 3.21939 61.0068C2.83737 61.0224 2.45722 60.9451 2.11169 60.7814C1.76616 60.6177 1.46556 60.3726 1.23563 60.0672C-0.173864 57.6005 4.53747 55.6429 4.62883 59.01Z" fill="black"/>
<path d="M33.1291 46.1422C31.824 45.2678 31.0409 42.5662 28.8484 41.4178C28.0368 40.9429 27.0956 40.7373 26.1599 40.8305C25.6117 42.2791 27.1127 43.0361 27.3737 44.1976C26.9153 43.7465 26.3527 43.4152 25.7359 43.2331C25.119 43.051 24.4668 43.0236 23.8369 43.1535C23.8285 43.4974 23.9139 43.8371 24.084 44.136C24.2542 44.4349 24.5027 44.6818 24.8026 44.8501C25.2181 45.0764 25.6553 45.26 26.1077 45.3983C26.499 45.5636 26.8675 45.7785 27.204 46.0378L27.5042 46.3249C26.054 46.3575 24.6031 46.3096 23.1582 46.1813C22.1123 45.8723 21.1491 45.3326 20.3392 44.6022C18.3555 43.1927 17.8596 41.9267 15.3799 42.8272C15.4713 44.7066 16.8807 44.4456 17.3767 45.5288C16.2412 45.5288 12.326 43.6886 11.543 45.9594C12.3782 47.2645 15.7323 46.3379 17.2853 46.7686C17.1156 47.2515 14.0748 47.9562 14.6751 49.5746C16.437 50.3837 18.6817 47.8257 21.9967 47.4995C23.9021 47.3037 25.6379 47.2906 27.3737 47.2645L27.2954 47.3559C26.2905 48.1128 24.7505 48.1259 24.6852 49.9661C26.8908 50.7883 27.5956 49.4962 28.6005 49.1961C28.3656 49.8356 27.974 50.3576 27.726 51.0362C27.4745 51.6871 27.4745 52.4083 27.726 53.0591C30.1143 53.3723 30.8191 50.8144 31.7326 48.7915C31.9677 48.0988 32.3714 47.4753 32.9072 46.9774C37.7491 46.5467 41.7687 45.9855 41.8209 45.9986C41.2048 46.4386 40.6439 46.9513 40.1505 47.5256C39.9232 47.8104 39.7601 48.1408 39.6722 48.4945C39.5844 48.8481 39.5739 49.2165 39.6415 49.5746C42.2516 50.3837 44.5877 46.8991 45.7623 45.9333C47.6025 45.5027 47.9549 45.5027 51.7005 44.4847C54.8787 43.6346 57.9822 42.526 60.9797 41.1698C60.9797 41.1698 60.9013 39.8647 58.4869 40.8435C56.0842 41.8507 53.6267 42.7221 51.1262 43.4537C49.1033 44.041 46.1278 44.8893 44.2223 43.4537C43.7003 43.0752 43.2174 42.7359 42.6431 42.3835C42.0674 41.9613 41.4347 41.623 40.7638 41.3786C39.6491 40.9354 38.4071 40.9354 37.2923 41.3786C37.9579 43.9888 40.6595 43.78 41.3903 44.8893C38.6727 45.5177 35.9108 45.9365 33.1291 46.1422Z" fill="black"/>
<path d="M55.9728 74.3314C54.485 73.9399 52.5926 72.5434 50.4523 72.7131C49.5054 72.7455 48.5924 73.0742 47.8421 73.6527C48.1553 75.1666 49.8258 75.0231 50.6741 75.8583C50.0465 75.7196 49.3943 75.7375 48.7752 75.9104C48.1561 76.0834 47.5891 76.4062 47.1242 76.8502C47.3008 77.146 47.5543 77.3883 47.8576 77.5515C48.161 77.7146 48.5029 77.7925 48.847 77.7768C49.2867 77.7479 49.7232 77.6824 50.1521 77.5811C50.5849 77.52 51.0243 77.52 51.4571 77.5811L51.7704 77.6463C50.619 78.4904 49.3962 79.2328 48.1161 79.865C47.0669 80.1564 45.9666 80.2143 44.8926 80.0346C42.4651 79.8911 41.3689 79.095 39.7506 81.1701C40.8207 82.7101 41.8778 81.7443 42.8827 82.3969C41.8778 82.958 37.6624 83.5323 38.1714 85.8684C39.4765 86.4818 41.917 83.9499 43.3917 83.4801C43.5092 83.989 41.3036 86.2077 42.7131 87.2257C44.6316 86.9777 45.1014 83.5192 47.8029 81.5746C49.3168 80.4914 50.7263 79.6039 52.2141 78.586C51.7834 79.7606 50.4914 80.5958 51.3658 82.2272C53.6758 81.7443 53.5844 80.2696 54.3153 79.4604C54.4589 80.1129 54.3936 80.7655 54.5633 81.4833C54.8112 82.5665 55.1245 82.5926 55.6334 83.1799C57.826 82.175 57.069 79.6301 56.7558 77.4375C56.5353 76.5957 56.6377 75.7019 57.043 74.9317C58.0218 74.0965 59.0919 73.1438 60.2665 72.0084C62.6973 69.7583 64.9692 67.3424 67.066 64.7782C67.066 64.7782 66.3613 63.6166 64.6908 65.6395C63.0272 67.6416 61.2493 69.5458 59.366 71.3428C58.335 72.2824 57.1865 73.3134 55.9728 74.3314Z" fill="black"/>
<path d="M24.5886 84.5635V84.6548C23.1994 86.8068 22.1433 89.1564 21.4563 91.624C20.4906 95.3305 18.7678 96.5181 17.5411 96.505C16.3143 96.492 15.7401 95.461 15.7792 94.1167C15.8952 92.7819 16.4191 91.5152 17.28 90.4886C19.1706 87.9222 21.6867 85.8824 24.5886 84.5635V84.5635Z" fill="black"/>
<path d="M16.1602 71.8782C23.312 74.2665 32.2649 68.4849 37.6941 62.2727C37.6941 62.2727 37.6941 62.1814 37.6941 62.1553C28.6629 67.3887 19.8927 64.4783 16.1602 71.8782Z" fill="black"/>
<path d="M37.5961 75.5847C37.2995 75.4408 37.0592 75.2025 36.9128 74.9073C36.7663 74.612 36.722 74.2765 36.7869 73.9534C36.9119 73.7002 37.0956 73.4805 37.3226 73.3125C37.5496 73.1446 37.8133 73.0332 38.092 72.9876C40.2454 72.9485 39.8539 76.7462 37.5961 75.5847Z" fill="black"/>
<path d="M85.8015 27.1143C84.64 28.7978 84.64 30.6249 83.9874 32.1519C82.7459 35.2052 80.8693 37.9595 78.4819 40.2321C76.0946 42.5047 73.2512 44.2435 70.1405 45.3333C67.9479 46.025 64.2154 46.9907 66.4601 49.4443C61.8532 50.0316 56.15 51.2061 56.7373 53.7119C52.845 54.2904 49.1752 55.8889 46.1008 58.345C45.0287 59.3868 44.0786 60.547 43.2688 61.8035C42.2899 63.1086 40.9979 64.518 40.7891 66.2277C41.5591 66.4626 41.6373 65.4447 41.9897 65.0401C44.0319 63.0765 46.4277 61.5177 49.0503 60.4462C52.5108 59.2347 56.0355 58.2151 59.6084 57.3923C64.3328 59.6631 67.6086 55.9828 69.5532 54.0121C73.2727 55.8523 77.3837 49.4965 79.0673 46.9124C83.2311 41.1296 85.5758 34.2365 85.8015 27.1143V27.1143ZM78.4148 44.0151C75.9007 47.1044 72.7947 49.6602 69.2792 51.5324C65.5476 53.4101 61.6394 54.914 57.6117 56.0219C55.3539 56.7136 52.8611 57.327 50.512 57.8621C50.9035 57.066 53.592 56.3613 56.3066 55.4999C60.8063 54.2482 65.1764 52.5701 69.3575 50.4883C72.6508 48.7426 75.6967 46.5657 78.4148 44.0151V44.0151Z" fill="black"/>
<path d="M84.8057 51.5205L84.6752 51.5988C81.5822 56.4276 79.742 58.9465 76.6489 61.7263C71.8462 66.0461 71.4286 69.5568 72.3421 71.3187C73.2557 73.0806 75.3178 73.2241 77.2885 72.1279C79.1997 70.9118 80.6934 69.1403 81.5691 67.051C83.9414 62.2303 85.0548 56.8875 84.8057 51.5205V51.5205Z" fill="black"/>
</svg>
