<svg width="501" height="500" viewBox="0 0 501 500" fill="none" xmlns="http://www.w3.org/2000/svg">
<rect width="500" height="500" transform="translate(0.351562)" fill="#252525"/>
<g clip-path="url(#clip0_2243_7552)">
<path d="M295.519 214.376L304.601 208.592C305.299 208.127 306.3 207.423 307.444 206.558C308.333 205.989 317.147 200.213 320.313 193.098C322.843 186.203 322.664 178.618 319.81 171.849C318.675 169.443 317.291 167.159 315.682 165.035L315.68 165.028L315.657 165C314.1 162.889 312.43 160.861 310.656 158.924C310.656 158.924 310.302 158.53 310.253 158.488L310.129 158.356L310.127 158.349C297.89 147.179 282.062 140.655 265.44 139.933C263.105 139.731 260.735 139.597 258.366 139.597H256.977C256.538 139.597 256.131 139.597 255.691 139.631C253.761 139.664 251.799 139.765 249.869 139.932C229.218 141.476 212.292 148.856 199.563 161.939C186.904 174.988 179.302 192.049 178.101 210.111C178 211.386 177.763 216.753 177.763 218.162V218.598C178.169 259.29 207.216 293.577 254.033 295.721C256.233 295.821 258.67 295.821 258.67 295.821C276.773 295.757 294.482 290.579 309.72 280.893C311.123 280.187 312.362 279.198 313.358 277.991C314.355 276.784 315.087 275.385 315.509 273.883C316.192 270.668 315.597 267.315 313.85 264.523L309.381 257.243C306.772 253.229 305 251.847 301.968 251.306C298.795 250.751 295.528 251.411 292.827 253.151C283.345 259.155 272.39 262.484 261.141 262.779C260.837 262.813 259.246 262.846 258.805 262.846C249.401 262.868 240.227 259.97 232.57 254.559L232.565 254.555L270.677 230.257L295.519 214.376ZM213.41 215.479C213.562 208.947 215.108 202.522 217.946 196.625C220.058 192.389 222.886 188.543 226.308 185.253C230.435 181.213 235.332 178.026 240.713 175.878C246.095 173.73 251.854 172.663 257.655 172.741C257.655 172.741 259.252 172.774 259.686 172.774C262.044 172.834 264.397 173.047 266.727 173.412C267.912 173.613 269.063 173.848 270.18 174.149C270.799 174.282 271.41 174.45 272.008 174.653C277.437 176.214 282.496 178.833 286.889 182.358L279.852 186.85L214.566 228.513L214.561 228.494C213.693 224.993 213.284 221.397 213.342 217.793C213.342 217.021 213.376 216.25 213.41 215.479Z" fill="#F6F6F6"/>
<path d="M323.238 351.982V331.982C323.238 325.647 322.265 320.512 321.066 320.512H183.029C181.83 320.512 180.858 325.647 180.858 331.982V351.982C180.858 358.317 181.83 363.452 183.029 363.452H321.066C322.265 363.452 323.238 358.317 323.238 351.982Z" fill="#F6F6F6"/>
</g>
<defs>
<clipPath id="clip0_2243_7552">
<rect width="145.475" height="223.905" fill="white" transform="translate(177.762 139.548)"/>
</clipPath>
</defs>
</svg>
