<svg width="500" height="500" viewBox="0 0 500 500" fill="none" xmlns="http://www.w3.org/2000/svg">
<rect width="500" height="500" fill="#252525"/>
<path d="M255.594 142.144C253.737 142.048 251.865 142 249.992 142C248.119 142 246.247 142.048 244.39 142.144V299.606C219.501 296.805 200.07 275.643 200.07 250.016C200.07 229.719 212.25 212.223 229.696 204.428L225.135 194.199C203.783 203.739 188.865 225.157 188.865 250.016C188.865 281.822 213.29 308.026 244.39 310.875V346.651C193.619 343.738 153.204 301.527 153.204 250.032C153.204 210.671 176.829 176.735 210.633 161.625L206.072 151.396C168.362 168.236 142 206.076 142 250C142 307.674 187.441 354.927 244.39 357.856C246.247 357.952 248.119 358 249.992 358C251.865 358 253.737 357.952 255.594 357.856V200.41C280.483 203.211 299.915 224.373 299.915 250C299.915 270.297 287.734 287.793 270.288 295.588L274.849 305.817C296.201 296.277 311.119 274.843 311.119 250C311.119 218.194 286.678 191.99 255.594 189.141V153.381C306.365 156.294 346.78 198.505 346.78 250C346.78 289.361 323.155 323.297 289.351 338.407L293.912 348.636C331.638 331.78 358 293.924 358 250C358 192.326 312.559 145.073 255.594 142.144Z" fill="#F6F6F6"/>
</svg>
