<svg width="501" height="500" viewBox="0 0 501 500" fill="none" xmlns="http://www.w3.org/2000/svg">
<rect width="500" height="500" transform="translate(0.351562)" fill="#252525"/>
<path d="M279.677 220.667C279.677 188.272 253.414 162.001 221.027 162.001C188.641 162.001 162.377 188.272 162.377 220.667C162.377 253.063 188.641 279.333 221.027 279.333C221.027 246.938 247.291 220.667 279.677 220.667Z" fill="#F6F6F6"/>
<path d="M279.676 220.668C279.676 253.064 253.412 279.334 221.026 279.334C221.026 311.73 247.289 338 279.676 338C312.062 338 338.326 311.73 338.326 279.334C338.326 246.939 312.062 220.668 279.676 220.668Z" fill="#F6F6F6"/>
<path d="M221.027 220.668H162.377V279.334H221.027V220.668Z" fill="#F6F6F6"/>
<path d="M279.676 279.334H221.026V338H279.676V279.334Z" fill="#F6F6F6"/>
</svg>
