<svg width="501" height="500" viewBox="0 0 501 500" fill="none" xmlns="http://www.w3.org/2000/svg">
<rect width="500" height="500" transform="translate(0.351562)" fill="#252525"/>
<path d="M289.137 162.019C289.137 162.019 284.996 161.783 285.667 167.098C286.339 172.414 287.794 181.982 290.032 187.534C290.032 187.534 274.923 188.479 263.955 196.394C256.792 201.591 253.882 210.805 255.449 219.665C255.673 220.846 255.785 221.909 255.897 222.736V223.445C255.897 223.681 255.897 223.917 255.897 224.272C255.897 224.744 255.785 225.335 255.785 225.807C255.673 226.752 255.337 227.697 255.002 228.642C254.218 230.414 252.539 231.95 251.196 233.249C250.861 233.485 250.525 233.84 250.189 234.076C249.853 234.312 249.406 234.667 249.294 234.785C248.958 235.021 248.734 235.375 248.622 235.73C248.286 236.557 248.286 237.856 248.622 239.155C249.182 241.754 250.637 244.471 252.427 246.834C253.323 248.015 254.218 249.196 255.225 250.259C256.233 251.323 257.352 252.386 258.359 253.331C262.836 257.229 268.096 260.182 274.14 261.127C274.14 261.127 249.518 260.655 241.571 238.21C203.966 230.296 187.626 259.119 187.626 259.119C163.228 192.85 219.411 194.858 229.596 209.388C236.983 220.019 261.045 210.214 252.763 191.196C248.175 180.565 236.311 175.249 226.798 172.532C217.509 169.815 207.66 169.343 198.259 171.469C174.979 176.667 165.354 193.559 161.325 208.206C158.08 220.491 158.303 233.485 161.549 245.771C173.524 290.541 211.913 320.781 232.394 334.011C240.452 339.209 250.525 339.327 258.583 334.366C278.728 321.962 316.781 294.321 335.472 253.213C361.773 195.803 300.888 161.074 289.137 162.019ZM290.032 231.595C292.83 231.95 295.628 232.659 298.202 233.604C300.888 234.549 303.463 235.966 305.701 237.738C307.939 239.51 309.954 241.754 311.409 244.353C311.633 244.826 311.521 245.416 311.073 245.652C310.625 245.889 310.178 245.771 309.842 245.416C308.387 243.172 306.596 241.164 304.358 239.628C302.231 238.092 299.769 236.911 297.307 236.202C294.845 235.375 292.159 234.903 289.585 234.667C287.01 234.43 284.213 234.43 281.75 234.785H281.638C280.743 234.903 279.96 234.194 279.848 233.249C279.736 232.304 280.407 231.477 281.303 231.359C281.303 231.359 281.303 231.359 281.415 231.359C284.548 231.005 287.234 231.241 290.032 231.595ZM274.364 216.711C273.244 217.656 272.461 218.956 271.789 220.491C271.566 221.082 270.894 221.318 270.335 221.082C269.887 220.846 269.551 220.373 269.663 219.783C269.887 217.775 270.782 215.766 272.125 214.231C273.468 212.695 275.259 211.514 277.162 210.923C279.064 210.333 281.191 210.451 283.093 211.041C284.996 211.632 286.675 212.931 287.906 214.467C288.354 215.058 288.242 215.766 287.682 216.239C287.234 216.593 286.675 216.593 286.227 216.239C284.996 215.294 283.653 214.585 282.31 214.349C280.967 213.995 279.512 214.113 278.169 214.467C276.714 214.94 275.483 215.766 274.364 216.711ZM311.409 272.231C311.073 272.231 310.737 271.995 310.737 271.64C310.29 267.742 309.282 263.962 307.604 260.536C306.82 258.765 305.701 257.229 304.694 255.693C303.575 254.158 302.232 252.858 300.888 251.559C298.09 249.078 294.957 247.07 291.599 245.534C289.92 244.826 288.13 244.117 286.451 243.644C284.66 243.172 282.869 242.699 281.191 242.581H281.079C280.183 242.463 279.512 241.636 279.624 240.691C279.736 239.746 280.519 239.037 281.415 239.155C281.415 239.155 281.415 239.155 281.526 239.155C283.541 239.51 285.444 239.982 287.346 240.573C289.249 241.164 291.04 241.991 292.83 242.817C296.412 244.589 299.769 246.834 302.567 249.669C304.022 251.086 305.365 252.622 306.484 254.276C307.604 255.929 308.611 257.701 309.394 259.591C311.073 263.371 311.968 267.388 312.192 271.404C311.968 271.877 311.745 272.231 311.409 272.231Z" fill="#F6F6F6"/>
</svg>
