<svg width="490" height="71" viewBox="0 0 490 71" fill="none" xmlns="http://www.w3.org/2000/svg">
<path d="M56.8583 68.0118H49.7783C47.8597 68.0118 46.1842 66.7958 45.5897 64.9853L26.8629 7.56175C25.6469 3.77855 22.1339 1.2384 18.1616 1.2384H0.272461V69.6332H7.62267V2.8868H14.7027C16.6213 2.8868 18.2967 4.10282 18.8912 5.91335L37.618 63.3099C38.834 67.0931 42.347 69.6332 46.3194 69.6332H64.2085V1.2384H56.8583V68.0118V68.0118Z" fill="black"/>
<path d="M113.524 0.0753174C93.9861 0.0753174 78.1777 15.9107 78.1777 35.4212C78.1777 54.9587 94.0131 70.767 113.524 70.767C124.117 70.767 133.629 66.0921 140.114 58.7149L139.249 57.8501C133.602 63.7952 125.252 67.119 116.415 67.119C99.6068 67.119 87.6898 53.0401 87.2844 36.2859H148.869C148.869 35.9887 148.896 35.7184 148.896 35.4212C148.869 14.5596 134.142 0.0753174 113.524 0.0753174ZM115.712 1.91287C131.278 1.91287 139.06 16.289 139.249 34.6645H87.2844C87.6087 17.8293 98.8502 1.91287 115.712 1.91287Z" fill="black"/>
<path d="M481.956 69.6332H489.388L469.121 7.56175C467.905 3.77855 464.392 1.2384 460.419 1.2384H431.748V69.6332H439.098V35.9898H470.958L481.956 69.6332ZM439.125 34.3684V2.85977H456.987C458.906 2.85977 460.581 4.0758 461.176 5.88633L470.445 34.3414H439.125V34.3684Z" fill="black"/>
<path d="M244.477 1.2384H237.127V69.6332H244.477V1.2384Z" fill="black"/>
<path d="M191.19 36.6662V36.2879H195.838C213.024 36.0717 221.077 28.235 221.077 18.7229C221.077 9.21078 212.727 1.26599 195.838 1.26599H161.06V69.6614H168.41V2.88738H195.379C204.107 2.88738 212.376 9.67017 212.538 18.3716C212.7 27.3703 204.81 34.6395 195.865 34.6395H174.706V36.2879H181.543C184.029 36.2879 186.353 37.4229 187.866 39.3956L211.403 69.6614H221.212L197.351 40.7737C195.757 38.774 193.595 37.3688 191.19 36.6662Z" fill="black"/>
<path d="M316.953 68.0118H310.765C308.846 68.0118 307.171 66.7958 306.576 64.9853L287.849 7.58877C286.633 3.80557 283.12 1.26543 279.148 1.26543H262.178V69.6602H269.528V2.8868H275.716C277.635 2.8868 279.31 4.10282 279.905 5.91335L298.632 63.3099C299.848 67.0931 303.361 69.6332 307.333 69.6332H324.303V1.2384H316.953V68.0118Z" fill="black"/>
<path d="M384.375 35.9887H400.589C400.454 54.4723 390.185 68.9565 374.539 68.9565C357.433 68.9565 346.084 52.5537 346.084 35.4212C346.084 18.2887 358.109 3.7234 375.241 3.7234C384.078 3.7234 392.428 7.04721 398.076 12.9922L398.94 12.1275C392.455 4.75027 382.943 0.0753174 372.35 0.0753174C352.812 0.0753174 337.004 15.9107 337.004 35.4212C337.004 54.9317 352.839 70.767 372.35 70.767C392.779 70.767 406.263 56.526 406.48 35.9616H410.371V69.6051H417.694V34.3673H384.375V35.9887Z" fill="black"/>
</svg>
