<svg width="501" height="500" viewBox="0 0 501 500" fill="none" xmlns="http://www.w3.org/2000/svg">
<rect width="500" height="500" transform="translate(0.476562)" fill="#252525"/>
<g clip-path="url(#clip0_2243_7599)">
<path d="M471.25 183.468C436.85 183.468 410.717 212.001 410.717 249.868C410.717 287.735 436.85 316.268 471.25 316.268C505.65 316.268 531.784 287.735 531.784 249.868C531.784 212.001 505.917 183.468 471.25 183.468ZM471.25 297.601C448.85 297.601 433.117 277.868 433.117 249.601C433.117 221.335 448.85 201.601 471.25 201.601C493.65 201.601 509.384 221.335 509.384 249.601C509.384 277.868 493.917 297.601 471.25 297.601ZM606.984 183.468C572.584 183.468 546.45 212.001 546.45 249.868C546.45 287.735 572.584 316.268 606.984 316.268C641.384 316.268 667.517 287.735 667.517 249.868C667.517 212.001 641.384 183.468 606.984 183.468ZM606.984 297.601C584.584 297.601 568.85 277.868 568.85 249.601C568.85 221.335 584.584 201.601 606.984 201.601C629.384 201.601 645.117 221.335 645.117 249.601C645.117 277.868 629.384 297.601 606.984 297.601ZM784.05 279.468C784.05 301.068 763.517 316.268 734.184 316.268C709.117 316.268 682.984 301.335 680.584 268.268L680.317 265.335H701.917L702.184 268.001C703.25 285.068 716.584 297.868 733.384 297.868C750.45 297.868 761.65 290.668 761.65 279.468C761.65 269.335 755.517 264.001 740.584 260.268L723.784 256.268C696.317 249.868 683.517 238.135 683.517 219.201C683.517 198.401 702.984 183.201 729.65 183.201C758.984 183.201 778.184 198.668 780.584 224.268L780.85 227.468H759.25L758.984 224.801C757.65 210.668 746.45 201.601 730.184 201.601C714.984 201.601 705.65 208.001 705.65 218.401C705.65 224.268 707.517 229.868 729.65 234.935L746.45 238.935C772.584 245.335 784.05 257.601 784.05 279.468ZM879.517 185.068H900.584V314.401H879.517V257.868H826.45V314.401H805.384V185.068H826.45V239.201H879.517V185.068ZM929.117 185.068H950.184V314.401H929.117V185.068ZM999.784 185.068V314.401H978.717V185.068H999.784ZM175.784 185.068L217.117 314.401H196.584L154.45 185.068H175.784ZM126.717 185.068L168.05 314.401H147.517L105.384 185.068H126.717ZM382.984 185.068H404.317L362.184 314.401H335.517L304.05 205.335L272.317 314.401H245.65L203.517 185.068H224.85L258.984 288.268L287.517 185.068H320.317L348.85 288.268L382.984 185.068Z" fill="#F6F6F6"/>
</g>
<defs>
<clipPath id="clip0_2243_7599">
<rect width="319.015" height="192" fill="white" transform="translate(91 152)"/>
</clipPath>
</defs>
</svg>
