<svg width="80" height="145" viewBox="0 0 80 145" fill="none" xmlns="http://www.w3.org/2000/svg">
<path d="M28.4561 6.73094V31.8072L18.9176 22.2149L6.03828 25.6964L2.57635 38.6484L20.2007 56.3966H6.71614L0.0585938 68.0096L6.71614 79.6469H21.3143L11.7275 89.2879L15.1894 102.24L28.0687 105.721L37.244 96.4942L40.0039 108.959V13.3774L42.7637 96.4942L51.9633 105.721L64.8426 102.24L68.3045 89.2879L58.6934 79.6225H73.2916L79.9734 68.0096L73.2916 56.3966H59.8071L77.4556 38.6484L73.9937 25.6964L61.1144 22.2149L51.5759 31.8072V6.73094L40.0039 0.0114746L28.4561 6.73094Z" fill="black"/>
<path d="M20.7871 123.859V126.196H11.7812V112.513H14.2264V123.859H20.7871Z" fill="black"/>
<path d="M31.0042 112.513V114.972H26.6223V126.196H24.1772V114.972H19.8438V112.513H31.0042Z" fill="black"/>
<path d="M39.1357 123.445V125.442C38.1916 125.953 36.9327 126.367 35.3107 126.367C33.3013 126.367 30.5898 125.539 30.5898 121.205C30.5898 118.162 31.8245 115.801 35.1412 115.801C38.3126 115.801 39.6925 118.211 39.6925 120.767C39.6925 121.205 39.6925 121.619 39.6441 122.033H33.1076C33.2529 124.005 34.5117 124.273 35.698 124.273C37.1021 124.249 38.2642 123.859 39.1357 123.445ZM33.0592 120.305H37.1506C37.0295 119.014 36.4001 117.773 35.0928 117.773C33.9065 117.773 33.2044 118.479 33.0592 120.305Z" fill="black"/>
<path d="M50.0372 120.134V122.91C50.0372 124.565 48.9236 126.367 45.7522 126.367C42.5324 126.367 41.3945 124.565 41.3945 122.861C41.3945 122.106 41.7092 119.647 45.7764 119.647C46.4058 119.647 47.0111 119.72 47.5679 119.793C47.5679 118.673 46.9869 117.87 45.4133 117.87C44.1786 117.87 43.186 118.065 42.4355 118.381V116.385C43.2829 116.044 44.3238 115.801 45.5585 115.801C48.4394 115.801 50.0372 117.334 50.0372 120.134ZM47.5921 121.327C47.1563 121.254 46.6721 121.205 46.1153 121.205C44.4691 121.205 43.8155 121.692 43.8155 122.544C43.8155 123.616 44.4449 124.176 45.728 124.176C47.0837 124.176 47.5921 123.567 47.5921 122.617V121.327Z" fill="black"/>
<path d="M67.8964 120.036V126.196H65.4512V119.89C65.4512 118.697 65.0639 117.894 63.1272 117.894C62.3525 117.894 61.6504 117.991 61.0452 118.137C61.0452 118.137 61.4809 118.624 61.4809 120.036V126.196H59.06V119.817C59.06 118.697 58.6726 117.942 56.7843 117.942C56.1791 117.942 55.5981 118.015 55.0897 118.113V126.22H52.6445V116.969C52.7172 116.92 54.6539 115.824 57.1233 115.824C58.2369 115.824 59.1568 116.092 59.8831 116.579C60.7062 116.262 62.0135 115.824 63.5629 115.824C66.2744 115.8 67.8964 117.382 67.8964 120.036Z" fill="black"/>
<path d="M45.8389 135.619C45.9841 135.619 46.1294 135.619 46.2746 135.644C46.5652 135.668 46.8799 135.741 47.1462 135.839C48.6472 136.325 49.7608 137.64 50.0029 139.223C50.2934 139.32 50.5839 139.393 50.8744 139.417C50.6807 137.251 49.1313 135.473 47.0978 134.938C46.8315 134.865 46.541 134.816 46.2504 134.792C46.1052 134.792 45.9599 134.767 45.8389 134.767C45.6936 134.767 45.5242 134.767 45.3789 134.792C45.3789 134.938 45.4031 135.059 45.4031 135.206C45.4031 135.352 45.4031 135.498 45.3789 135.644C45.5242 135.619 45.6694 135.619 45.8389 135.619Z" fill="black"/>
<path d="M51.2816 130.092C48.6186 130.092 46.4398 132.161 46.2461 134.79C46.5366 134.815 46.8029 134.863 47.0934 134.936C47.2145 132.721 49.0544 130.968 51.2816 130.968C53.6057 130.968 55.494 132.867 55.494 135.204C55.494 137.541 53.6057 139.44 51.2816 139.44C51.1364 139.44 50.9911 139.44 50.8459 139.416C50.5311 139.392 50.2406 139.319 49.9743 139.221C48.4733 138.734 47.3597 137.42 47.1176 135.837C46.8271 135.74 46.5366 135.691 46.2461 135.642C46.4398 137.809 47.9892 139.586 50.0227 140.122C50.289 140.195 50.5795 140.244 50.8701 140.268C51.0153 140.268 51.1364 140.292 51.2816 140.292C54.0657 140.292 56.3414 138.028 56.3414 135.204C56.3414 132.38 54.0899 130.092 51.2816 130.092Z" fill="black"/>
<path d="M34.4156 134.816C34.2219 132.186 32.0431 130.117 29.38 130.117C26.596 130.117 24.3203 132.405 24.3203 135.205C24.3203 138.005 26.5718 140.294 29.38 140.294C29.5253 140.294 29.6948 140.294 29.8158 140.269C29.8158 140.147 29.7916 140.001 29.7916 139.88C29.7916 139.734 29.7916 139.563 29.8158 139.417C29.6706 139.441 29.5253 139.441 29.3558 139.441C27.0318 139.441 25.1434 137.542 25.1434 135.205C25.1434 132.868 27.0318 130.969 29.3558 130.969C31.6073 130.969 33.423 132.746 33.5682 134.962C33.5682 135.035 33.5925 135.108 33.5925 135.205C33.5925 135.424 33.5683 135.643 33.544 135.863C33.302 137.445 32.1883 138.711 30.7116 139.222C30.6874 139.441 30.6631 139.661 30.6631 139.88C30.6631 139.953 30.6631 140.05 30.6874 140.123C32.7209 139.587 34.2461 137.835 34.4398 135.668C34.464 135.522 34.464 135.351 34.464 135.205C34.4398 135.059 34.4398 134.937 34.4156 134.816Z" fill="black"/>
<path d="M34.8701 135.643C35.0154 135.643 35.1606 135.643 35.3059 135.667C35.5964 135.692 35.9111 135.765 36.1774 135.862C37.6784 136.349 38.792 137.664 39.0341 139.246C39.3246 139.343 39.6151 139.392 39.9056 139.441C39.712 137.274 38.1626 135.497 36.129 134.961C35.8627 134.888 35.5722 134.839 35.2817 134.815C35.1364 134.815 34.9912 134.791 34.8701 134.791C34.7249 134.791 34.5796 134.791 34.4102 134.815C34.4344 134.937 34.4344 135.059 34.4344 135.205C34.4344 135.351 34.4344 135.521 34.4102 135.667C34.5554 135.643 34.7249 135.643 34.8701 135.643Z" fill="black"/>
<path d="M39.062 140.123C38.9409 142.338 37.101 144.091 34.8738 144.091C32.6223 144.091 30.7824 142.314 30.6614 140.099C30.6614 140.026 30.6372 139.953 30.6372 139.855C30.6372 139.636 30.6614 139.417 30.6856 139.198C30.9277 137.615 32.0413 136.325 33.5181 135.838C33.5423 135.619 33.5665 135.4 33.5665 135.181C33.5665 135.108 33.5665 135.01 33.5423 134.937C31.5087 135.473 29.9835 137.226 29.7898 139.393C29.7656 139.539 29.7656 139.709 29.7656 139.855C29.7656 139.977 29.7656 140.123 29.7898 140.245C29.9835 142.874 32.1623 144.943 34.8254 144.943C37.4884 144.943 39.6672 142.874 39.8609 140.245C39.6188 140.245 39.3525 140.196 39.062 140.123Z" fill="black"/>
<path d="M40.348 139.44C40.2028 139.44 40.0575 139.44 39.9123 139.416C39.6218 139.392 39.307 139.319 39.0407 139.221C37.5398 138.734 36.4261 137.42 36.184 135.837C35.8935 135.74 35.603 135.691 35.3125 135.642C35.5062 137.809 37.0556 139.586 39.0891 140.122C39.3554 140.195 39.646 140.244 39.9365 140.268C40.0817 140.292 40.227 140.292 40.348 140.292C40.4933 140.292 40.6627 140.292 40.808 140.268C40.808 140.146 40.7838 140 40.7838 139.854C40.7838 139.708 40.7838 139.562 40.808 139.416C40.6385 139.44 40.4933 139.44 40.348 139.44Z" fill="black"/>
<path d="M45.3836 134.791C45.1657 132.162 42.9868 130.117 40.348 130.117C37.685 130.117 35.5062 132.186 35.3125 134.791C35.603 134.816 35.8935 134.864 36.1598 134.937C36.3051 132.722 38.1208 130.969 40.3722 130.969C42.5995 130.969 44.4394 132.722 44.5604 134.937C44.5604 135.035 44.5846 135.108 44.5846 135.205C44.5846 135.424 44.5604 135.643 44.5362 135.838C44.2941 137.421 43.1805 138.711 41.728 139.222C41.7037 139.441 41.6795 139.636 41.6795 139.855C41.6795 139.953 41.6795 140.026 41.7037 140.123C43.7373 139.587 45.2625 137.81 45.4562 135.643C45.4804 135.497 45.4804 135.351 45.4804 135.205C45.4078 135.059 45.3836 134.937 45.3836 134.791Z" fill="black"/>
<path d="M50.0315 140.123C49.8863 142.338 48.0706 144.091 45.8191 144.091C43.5918 144.091 41.7519 142.338 41.6067 140.123C41.6067 140.026 41.5825 139.953 41.5825 139.855C41.5825 139.636 41.6067 139.417 41.6309 139.222C41.873 137.64 42.9866 136.349 44.4634 135.838C44.4876 135.643 44.5118 135.424 44.5118 135.205C44.5118 135.108 44.5118 135.035 44.4876 134.937C42.454 135.473 40.9288 137.25 40.7352 139.417C40.7352 139.563 40.7109 139.709 40.7109 139.855C40.7109 140.001 40.7109 140.123 40.7352 140.269C40.9288 142.898 43.1077 144.943 45.7707 144.943C48.4337 144.943 50.6125 142.874 50.8062 140.269C50.5883 140.22 50.2978 140.196 50.0315 140.123Z" fill="black"/>
</svg>
