<svg width="62" height="145" viewBox="0 0 62 145" fill="none" xmlns="http://www.w3.org/2000/svg">
<path d="M0.632812 104.518H2.01274V114.086H6.56408V115.254H0.632812V104.518Z" fill="black"/>
<path d="M10.0948 115.254H8.71484V104.518H10.0948V115.254Z" fill="black"/>
<path d="M18.5947 110.215H14.4307V114.086H19.6115V115.254H13.0508V104.518H19.6115V105.686H14.4307V109.07H18.5947V110.215Z" fill="black"/>
<path d="M24.6745 105.686H21.2852V104.518H29.4437V105.686H26.0544V115.254H24.6745V105.686Z" fill="black"/>
<path d="M32.7822 104.517V110.871C32.7822 113.281 33.9201 113.963 35.4452 113.963C37.1399 113.963 38.2293 113.232 38.2293 110.871V104.517H39.7303V110.773C39.7303 114.084 37.8904 115.423 35.3968 115.423C33.0485 115.423 31.2812 114.157 31.2812 110.822V104.492H32.7822V104.517Z" fill="black"/>
<path d="M45.461 115.254L41.5391 104.518H42.4348C42.8948 104.518 43.3063 104.81 43.4758 105.248L45.0978 109.801C45.6062 111.261 46.0662 112.552 46.3809 113.818H46.4051C46.7441 112.576 47.2524 111.213 47.7851 109.825L49.5523 105.224C49.7218 104.785 50.1333 104.518 50.5691 104.518H51.4649L47.1556 115.254H45.461Z" fill="black"/>
<path d="M57.7895 111.237L56.6033 107.707C56.337 107.001 56.1675 106.368 55.9738 105.735H55.9496C55.7802 106.368 55.5865 107.025 55.3444 107.683L54.1582 111.213H57.7895V111.237ZM53.8676 112.308L52.633 115.254H51.0352L55.1023 104.518H56.9664L61.0578 115.254H59.4116L58.1285 112.308H53.8676Z" fill="black"/>
<path d="M27.0407 19.7932H32.8993V89.9094H27.0407V19.7932ZM45.706 6.37862V89.9337H39.8474V12.8059H38.298H33.4561V0H26.5081V12.8059H21.0126H20.0926V89.9094H14.2098V6.37862H7.26172V96.921H9.39213H14.2098H45.706H47.1344H52.6541V6.37862H45.706Z" fill="black"/>
<path d="M29.8744 123.823C33.4332 123.823 36.3383 126.695 36.4351 130.25C36.7256 130.153 37.0162 130.08 37.3309 130.031C37.113 126.062 33.869 122.922 29.8744 122.922C25.9283 122.922 22.6843 126.014 22.418 129.933C22.7327 129.958 23.0232 129.982 23.3137 130.031C23.5316 126.574 26.3883 123.823 29.8744 123.823Z" fill="black"/>
<path d="M39.9512 130.956C39.6607 130.907 39.346 130.858 39.0312 130.834C39.2249 134.364 41.8153 137.261 45.2046 137.846C45.2046 137.724 45.2288 137.578 45.2288 137.432C45.2288 137.261 45.2288 137.091 45.2046 136.92C42.3721 136.336 40.1691 133.926 39.9512 130.956Z" fill="black"/>
<path d="M23.3211 130.031C23.3211 130.177 23.2969 130.299 23.2969 130.445C23.2969 130.616 23.2969 130.786 23.3211 130.956C26.1778 131.516 28.3566 133.951 28.5987 136.921C28.8892 136.97 29.2039 137.019 29.5187 137.043C29.325 133.513 26.7104 130.616 23.3211 130.031Z" fill="black"/>
<path d="M22.0307 144.054C18.4719 144.054 15.5426 141.181 15.47 137.627C15.1795 137.724 14.8889 137.797 14.5742 137.846C14.7679 141.814 18.0361 144.955 22.0307 144.955C26.001 144.955 29.2208 141.863 29.4871 137.943C29.1724 137.919 28.8819 137.895 28.5914 137.846C28.3977 141.303 25.541 144.054 22.0307 144.054Z" fill="black"/>
<path d="M20.707 130.956C21.1428 130.859 21.5786 130.81 22.0385 130.81C22.1596 130.81 22.3048 130.81 22.4259 130.81C22.4259 130.688 22.4259 130.542 22.4259 130.421C22.4259 130.25 22.4259 130.104 22.4259 129.934C22.3048 129.934 22.1596 129.934 22.0385 129.934C21.5786 129.934 21.1428 129.982 20.707 130.055C20.707 130.177 20.707 130.323 20.707 130.445C20.7312 130.615 20.7312 130.786 20.707 130.956Z" fill="black"/>
<path d="M19.7863 131.224C19.8105 130.956 19.8347 130.688 19.8347 130.42C19.8347 130.372 19.8347 130.299 19.8347 130.25C16.9538 131.151 14.8234 133.756 14.6055 136.896C14.9202 136.823 15.2349 136.75 15.5254 136.629C15.8159 134.145 17.5106 132.076 19.7863 131.224Z" fill="black"/>
<path d="M20.7301 130.031C20.5364 126.062 17.2682 122.922 13.2736 122.922C9.13385 122.922 5.79297 126.282 5.79297 130.445C5.79297 134.584 9.13385 137.968 13.2736 137.968C13.7336 137.968 14.1694 137.919 14.6051 137.846C14.6051 137.724 14.6051 137.578 14.6051 137.456C14.6051 137.286 14.6051 137.116 14.6294 136.921C14.1936 137.018 13.7578 137.067 13.2978 137.067C9.66645 137.067 6.71292 134.097 6.71292 130.445C6.71292 126.793 9.66645 123.823 13.2978 123.823C16.8566 123.823 19.7859 126.695 19.8586 130.25C19.8586 130.299 19.8586 130.372 19.8586 130.42C19.8586 130.688 19.8343 130.956 19.8101 131.224C19.5196 133.731 17.825 135.801 15.5493 136.629C15.5251 136.896 15.5009 137.14 15.5009 137.432C15.5009 137.481 15.5009 137.554 15.5009 137.602C18.3818 136.702 20.5122 134.097 20.7301 130.956C20.7301 130.786 20.7543 130.615 20.7543 130.42C20.7301 130.299 20.7301 130.177 20.7301 130.031Z" fill="black"/>
<path d="M15.47 137.432C15.47 137.165 15.4942 136.897 15.5184 136.629C15.2279 136.751 14.9131 136.824 14.5984 136.897C14.5984 137.067 14.5742 137.238 14.5742 137.432C14.5742 137.554 14.5742 137.7 14.5742 137.822C14.8889 137.773 15.1795 137.7 15.47 137.603C15.47 137.554 15.47 137.481 15.47 137.432Z" fill="black"/>
<path d="M22.418 130.834C22.7327 130.859 23.0232 130.883 23.3379 130.956C23.3137 130.786 23.3137 130.615 23.3137 130.445C23.3137 130.299 23.3137 130.177 23.3379 130.031C23.0232 129.982 22.7327 129.934 22.418 129.934C22.418 130.104 22.418 130.25 22.418 130.421C22.418 130.567 22.418 130.688 22.418 130.834Z" fill="black"/>
<path d="M38.6674 144.054C35.1086 144.054 32.2035 141.181 32.1067 137.627C31.8162 137.724 31.5257 137.797 31.2109 137.846C31.4288 141.814 34.6729 144.955 38.6674 144.955C42.6135 144.955 45.8575 141.863 46.1239 137.943C45.8091 137.919 45.5186 137.895 45.2281 137.846C45.0102 141.303 42.1535 144.054 38.6674 144.054Z" fill="black"/>
<path d="M37.3359 130.956C37.7717 130.859 38.2075 130.834 38.6432 130.834C38.7643 130.834 38.9095 130.834 39.0306 130.834C39.0306 130.713 39.0306 130.567 39.0306 130.445C39.0306 130.274 39.0306 130.104 39.0548 129.934C38.9337 129.934 38.7885 129.934 38.6674 129.934C38.2317 129.934 37.7717 129.982 37.3601 130.055C37.3601 130.177 37.3601 130.323 37.3601 130.445C37.3601 130.615 37.3601 130.786 37.3359 130.956Z" fill="black"/>
<path d="M36.4159 131.224C36.4401 130.956 36.4644 130.713 36.4644 130.445C36.4644 130.372 36.4644 130.323 36.4644 130.25C33.5592 131.151 31.4288 133.756 31.2109 136.921C31.5257 136.848 31.8404 136.775 32.1309 136.653C32.4214 134.145 34.1403 132.052 36.4159 131.224Z" fill="black"/>
<path d="M36.4586 130.421C36.4586 130.689 36.4344 130.956 36.4102 131.2C36.7007 131.102 37.0154 131.005 37.3301 130.932C37.3301 130.762 37.3543 130.591 37.3543 130.421C37.3543 130.275 37.3543 130.153 37.3543 130.031C37.0396 130.08 36.7491 130.153 36.4586 130.25C36.4586 130.299 36.4586 130.372 36.4586 130.421Z" fill="black"/>
<path d="M36.4109 131.224C36.1204 133.731 34.4258 135.825 32.1259 136.653C31.8354 136.75 31.5207 136.847 31.2059 136.92C30.7702 137.018 30.3344 137.042 29.8986 137.042C29.7776 137.042 29.6323 137.042 29.5113 137.042C29.1966 137.018 28.9061 136.993 28.5913 136.92C25.7346 136.361 23.5558 133.926 23.3137 130.956C23.0232 130.883 22.7327 130.858 22.418 130.834C22.6116 134.364 25.202 137.261 28.5913 137.846C28.8818 137.894 29.1724 137.919 29.4871 137.943C29.6081 137.943 29.7534 137.943 29.8744 137.943C30.3102 137.943 30.7702 137.894 31.1817 137.821C31.4964 137.773 31.787 137.7 32.0775 137.602C34.9826 136.701 37.113 134.096 37.3309 130.931C37.0162 131.029 36.7014 131.102 36.4109 131.224Z" fill="black"/>
<path d="M46.5072 122.922C42.5611 122.922 39.3171 126.014 39.0508 129.933C39.3655 129.958 39.656 129.982 39.9465 130.031C40.1644 126.574 43.0211 123.823 46.5072 123.823C50.1386 123.823 53.0922 126.793 53.0922 130.445C53.0922 134.097 50.1386 137.067 46.5072 137.067C46.3862 137.067 46.2651 137.067 46.1199 137.067C45.8052 137.042 45.5147 137.018 45.1999 136.945C45.2241 137.116 45.2241 137.286 45.2241 137.456C45.2241 137.602 45.2241 137.724 45.1999 137.87C45.4904 137.919 45.781 137.968 46.0957 137.968C46.2167 137.968 46.362 137.968 46.483 137.968C50.5986 137.968 53.9637 134.608 53.9637 130.445C53.9879 126.282 50.6228 122.922 46.5072 122.922Z" fill="black"/>
<path d="M39.9512 130.031C39.6607 129.982 39.3702 129.958 39.0555 129.934C39.0555 130.104 39.0312 130.274 39.0312 130.445C39.0312 130.567 39.0312 130.713 39.0312 130.834C39.346 130.859 39.6365 130.883 39.9512 130.956C42.8079 131.516 44.9867 133.951 45.2288 136.921C45.5193 136.97 45.834 137.018 46.1488 137.043C45.9551 133.512 43.3405 130.615 39.9512 130.031Z" fill="black"/>
</svg>
