<svg width="500" height="500" viewBox="0 0 500 500" fill="none" xmlns="http://www.w3.org/2000/svg">
<rect width="500" height="500" fill="#252525"/>
<path d="M217.361 173.249C225.482 177.395 232.612 183.157 238.746 190.532C244.877 197.91 249.727 206.656 253.294 216.766C256.857 226.879 258.64 237.902 258.64 249.838C258.64 261.775 256.857 272.801 253.294 282.911C249.727 293.024 244.879 301.77 238.746 309.144C232.612 316.523 225.482 322.323 217.361 326.55C209.237 330.778 200.7 332.892 191.749 332.892C182.798 332.892 174.257 330.818 166.136 326.676C158.011 322.534 150.882 316.73 144.751 309.27C138.617 301.81 133.725 293.024 130.08 282.911C126.432 272.801 124.61 261.775 124.61 249.838C124.61 237.902 126.432 226.879 130.08 216.766C133.725 206.656 138.617 197.91 144.751 190.532C150.882 183.157 158.011 177.395 166.136 173.249C174.257 169.107 182.796 167.033 191.749 167.033C200.702 167.033 209.237 169.107 217.361 173.249ZM173.099 178.844C167.295 182.244 162.239 187.218 157.93 193.764C153.617 200.315 150.221 208.312 147.735 217.761C145.249 227.209 144.005 237.904 144.005 249.838C144.005 261.773 145.249 272.467 147.735 281.916C150.221 291.364 153.617 299.322 157.93 305.788C162.239 312.253 167.293 317.187 173.099 320.583C178.899 323.983 185.198 325.681 191.998 325.681C198.797 325.681 204.804 323.983 210.522 320.583C216.241 317.187 221.255 312.213 225.566 305.663C229.875 299.117 233.275 291.159 235.761 281.79C238.247 272.427 239.491 261.773 239.491 249.836C239.491 237.9 238.247 227.207 235.761 217.759C233.275 208.31 229.875 200.313 225.566 193.762C221.253 187.216 216.155 182.242 210.274 178.842C204.388 175.447 198.128 173.745 191.5 173.745C184.872 173.745 178.899 175.447 173.099 178.842V178.844Z" fill="#F2F1E9"/>
<path d="M273.815 216.766C277.378 206.656 282.27 197.91 288.486 190.532C294.702 183.157 301.954 177.395 310.245 173.249C318.534 169.107 327.484 167.033 337.102 167.033C341.244 167.033 345.183 167.367 348.913 168.028C352.643 168.693 356.039 169.481 359.108 170.391C362.173 171.304 364.741 172.3 366.817 173.375C368.887 174.455 370.338 175.407 371.168 176.235C371.996 177.23 372.661 179.965 373.156 184.441C373.654 188.918 373.903 194.97 373.903 202.594C373.903 204.749 373.156 205.826 371.665 205.826C370.006 205.826 368.931 204.501 368.433 201.847C367.935 199.198 366.606 195.966 364.454 192.15C357.822 179.883 348.123 173.749 335.36 173.749C328.728 173.749 322.554 175.49 316.836 178.972C311.117 182.453 306.099 187.427 301.792 193.892C297.479 200.356 294.083 208.314 291.597 217.765C289.111 227.213 287.867 237.907 287.867 249.842C287.867 260.95 289.111 271.145 291.597 280.428C294.083 289.716 297.523 297.711 301.917 304.425C306.308 311.138 311.406 316.361 317.21 320.091C323.01 323.821 329.228 325.686 335.86 325.686C343.818 325.686 350.282 323.367 355.256 318.724C360.23 314.084 364.371 307.122 367.69 297.836C369.016 294.192 369.886 291.332 370.302 289.258C370.714 287.188 371.584 286.149 372.913 286.149C374.569 286.149 375.399 287.56 375.399 290.376C375.399 298.668 375.276 305.091 375.027 309.648C374.778 314.209 374.157 317.231 373.162 318.724C372.167 320.217 370.509 321.793 368.188 323.449C365.865 325.109 363.047 326.643 359.733 328.049C356.415 329.456 352.685 330.617 348.543 331.53C344.397 332.44 339.839 332.898 334.867 332.898C325.418 332.898 316.629 330.824 308.508 326.681C300.383 322.539 293.339 316.735 287.372 309.275C281.404 301.815 276.761 293.03 273.447 282.916C270.129 272.807 268.473 261.78 268.473 249.844C268.473 237.907 270.252 226.884 273.819 216.771L273.815 216.766Z" fill="#F2F1E9"/>
</svg>
