<svg width="500" height="500" viewBox="0 0 500 500" fill="none" xmlns="http://www.w3.org/2000/svg">
<rect width="500" height="500" fill="#252525"/>
<path d="M256.153 131.358C254.111 131.253 252.051 131.2 249.991 131.2C247.931 131.2 245.871 131.253 243.829 131.358V304.567C216.451 301.485 195.076 278.208 195.076 250.018C195.076 227.691 208.475 208.445 227.666 199.87L222.648 188.619C199.161 199.113 182.752 222.673 182.752 250.018C182.752 285.004 209.619 313.828 243.829 316.963V356.316C187.981 353.111 143.525 306.68 143.525 250.035C143.525 206.738 169.512 169.409 206.697 152.787L201.679 141.536C160.198 160.059 131.2 201.684 131.2 250C131.2 313.441 181.185 365.419 243.829 368.641C245.871 368.747 247.931 368.8 249.991 368.8C252.051 368.8 254.111 368.747 256.153 368.641V195.451C283.532 198.532 304.906 221.81 304.906 250C304.906 272.327 291.507 291.572 272.316 300.147L277.334 311.398C300.821 300.904 317.23 277.327 317.23 250C317.23 215.013 290.345 186.189 256.153 183.055V143.719C312.001 146.924 356.458 193.356 356.458 250C356.458 293.298 330.471 330.626 293.286 347.248L298.303 358.499C339.802 339.958 368.8 298.316 368.8 250C368.8 186.559 318.815 134.581 256.153 131.358Z" fill="#F6F6F6"/>
</svg>
