<svg width="398" height="75" viewBox="0 0 398 75" fill="none" xmlns="http://www.w3.org/2000/svg">
<g clip-path="url(#clip0_448_7116)">
<path d="M24.8721 72.0115H2.48388V68.9484C3.19133 68.8969 3.95918 68.8283 4.76153 68.7511C5.57251 68.6739 6.23683 68.5623 6.7631 68.4079C7.63448 68.1247 8.29016 67.6357 8.72154 66.9493C9.16154 66.2629 9.36859 65.3448 9.36859 64.238V11.3595C9.36859 10.2441 9.12703 9.19731 8.65252 8.22777C8.16938 7.25823 7.53957 6.49461 6.7631 5.94549C6.21094 5.57655 5.18428 5.23335 3.70035 4.92447C2.21643 4.61559 1.01721 4.43541 0.111328 4.37535V1.39809L17.3749 0.377075L18.0306 1.07205V63.6889C18.0306 64.77 18.229 65.6537 18.6431 66.3401C19.04 67.0351 19.6957 67.5756 20.5929 67.9446C21.2745 68.2534 21.9561 68.4765 22.6204 68.6395C23.2847 68.7854 24.0353 68.8969 24.8721 68.9484V72.0115V72.0115ZM72.6683 71.1792C71.2102 71.7112 69.9334 72.1316 68.8291 72.4576C67.7248 72.7837 66.4824 72.9467 65.0847 72.9467C62.6691 72.9467 60.7365 72.3804 59.2957 71.2564C57.8549 70.1324 56.9318 68.4937 56.5263 66.3315H56.2416C54.2314 68.5537 52.0659 70.244 49.7537 71.4195C47.4502 72.5863 44.6635 73.1698 41.411 73.1698C37.9686 73.1698 35.1302 72.123 32.9129 70.0209C30.6957 67.9188 29.5914 65.1732 29.5914 61.7841C29.5914 60.0252 29.8416 58.4465 30.3333 57.0651C30.8251 55.6752 31.5757 54.4311 32.5678 53.3157C33.3357 52.3976 34.3624 51.5653 35.6306 50.8446C36.9075 50.1153 38.098 49.5405 39.211 49.1115C40.6086 48.5795 43.4384 47.61 47.7004 46.1943C51.9624 44.77 54.844 43.6632 56.3279 42.8566V38.2835C56.3279 37.8888 56.2416 37.108 56.0777 35.9669C55.9051 34.8258 55.5428 33.7447 54.982 32.7237C54.3608 31.5825 53.4894 30.5958 52.3592 29.7378C51.2204 28.8884 49.6243 28.468 47.5451 28.468C46.113 28.468 44.793 28.7082 43.5592 29.1887C42.3341 29.6692 41.48 30.1668 40.9796 30.6988C40.9796 31.3165 41.1263 32.226 41.4196 33.4186C41.7216 34.6284 41.8682 35.7352 41.8682 36.7563C41.8682 37.8459 41.3765 38.824 40.4016 39.7164C39.4267 40.6173 38.0722 41.0634 36.3294 41.0634C34.7765 41.0634 33.6376 40.5143 32.9043 39.4246C32.1796 38.3264 31.8173 37.0995 31.8173 35.7438C31.8173 34.3882 32.3176 32.9639 33.3271 31.6769C34.3365 30.3727 35.6478 29.223 37.2612 28.202C38.6502 27.344 40.3498 26.6147 42.3341 26.0055C44.3098 25.4135 46.251 25.1046 48.1404 25.1046C50.7459 25.1046 53.0236 25.2848 54.9561 25.6366C56.8973 25.9884 58.6573 26.752 60.2447 27.9274C61.8236 29.0686 63.0314 30.613 63.851 32.5778C64.6706 34.5426 65.0761 37.0566 65.0761 40.1368C65.0761 44.5555 65.033 48.468 64.9381 51.8742C64.8432 55.2805 64.7914 59.0128 64.7914 63.054C64.7914 64.2552 65.0071 65.2161 65.4212 65.9197C65.844 66.6404 66.491 67.2324 67.3538 67.7301C67.811 68.0046 68.553 68.1676 69.5624 68.1934C70.5718 68.2277 71.6071 68.2363 72.6597 68.2363V71.1964L72.6683 71.1792ZM56.4314 46.752C53.8 47.5242 51.4792 48.2792 49.5036 49.0257C47.5192 49.7635 45.673 50.6902 43.9647 51.8056C42.4118 52.8523 41.1867 54.105 40.2894 55.5379C39.3922 56.9707 38.9435 58.6867 38.9435 60.6601C38.9435 63.2256 39.6165 65.1217 40.9624 66.3229C42.3082 67.5327 44.0251 68.1247 46.1043 68.1247C48.3043 68.1247 50.2541 67.5928 51.9279 66.5288C53.593 65.4649 55.0165 64.2037 56.164 62.7536L56.44 46.752H56.4314ZM122.38 49.1544C122.38 56.0012 120.214 61.7584 115.866 66.4173C111.535 71.0677 106.488 73.4014 100.742 73.4014C98.2315 73.4014 95.7554 73.0153 93.3224 72.2431C90.8981 71.4795 88.6032 70.4413 86.4636 69.1372L83.0212 74.4653L80.1397 73.8133C80.295 71.531 80.3985 68.7854 80.4589 65.5765C80.5365 62.359 80.5538 59.2616 80.5538 56.2586V11.0763C80.5538 10.0296 80.3208 8.97423 79.8377 7.92747C79.3632 6.88071 78.742 6.11709 77.9914 5.65377C77.4048 5.25909 76.4212 4.95879 75.0408 4.76145C73.6691 4.55553 72.5475 4.42683 71.7106 4.36677V1.39809L88.5601 0.377075L89.2158 1.07205V31.1621L89.535 31.2479C91.4589 29.2144 93.5554 27.6786 95.8416 26.6662C98.1193 25.6537 100.362 25.1475 102.562 25.1475C108.213 25.1475 112.924 27.3697 116.711 31.8056C120.49 36.25 122.38 42.033 122.38 49.1629V49.1544ZM112.657 49.489C112.657 47.1981 112.406 44.8729 111.915 42.4963C111.423 40.1196 110.646 38.0518 109.585 36.2929C108.533 34.5083 107.161 33.0583 105.444 31.9429C103.744 30.8275 101.691 30.2784 99.3099 30.2784C97.1358 30.2784 95.2377 30.7074 93.6071 31.5482C91.9766 32.3976 90.5185 33.5473 89.2158 34.9974V61.561C89.3969 62.2989 89.7593 63.1569 90.3028 64.1522C90.8377 65.1389 91.5883 66.0741 92.5028 66.975C93.4432 67.833 94.4958 68.5366 95.6691 69.0771C96.8511 69.6176 98.2918 69.8922 100 69.8922C103.779 69.8922 106.842 68.0733 109.162 64.4353C111.492 60.7888 112.648 55.8124 112.648 49.489H112.657ZM171.211 71.1878C169.753 71.7197 168.476 72.1402 167.363 72.4662C166.268 72.7922 165.025 72.9553 163.628 72.9553C161.203 72.9553 159.271 72.389 157.83 71.265C156.389 70.141 155.475 68.5022 155.069 66.3401H154.793C152.774 68.5623 150.609 70.2526 148.305 71.428C145.993 72.5949 143.206 73.1783 139.945 73.1783C136.503 73.1783 133.673 72.1316 131.456 70.0295C129.23 67.9274 128.134 65.1818 128.134 61.7927C128.134 60.0338 128.384 58.4551 128.876 57.0737C129.368 55.6837 130.119 54.4396 131.111 53.3242C131.887 52.4062 132.905 51.5739 134.182 50.8532C135.459 50.1239 136.65 49.549 137.762 49.12C139.16 48.5881 141.99 47.6185 146.261 46.2028C150.523 44.7786 153.404 43.6717 154.888 42.8652V38.2921C154.888 37.8974 154.802 37.1166 154.629 35.9755C154.457 34.8343 154.094 33.7533 153.533 32.7322C152.912 31.5911 152.041 30.6044 150.911 29.7464C149.772 28.897 148.176 28.4766 146.088 28.4766C144.664 28.4766 143.336 28.7168 142.111 29.1973C140.886 29.6778 140.032 30.1754 139.54 30.7074C139.54 31.3251 139.686 32.2346 139.971 33.4272C140.273 34.637 140.411 35.7438 140.411 36.7648C140.411 37.8545 139.919 38.8326 138.953 39.7249C137.97 40.6258 136.615 41.072 134.872 41.072C133.319 41.072 132.181 40.5229 131.447 39.4332C130.714 38.335 130.352 37.108 130.352 35.7524C130.352 34.3968 130.852 32.9725 131.861 31.6855C132.871 30.3813 134.173 29.2316 135.795 28.2106C137.193 27.3526 138.884 26.6233 140.868 26.0141C142.853 25.4221 144.794 25.1132 146.683 25.1132C149.289 25.1132 151.566 25.2934 153.499 25.6452C155.432 25.9969 157.2 26.7606 158.779 27.936C160.358 29.0772 161.557 30.6216 162.385 32.5864C163.205 34.5512 163.628 37.0651 163.628 40.1454C163.628 44.5641 163.584 48.4765 163.49 51.8828C163.395 55.2891 163.343 59.0214 163.343 63.0625C163.343 64.2637 163.559 65.2247 163.981 65.9283C164.395 66.649 165.043 67.241 165.914 67.7386C166.38 68.0132 167.113 68.1762 168.123 68.202C169.123 68.2363 170.159 68.2448 171.22 68.2448V71.205L171.211 71.1878ZM154.966 46.7605C152.326 47.5327 150.013 48.2878 148.038 49.0342C146.053 49.7721 144.199 50.6988 142.499 51.8142C140.946 52.8609 139.721 54.1136 138.824 55.5465C137.918 56.9793 137.478 58.6953 137.478 60.6687C137.478 63.2341 138.151 65.1303 139.497 66.3315C140.851 67.5413 142.551 68.1333 144.639 68.1333C146.847 68.1333 148.788 67.6014 150.462 66.5374C152.136 65.4735 153.542 64.2123 154.698 62.7622L154.974 46.7605H154.966ZM156.648 19.1844L154.879 20.6602C151.687 18.1377 148.823 15.924 146.312 14.0279C143.802 12.1231 141.947 10.6817 140.73 9.69495C139.548 8.70825 138.72 7.91031 138.246 7.29255C137.762 6.66621 137.521 5.73957 137.521 4.46973C137.521 3.57741 137.883 2.74515 138.591 1.99011C139.307 1.24365 140.221 0.866135 141.334 0.866135C142.542 0.866135 143.586 1.14069 144.449 1.69839C145.312 2.24751 146.243 3.32859 147.235 4.93305C148.288 6.63189 149.53 8.57097 150.963 10.7331C152.386 12.9125 154.275 15.7267 156.639 19.1844H156.648ZM224.598 71.1964L208.551 72.2174L207.852 71.5653V67.3096L207.481 67.2153C205.859 68.9999 203.875 70.4671 201.511 71.6082C199.138 72.7493 196.697 73.3242 194.177 73.3242C191.658 73.3242 189.061 72.7408 186.646 71.591C184.213 70.4242 182.09 68.794 180.296 66.7005C178.467 64.5726 177.026 62.0072 175.956 59.0214C174.878 56.0269 174.352 52.7236 174.352 49.12C174.352 45.8082 174.921 42.685 176.06 39.7164C177.207 36.7563 178.795 34.1651 180.805 31.9515C182.694 29.8837 185.006 28.2363 187.75 26.9922C190.494 25.7653 193.289 25.1475 196.136 25.1475C198.276 25.1475 200.363 25.4135 202.425 25.9626C204.487 26.5032 206.265 27.1896 207.757 28.0218V12.0974C207.757 10.8018 207.533 9.61773 207.093 8.55381C206.661 7.48989 206.057 6.67479 205.272 6.10851C204.418 5.52507 203.236 5.10465 201.77 4.84725C200.294 4.58127 198.707 4.38393 196.999 4.26381V1.39809L215.798 0.377075L216.497 1.07205V62.5735C216.497 63.6545 216.704 64.5726 217.127 65.3276C217.549 66.0827 218.153 66.7262 218.956 67.2496C219.559 67.6185 220.396 67.8502 221.527 67.9446C222.639 68.0389 223.666 68.099 224.589 68.1247V71.1792L224.598 71.1964ZM207.757 63.1998V36.4903C207.507 35.6923 207.11 34.8258 206.549 33.9077C205.98 32.9725 205.29 32.1231 204.453 31.3594C203.556 30.5958 202.503 29.9523 201.295 29.4375C200.087 28.9313 198.681 28.6653 197.068 28.6653C195.213 28.6653 193.496 29.1458 191.934 30.1068C190.373 31.0677 188.992 32.4319 187.776 34.2252C186.637 35.9497 185.723 38.1548 185.058 40.8232C184.385 43.4916 184.057 46.4431 184.057 49.6777C184.057 52.2689 184.308 54.6284 184.799 56.7391C185.3 58.8498 186.137 60.8146 187.31 62.6421C188.397 64.3667 189.777 65.7566 191.468 66.8034C193.159 67.8502 195.161 68.3736 197.49 68.3736C199.975 68.3736 202.02 67.8416 203.642 66.7605C205.281 65.6709 206.653 64.4868 207.757 63.1912V63.1998ZM249.876 72.0372H227.73V68.9741C228.446 68.9227 229.179 68.8626 229.938 68.794C230.689 68.7339 231.353 68.6138 231.905 68.425C232.768 68.1419 233.424 67.6614 233.838 66.9664C234.261 66.2715 234.476 65.3706 234.476 64.2637V36.0956C234.476 35.1089 234.243 34.208 233.803 33.3929C233.346 32.5778 232.716 31.8828 231.914 31.3337C231.327 30.9733 230.473 30.6473 229.352 30.3899C228.239 30.1325 227.212 29.9609 226.272 29.9094V26.8549L242.474 25.8425L243.13 26.4946V63.6975C243.13 64.7785 243.337 65.6623 243.751 66.3744C244.165 67.0865 244.821 67.6099 245.718 67.9531C246.399 68.2191 247.055 68.4508 247.711 68.6224C248.358 68.794 249.083 68.9141 249.885 68.9656V72.0286L249.876 72.0372ZM244.061 7.85883C244.061 9.61773 243.466 11.1536 242.301 12.4577C241.145 13.7705 239.713 14.4311 238.005 14.4311C236.426 14.4311 235.054 13.8133 233.89 12.5521C232.725 11.308 232.147 9.88371 232.147 8.27925C232.147 6.57183 232.725 5.09607 233.89 3.83481C235.054 2.57355 236.426 1.93005 238.005 1.93005C239.782 1.93005 241.223 2.52207 242.362 3.71469C243.492 4.90731 244.061 6.28869 244.061 7.85883ZM294.877 61.3036C292.962 64.9501 290.382 67.8502 287.156 70.0038C283.929 72.1659 280.219 73.2384 276.043 73.2384C272.334 73.2384 269.116 72.5949 266.338 71.2993C263.56 70.0038 261.265 68.2363 259.487 66.0226C257.676 63.8004 256.347 61.2093 255.45 58.2577C254.561 55.2891 254.13 52.1574 254.13 48.8541C254.13 45.894 254.604 42.9853 255.545 40.1368C256.502 37.2796 257.883 34.7142 259.72 32.4319C261.48 30.2355 263.68 28.4766 266.294 27.1295C268.917 25.791 271.859 25.1218 275.12 25.1218C278.382 25.1218 281.341 25.6452 283.722 26.6919C286.112 27.7473 288.044 29.1801 289.537 30.9991C290.969 32.7237 292.022 34.7657 292.729 37.108C293.419 39.4504 293.764 41.9986 293.764 44.7442V47.7987H263.387C263.387 50.8017 263.672 53.5216 264.25 55.9669C264.819 58.4122 265.725 60.5572 266.976 62.4105C268.175 64.2037 269.763 65.6194 271.712 66.6576C273.68 67.6872 275.992 68.2105 278.692 68.2105C281.392 68.2105 283.834 67.567 285.844 66.28C287.846 64.993 289.77 62.6679 291.633 59.3302L294.877 61.3122V61.3036ZM284.593 43.912C284.593 42.1874 284.447 40.3427 284.153 38.3779C283.851 36.4045 283.385 34.7657 282.738 33.4358C282.022 32.0287 281.047 30.8704 279.796 29.9781C278.563 29.0857 276.967 28.6396 275.017 28.6396C271.756 28.6396 269.047 29.9866 266.89 32.6722C264.733 35.3577 263.568 39.1072 263.378 43.912H284.593V43.912ZM349.42 72.0458H327.006V68.9827C327.722 68.9312 328.498 68.8712 329.361 68.8025C330.215 68.7425 330.914 68.6224 331.475 68.4336C332.346 68.1505 332.985 67.67 333.407 66.975C333.822 66.28 334.037 65.3791 334.037 64.2637V40.806C334.037 37.5714 333.269 35.0746 331.716 33.3157C330.172 31.5568 328.3 30.673 326.1 30.673C324.452 30.673 322.942 30.9304 321.571 31.4367C320.216 31.9429 319.008 32.5692 317.938 33.3071C316.92 34.0192 316.101 34.7743 315.497 35.598C314.884 36.4131 314.444 37.0737 314.16 37.5714V63.8004C314.16 64.8557 314.384 65.7137 314.824 66.4001C315.264 67.078 315.902 67.6014 316.782 67.9789C317.429 68.2878 318.137 68.5108 318.905 68.6738C319.664 68.8197 320.44 68.9312 321.26 68.9827V72.0458H298.768V68.9827C299.493 68.9312 300.218 68.8712 300.994 68.8025C301.753 68.7425 302.409 68.6224 302.978 68.4336C303.841 68.1505 304.488 67.67 304.902 66.975C305.325 66.28 305.523 65.3791 305.523 64.2723V36.0956C305.523 35.0488 305.299 34.0793 304.859 33.2041C304.402 32.329 303.781 31.6083 302.978 31.0591C302.383 30.6902 301.684 30.4156 300.882 30.244C300.08 30.081 299.2 29.9523 298.268 29.9008V26.8464L313.547 25.8339L314.185 26.486V32.921H314.427C315.169 32.1831 316.101 31.2908 317.222 30.2526C318.335 29.223 319.379 28.3822 320.38 27.7301C321.527 26.9922 322.899 26.3745 324.478 25.8854C326.057 25.3963 327.834 25.1475 329.827 25.1475C334.244 25.1475 337.497 26.5117 339.628 29.2488C341.75 31.9772 342.803 35.6151 342.803 40.1368V63.8862C342.803 64.9673 343.01 65.8339 343.372 66.5031C343.752 67.1552 344.382 67.6786 345.287 68.0475C346.029 68.3478 346.668 68.5709 347.211 68.691C347.755 68.8111 348.506 68.9141 349.455 68.9656V72.0286L349.42 72.0458ZM397.087 71.2135C395.629 71.7455 394.352 72.1659 393.248 72.492C392.152 72.818 390.909 72.981 389.503 72.981C387.079 72.981 385.146 72.4147 383.714 71.2908C382.273 70.1668 381.35 68.528 380.936 66.3658H380.651C378.641 68.5881 376.484 70.2783 374.164 71.4538C371.851 72.6206 369.073 73.2041 365.812 73.2041C362.361 73.2041 359.531 72.1573 357.306 70.0552C355.106 67.9531 353.984 65.2075 353.984 61.8184C353.984 60.0595 354.234 58.4808 354.743 57.0994C355.235 55.7095 355.977 54.4654 356.969 53.35C357.754 52.4319 358.764 51.5997 360.04 50.8789C361.317 50.1496 362.508 49.5748 363.629 49.1458C365.027 48.6138 367.857 47.6443 372.136 46.2286C376.389 44.8043 379.271 43.6975 380.755 42.891V38.3178C380.755 37.9231 380.669 37.1424 380.505 36.0012C380.332 34.8601 379.97 33.779 379.409 32.758C378.788 31.6168 377.917 30.6301 376.786 29.7721C375.639 28.9227 374.043 28.5023 371.972 28.5023C370.531 28.5023 369.203 28.7425 367.995 29.223C366.761 29.7035 365.907 30.2011 365.415 30.7331C365.415 31.3509 365.553 32.2603 365.847 33.453C366.14 34.6627 366.287 35.7696 366.287 36.7906C366.287 37.8802 365.795 38.8584 364.82 39.7507C363.845 40.6516 362.491 41.0977 360.748 41.0977C359.204 41.0977 358.056 40.5486 357.323 39.459C356.607 38.3607 356.227 37.1338 356.227 35.7781C356.227 34.4225 356.736 32.9982 357.763 31.7112C358.755 30.4071 360.066 29.2573 361.68 28.2363C363.077 27.3783 364.76 26.649 366.753 26.0398C368.746 25.4478 370.678 25.1389 372.567 25.1389C375.173 25.1389 377.459 25.3191 379.392 25.6709C381.324 26.0227 383.084 26.7863 384.68 27.9618C386.259 29.1029 387.45 30.6473 388.269 32.6121C389.098 34.5769 389.512 37.0909 389.512 40.1711C389.512 44.5898 389.46 48.5023 389.374 51.9085C389.279 55.3148 389.219 59.0471 389.219 63.0883C389.219 64.2895 389.434 65.2504 389.857 65.954C390.28 66.6747 390.927 67.2667 391.789 67.7644C392.255 68.0389 392.989 68.202 393.99 68.2277C395.008 68.262 396.034 68.2706 397.087 68.2706V71.2307V71.2135ZM380.859 46.7863C378.21 47.5585 375.906 48.3135 373.922 49.06C371.938 49.7979 370.091 50.7245 368.375 51.8399C366.839 52.8867 365.605 54.1393 364.708 55.5722C363.802 57.0051 363.362 58.7211 363.362 60.6945C363.362 63.2599 364.035 65.1561 365.372 66.3573C366.735 67.567 368.444 68.1591 370.531 68.1591C372.723 68.1591 374.664 67.6271 376.338 66.5632C378.02 65.4993 379.418 64.238 380.582 62.788L380.867 46.7863H380.859ZM382.532 19.2102L380.755 20.6859C377.563 18.1634 374.698 15.9498 372.197 14.0536C369.686 12.1488 367.814 10.7074 366.615 9.72069C365.433 8.73399 364.604 7.93605 364.121 7.31829C363.638 6.69195 363.405 5.76531 363.405 4.49547C363.405 3.60315 363.767 2.77089 364.475 2.01585C365.182 1.26939 366.106 0.891875 367.218 0.891875C368.435 0.891875 369.479 1.16643 370.35 1.72413C371.213 2.27325 372.145 3.35433 373.137 4.95879C374.172 6.65763 375.423 8.59671 376.855 10.7589C378.288 12.9382 380.168 15.7524 382.532 19.2102V19.2102Z" fill="black"/>
</g>
<defs>
<clipPath id="clip0_448_7116">
<rect width="396.967" height="74.0883" fill="white" transform="translate(0.111328 0.377075)"/>
</clipPath>
</defs>
</svg>
