<svg width="290" height="83" viewBox="0 0 290 83" fill="none" xmlns="http://www.w3.org/2000/svg">
<path d="M100.251 45.9813C97.7892 44.6307 96.4937 43.5374 96.4937 41.9938C96.4937 40.0001 98.2426 38.7782 101.028 38.7782C104.267 38.7782 107.117 40.1288 107.117 40.1288L109.384 33.2472C109.384 33.2472 107.311 31.6394 101.157 31.6394C92.6072 31.6394 86.6479 36.5272 86.6479 43.3444C86.6479 47.2032 89.4332 50.1616 93.1254 52.284C96.105 53.9561 97.1414 55.1781 97.1414 56.9145C97.1414 58.7796 95.6516 60.2588 92.8663 60.2588C88.7207 60.2588 84.8342 58.1365 84.8342 58.1365L82.4375 65.018C82.4375 65.018 86.0649 67.3976 92.089 67.3976C100.898 67.3976 107.182 63.0886 107.182 55.371C107.311 51.1263 104.072 48.1679 100.251 45.9813Z" fill="black"/>
<path d="M135.362 31.5209C131.022 31.5209 127.654 33.579 124.998 36.6663L124.869 36.6019L128.626 17.0496H118.78L109.258 66.7666H119.039L122.278 49.7869C123.573 43.3552 126.877 39.4319 129.986 39.4319C132.188 39.4319 133.03 40.9112 133.03 43.0336C133.03 44.3843 132.901 45.9922 132.577 47.3429L128.885 66.8309H138.666L142.487 46.764C142.941 44.6416 143.2 42.1332 143.2 40.3966C143.329 34.8011 140.479 31.5209 135.362 31.5209Z" fill="black"/>
<path d="M165.478 31.5144C153.689 31.5144 145.852 42.0618 145.852 53.8311C145.852 61.3557 150.515 67.4655 159.325 67.4655C170.92 67.4655 178.693 57.1754 178.693 45.1488C178.757 38.1387 174.676 31.5144 165.478 31.5144ZM160.685 59.9408C157.317 59.9408 155.956 57.1111 155.956 53.5738C155.956 47.9786 158.871 38.9104 164.183 38.9104C167.681 38.9104 168.782 41.8688 168.782 44.7629C168.782 50.8084 165.867 59.9408 160.685 59.9408Z" fill="black"/>
<path d="M203.833 31.5144C197.226 31.5144 193.469 37.303 193.469 37.303H193.34L193.923 32.0933H185.243C184.79 35.6307 184.012 40.9691 183.235 45.0211L176.434 80.5245H186.215L188.935 66.1173H189.13C189.13 66.1173 191.138 67.4037 194.894 67.4037C206.424 67.4037 213.938 55.6979 213.938 43.8634C213.938 37.3673 211.023 31.5144 203.833 31.5144ZM194.506 60.1358C191.98 60.1358 190.49 58.7208 190.49 58.7208L192.109 49.652C193.275 43.6061 196.449 39.5541 199.817 39.5541C202.797 39.5541 203.704 42.3198 203.704 44.8925C203.704 51.1313 199.947 60.1358 194.506 60.1358Z" fill="black"/>
<path d="M227.915 17.5613C224.807 17.5613 222.281 20.0045 222.281 23.2192C222.281 26.1124 224.094 28.1056 226.879 28.1056H227.008C230.052 28.1056 232.707 26.0481 232.772 22.4476C232.836 19.5544 230.894 17.5613 227.915 17.5613Z" fill="black"/>
<path d="M214.199 66.7578H224.045L230.717 32.2859H220.806L214.199 66.7578Z" fill="black"/>
<path d="M255.579 32.2241H248.778L249.102 30.6163C249.685 27.272 251.628 24.3136 254.932 24.3136C256.681 24.3136 258.041 24.8281 258.041 24.8281L259.984 17.2391C259.984 17.2391 258.3 16.4031 254.673 16.4031C251.175 16.4031 247.742 17.3678 245.086 19.6187C241.718 22.4485 240.163 26.5003 239.386 30.6163L239.127 32.2241H234.592L233.167 39.5558H237.702L232.52 66.7603H242.301L247.483 39.5558H254.219L255.579 32.2241Z" fill="black"/>
<path d="M279.161 32.2859C279.161 32.2859 273.007 47.5913 270.286 55.9514H270.157C269.963 53.2504 267.76 32.2859 267.76 32.2859H257.461L263.356 63.9256C263.485 64.633 263.42 65.0831 263.161 65.5333C261.995 67.7198 260.117 69.842 257.85 71.3854C256.036 72.7358 253.963 73.5718 252.344 74.1506L255.064 82.3821C257.072 81.9319 261.153 80.3242 264.651 77.1088C269.121 72.9288 273.266 66.5622 277.476 57.8163L289.46 32.2859H279.161V32.2859Z" fill="black"/>
<path d="M48.6714 9.9028C48.6714 9.9028 47.7646 10.16 46.2748 10.6102C46.0157 9.77417 45.627 8.80947 45.1088 7.78046C43.4247 4.5648 40.8984 2.82834 37.9188 2.82834C37.7245 2.82834 37.5301 2.82834 37.271 2.89265C37.2063 2.76403 37.0767 2.69971 37.0119 2.57109C35.7164 1.1562 34.0323 0.513064 32.0243 0.577377C28.1378 0.706003 24.2513 3.47147 21.1421 8.42359C18.9397 11.8965 17.2556 16.2698 16.8021 19.6784C12.3327 21.029 9.22346 21.9937 9.15869 22.058C6.89156 22.7654 6.82679 22.8298 6.56769 24.9521C6.37336 26.5599 0.414062 71.8364 0.414062 71.8364L49.384 80.2615V9.83848C48.9953 9.83848 48.801 9.9028 48.6714 9.9028ZM37.3358 13.3757C34.7448 14.1475 31.8947 15.0479 29.1094 15.8839C29.8867 12.8612 31.4413 9.83848 33.255 7.84477C33.9675 7.13733 34.9391 6.30125 36.0403 5.78675C37.1415 8.10202 37.4006 11.2534 37.3358 13.3757ZM32.0243 3.21422C32.9311 3.21422 33.7084 3.40716 34.3562 3.79304C33.3198 4.30754 32.2834 5.14362 31.3117 6.10831C28.8503 8.74516 26.9718 12.8612 26.1945 16.7843C23.8626 17.4918 21.5307 18.1992 19.3931 18.8423C20.8182 12.6683 26.065 3.34285 32.0243 3.21422ZM24.5104 38.5865C24.7695 42.7025 35.7164 43.6029 36.3642 53.3142C36.8176 60.9675 32.2834 66.1769 25.7411 66.5627C17.8385 67.0773 13.4986 62.4467 13.4986 62.4467L15.1828 55.3722C15.1828 55.3722 19.5227 58.6522 23.0205 58.395C25.2877 58.2663 26.1297 56.4013 26.065 55.115C25.7411 49.7127 16.8021 50.0343 16.2192 41.159C15.701 33.6987 20.6239 26.174 31.5061 25.4666C35.7164 25.2093 37.854 26.2384 37.854 26.2384L35.3926 35.4995C35.3926 35.4995 32.6072 34.2132 29.3037 34.4704C24.5104 34.792 24.4456 37.8147 24.5104 38.5865ZM39.9268 12.6039C39.9268 10.6746 39.6677 7.90909 38.7609 5.59381C41.7405 6.17263 43.1656 9.4526 43.8133 11.4463C42.6474 11.7679 41.3519 12.1538 39.9268 12.6039Z" fill="black"/>
<path d="M50.8906 80.1357L71.23 75.1195C71.23 75.1195 62.4854 16.4039 62.4206 16.0181C62.3558 15.6322 62.0319 15.3749 61.7081 15.3749C61.3842 15.3749 55.684 15.2463 55.684 15.2463C55.684 15.2463 52.1861 11.9022 50.8906 10.616V80.1357Z" fill="black"/>
</svg>
