<svg width="220" height="63" viewBox="0 0 220 63" fill="none" xmlns="http://www.w3.org/2000/svg">
<g clip-path="url(#clip0_290_15057)">
<path d="M76.1106 34.9496C74.2374 33.9145 73.2515 33.0765 73.2515 31.8934C73.2515 30.3653 74.5825 29.4287 76.7021 29.4287C79.1668 29.4287 81.3358 30.4639 81.3358 30.4639L83.0611 25.1894C83.0611 25.1894 81.4837 23.957 76.8007 23.957C70.2939 23.957 65.7588 27.7034 65.7588 32.9286C65.7588 35.8862 67.8785 38.1538 70.6882 39.7805C72.9558 41.0621 73.7445 41.9987 73.7445 43.3297C73.7445 44.7592 72.6107 45.893 70.4911 45.893C67.3362 45.893 64.3786 44.2662 64.3786 44.2662L62.5547 49.5407C62.5547 49.5407 65.3152 51.3646 69.8995 51.3646C76.6035 51.3646 81.3851 48.0619 81.3851 42.1466C81.4837 38.8932 79.0189 36.6256 76.1106 34.9496Z" fill="white"/>
<path d="M102.828 23.8588C99.5257 23.8588 96.9624 25.4362 94.9414 27.8023L94.8428 27.753L97.7019 12.7676H90.2091L82.9629 50.872H90.4063L92.871 37.8583C93.8569 32.9289 96.3709 29.922 98.737 29.922C100.413 29.922 101.054 31.0557 101.054 32.6824C101.054 33.7176 100.955 34.95 100.709 35.9851L97.899 50.9213H105.342L108.251 35.5415C108.596 33.9148 108.793 31.9923 108.793 30.6614C108.892 26.3728 106.723 23.8588 102.828 23.8588Z" fill="white"/>
<path d="M125.75 23.8584C116.778 23.8584 110.813 31.9426 110.813 40.9635C110.813 46.7309 114.363 51.4139 121.067 51.4139C129.89 51.4139 135.806 43.5268 135.806 34.3088C135.855 28.9357 132.749 23.8584 125.75 23.8584ZM122.102 45.6464C119.539 45.6464 118.503 43.4775 118.503 40.7663C118.503 36.4777 120.722 29.5272 124.764 29.5272C127.426 29.5272 128.264 31.7948 128.264 34.013C128.264 38.6467 126.045 45.6464 122.102 45.6464Z" fill="white"/>
<path d="M154.932 23.8584C149.904 23.8584 147.044 28.2949 147.044 28.2949H146.946L147.39 24.302H140.784C140.439 27.0132 139.847 31.1046 139.256 34.2102L134.08 61.4206H141.524L143.594 50.3787H143.742C143.742 50.3787 145.27 51.3646 148.129 51.3646C156.903 51.3646 162.621 42.393 162.621 33.3229C162.621 28.3442 160.403 23.8584 154.932 23.8584ZM147.833 45.7943C145.911 45.7943 144.777 44.7098 144.777 44.7098L146.009 37.7594C146.897 33.1257 149.312 30.0202 151.875 30.0202C154.143 30.0202 154.833 32.1398 154.833 34.1116C154.833 38.8931 151.974 45.7943 147.833 45.7943Z" fill="white"/>
<path d="M173.27 13.1621C170.904 13.1621 168.981 15.0353 168.981 17.5C168.981 19.7182 170.362 21.2464 172.481 21.2464H172.58C174.897 21.2464 176.918 19.6689 176.967 16.9085C177.016 14.6902 175.538 13.1621 173.27 13.1621Z" fill="white"/>
<path d="M162.819 50.8719H170.312L175.389 24.4502H167.847L162.819 50.8719Z" fill="white"/>
<path d="M194.318 24.4008H189.142L189.389 23.1684C189.832 20.6051 191.311 18.3376 193.825 18.3376C195.156 18.3376 196.191 18.732 196.191 18.732L197.67 12.9152C197.67 12.9152 196.389 12.2744 193.628 12.2744C190.966 12.2744 188.354 13.0138 186.333 14.7391C183.769 16.9081 182.586 20.0136 181.995 23.1684L181.798 24.4008H178.347L177.262 30.0203H180.713L176.77 50.8718H184.213L188.156 30.0203H193.283L194.318 24.4008Z" fill="white"/>
<path d="M212.261 24.4502C212.261 24.4502 207.578 36.1822 205.508 42.5905H205.409C205.262 40.5201 203.586 24.4502 203.586 24.4502H195.748L200.234 48.7029C200.332 49.2452 200.283 49.5902 200.086 49.9353C199.198 51.6113 197.769 53.238 196.044 54.4211C194.663 55.4562 193.086 56.0971 191.854 56.5407L193.924 62.8504C195.452 62.5053 198.558 61.273 201.219 58.8083C204.621 55.6041 207.776 50.724 210.98 44.02L220.099 24.4502H212.261Z" fill="white"/>
<path d="M36.8726 7.29555C36.8726 7.29555 36.1825 7.49272 35.0487 7.83778C34.8516 7.19696 34.5558 6.45754 34.1614 5.66884C32.8798 3.20413 30.9573 1.87318 28.6898 1.87318C28.5419 1.87318 28.394 1.87318 28.1968 1.92248C28.1475 1.82389 28.049 1.7746 27.9997 1.67601C27.0138 0.591535 25.7321 0.0985934 24.204 0.147888C21.2464 0.246476 18.2887 2.36613 15.9226 6.16178C14.2466 8.82367 12.9649 12.1757 12.6199 14.7883C9.21857 15.8234 6.85245 16.5629 6.80315 16.6122C5.07786 17.1544 5.02856 17.2037 4.83139 18.8304C4.6835 20.0627 0.148438 54.7659 0.148438 54.7659L37.4149 61.2234V7.24625C37.1191 7.24625 36.9712 7.29555 36.8726 7.29555ZM28.2461 9.95743C26.2744 10.549 24.1054 11.2391 21.9858 11.8799C22.5773 9.56308 23.7604 7.24625 25.1406 5.71813C25.6828 5.1759 26.4222 4.53507 27.2602 4.14072C28.0982 5.91531 28.2954 8.33072 28.2461 9.95743ZM24.204 2.16895C24.8941 2.16895 25.4857 2.31683 25.9786 2.6126C25.1899 3.00695 24.4012 3.64778 23.6618 4.38719C21.7886 6.40825 20.3591 9.56308 19.7675 12.57C17.9929 13.1123 16.2183 13.6545 14.5916 14.1474C15.6761 9.4152 19.6689 2.26754 24.204 2.16895ZM18.4859 29.2808C18.6831 32.4356 27.0138 33.1257 27.5067 40.5691C27.8518 46.4351 24.4012 50.428 19.4225 50.7237C13.4086 51.1181 10.1059 47.5689 10.1059 47.5689L11.3875 42.1465C11.3875 42.1465 14.6902 44.6605 17.3521 44.4634C19.0774 44.3648 19.7182 42.9352 19.6689 41.9494C19.4225 37.8087 12.6199 38.0551 12.1762 31.2525C11.7819 25.5344 15.5282 19.767 23.8097 19.2247C27.0138 19.0276 28.6405 19.8163 28.6405 19.8163L26.7673 26.9146C26.7673 26.9146 24.6477 25.9288 22.1337 26.1259C18.4859 26.3724 18.4366 28.6892 18.4859 29.2808ZM30.2179 9.3659C30.2179 7.88708 30.0207 5.76743 29.3306 3.99284C31.5981 4.43648 32.6826 6.95049 33.1756 8.47861C32.2883 8.72508 31.3024 9.02084 30.2179 9.3659Z" fill="white"/>
<path d="M38.5488 61.1249L54.0272 57.28C54.0272 57.28 47.3725 12.2744 47.3232 11.9786C47.2739 11.6828 47.0274 11.4857 46.781 11.4857C46.5345 11.4857 42.1966 11.3871 42.1966 11.3871C42.1966 11.3871 39.5347 8.82377 38.5488 7.83789V61.1249Z" fill="white"/>
</g>
<defs>
<clipPath id="clip0_290_15057">
<rect width="220" height="62.8501" fill="white"/>
</clipPath>
</defs>
</svg>
