<svg width="205" height="75" viewBox="0 0 205 75" fill="none" xmlns="http://www.w3.org/2000/svg">
<path fill-rule="evenodd" clip-rule="evenodd" d="M63.4959 50.3039C63.4959 52.9038 61.6697 54.3699 59.5042 54.3699C57.197 54.3699 55.6914 53.1826 55.6914 53.1826V31.1074C55.6914 27.8546 57.8499 25.9609 60.5265 25.9609C62.1111 25.9609 63.4959 27.1436 63.4959 29.1023V50.3039ZM62.7627 21.7078C60.4439 21.7078 58.2947 22.6604 56.6543 24.3403H55.6924V10.5645H50.5273V55.9254C50.5273 55.9254 53.8615 58.6206 59.5052 58.6206C64.5169 58.6206 68.6294 55.6489 68.6294 50.305V27.7813C68.6294 23.9383 65.9551 21.7078 62.7627 21.7078V21.7078Z" fill="black"/>
<path fill-rule="evenodd" clip-rule="evenodd" d="M86.6544 50.3015C86.6544 52.9061 84.9118 54.3676 82.6627 54.3676C80.5599 54.3676 78.8359 52.9061 78.8359 50.3015V30.0874C78.8359 27.5084 80.5599 25.9609 82.6627 25.9609C84.9118 25.9609 86.6544 27.5084 86.6544 30.0874V50.3015ZM82.6583 21.707C77.6605 21.707 73.6758 24.7717 73.6758 30.0878V50.3019C73.6758 55.6482 77.6605 58.6199 82.6583 58.6199C87.7304 58.6199 91.7825 55.6482 91.7825 50.3019V30.0878C91.7825 24.7717 87.7304 21.707 82.6583 21.707V21.707Z" fill="black"/>
<path fill-rule="evenodd" clip-rule="evenodd" d="M102.494 10.5625H97.3477V49.9336C97.3477 55.41 101.4 58.6187 106.405 58.6187C108.217 58.6187 109.36 58.1912 109.869 58.1075V53.9207C109.36 54.0484 108.289 54.3691 106.906 54.3691C104.371 54.3691 102.494 52.6799 102.494 49.9336V26.2621H109.869V22.0706H102.494V10.5625Z" fill="black"/>
<path fill-rule="evenodd" clip-rule="evenodd" d="M119.483 10.5625H114.371V49.9336C114.371 55.41 118.421 58.6187 123.405 58.6187C125.215 58.6187 126.381 58.1912 126.876 58.1075V53.9207C126.381 54.0484 125.282 54.3691 123.907 54.3691C121.39 54.3691 119.483 52.6799 119.483 49.9336V26.2621H126.876V22.0706H119.483V10.5625Z" fill="black"/>
<mask id="mask0_837_7289" style="mask-type:alpha" maskUnits="userSpaceOnUse" x="0" y="0" width="205" height="75">
<path fill-rule="evenodd" clip-rule="evenodd" d="M0.84375 74.9062H204.532V0.0488281H0.84375V74.9062Z" fill="white"/>
</mask>
<g mask="url(#mask0_837_7289)">
<path fill-rule="evenodd" clip-rule="evenodd" d="M131.379 58.2539H136.495V10.5625H131.379V58.2539Z" fill="black"/>
<path fill-rule="evenodd" clip-rule="evenodd" d="M155.023 37.6363H147.195V30.0874C147.195 27.29 148.938 25.9609 151.027 25.9609C153.276 25.9609 155.023 27.29 155.023 30.0874V37.6363ZM151.03 21.707C146.053 21.707 142.07 24.767 142.07 30.0878V50.3042C142.07 55.6482 146.053 58.6199 151.03 58.6199C156.111 58.6199 160.168 55.6482 160.168 50.3042V46.4473H155.026V50.3042C155.026 52.9065 153.279 54.3703 151.03 54.3703C148.941 54.3703 147.198 52.9065 147.198 50.3042V41.8329H160.168V30.0878C160.168 24.767 156.111 21.707 151.03 21.707V21.707Z" fill="black"/>
<path fill-rule="evenodd" clip-rule="evenodd" d="M178.051 21.707C175.481 21.707 173.402 23.0058 171.822 25.2735H170.872V22.0695H165.734V58.2574H170.872V32.9224C170.872 29.1584 172.528 25.9613 175.426 25.9613C176.455 25.9613 177.317 26.6885 177.317 28.0036V33.8797H182.456V26.4051C182.456 23.445 180.505 21.707 178.051 21.707" fill="black"/>
<path fill-rule="evenodd" clip-rule="evenodd" d="M199.395 22.0703V49.2037C199.395 52.4589 197.215 54.3688 194.553 54.3688C192.891 54.3688 191.579 53.2651 191.579 51.2275V22.0703H186.453V52.5518C186.453 56.353 189.125 58.6184 192.311 58.6184C195.129 58.6184 197.641 57.2475 199.395 54.8613V66.5693C199.395 69.1042 197.641 70.633 195.487 70.633C193.314 70.633 191.579 69.1042 191.579 66.5019V63.7486H186.453V66.5019C186.453 71.8552 190.489 74.9059 195.487 74.9059C200.566 74.9059 204.539 71.8552 204.539 66.5019V22.0703H199.395Z" fill="black"/>
<path fill-rule="evenodd" clip-rule="evenodd" d="M34.5005 55.8091H27.0793V39.8934C27.0793 34.9072 21.6726 34.8584 21.6726 32.1655V21.5496H16.6911V32.1655C16.6911 34.8584 11.2867 34.9072 11.2867 39.8934V55.8091H3.86328V13.543H34.5005V55.8091ZM11.7188 9.96635C11.7188 5.77715 14.6788 3.07031 19.2584 3.07031C22.732 3.07031 26.7841 4.87797 26.7841 9.96635V10.524H11.7188V9.96635ZM37.0758 10.523H29.8057V9.96537C29.8057 4.12651 25.4678 0.0488281 19.2595 0.0488281C13.0419 0.0488281 8.69938 4.12651 8.69938 9.96537V10.523H1.28986C1.04357 10.523 0.84375 10.7228 0.84375 10.9691V58.3817C0.84375 58.6303 1.04357 58.8301 1.28986 58.8301H37.0758C37.3245 58.8301 37.5243 58.6303 37.5243 58.3817V10.9691C37.5243 10.7228 37.3245 10.523 37.0758 10.523V10.523Z" fill="black"/>
</g>
</svg>
