<svg width="270" height="51" viewBox="0 0 270 51" fill="none" xmlns="http://www.w3.org/2000/svg">
<path fill-rule="evenodd" clip-rule="evenodd" d="M0 25.26C0 11.33 11.33 0 25.26 0C39.19 0 50.52 11.33 50.52 25.26C50.52 39.19 39.19 50.52 25.26 50.52C11.33 50.52 0 39.19 0 25.26V25.26ZM34.27 13.54V17.38L23.58 31.88H34.27V36.98H27.38V41.2H23.14V36.98H16.25V33.14L26.93 18.64H16.25V13.54H23.14V9.29999H27.38V13.54H34.27Z" fill="black"/>
<path d="M101.19 37.4396L120.59 13.0696H101.94V7.84961H127.06V13.0696L107.66 37.4396H127.56V42.6596H101.2V37.4396H101.19Z" fill="black"/>
<path d="M183.66 7.84961H189.63L203.56 42.6696H197.84L194.36 33.7196H178.94L175.46 42.6696H169.74L183.67 7.84961H183.66ZM192.36 28.7396L186.64 14.3196L180.92 28.7396H192.36V28.7396Z" fill="black"/>
<path d="M241.71 7.84961H247.18V22.5196H264.34V7.84961H269.81V42.6696H264.34V27.4996H247.18V42.6696H241.71V7.84961Z" fill="black"/>
<path d="M214.49 17.0496C214.49 14.5096 216.73 12.3196 220.96 12.3196C223.3 12.3196 225.14 13.1696 226.33 13.9596C227.03 14.4096 227.84 15.1396 228.36 15.7596L231.68 11.5896C230.97 10.8396 230.11 10.1696 229.12 9.58961C227.28 8.44961 224.54 7.34961 220.96 7.34961C213.55 7.34961 209.02 11.8296 209.02 17.0496C209.02 29.9796 227.42 25.2596 227.42 32.9696C227.42 35.7596 224.98 38.1896 220.46 38.1896C217.48 38.1896 215.29 37.1996 213.84 36.1996C213.03 35.6296 212.18 34.8496 211.6 33.9696L208.25 38.1796C209.05 39.0796 209.97 39.8896 211.06 40.5696C213.1 41.9096 216.23 43.1596 220.46 43.1596C228.17 43.1596 232.89 38.4296 232.89 32.9596C232.89 20.0296 214.49 24.7496 214.49 17.0396V17.0496Z" fill="black"/>
<path d="M162.25 32.5094C161.49 33.6494 160.41 34.6494 159.31 35.4494C157.47 36.8394 154.73 38.1894 151.15 38.1894C143.94 38.1894 138.22 32.4694 138.22 25.2594C138.22 18.0494 143.94 12.3294 151.15 12.3294C154.73 12.3294 157.42 13.6194 159.21 14.9694C160.25 15.7194 161.39 16.8394 161.99 17.7694L165.12 13.8294C164.17 12.6894 163.05 11.6694 161.8 10.7394C159.41 8.99936 155.93 7.35938 151.16 7.35938C140.71 7.35938 132.76 15.3194 132.76 25.2694C132.76 35.2194 140.72 43.1794 151.16 43.1794C155.93 43.1794 159.47 41.4394 161.9 39.6994C163.25 38.7194 164.38 37.6494 165.37 36.4594L162.25 32.5294V32.5094Z" fill="black"/>
</svg>
