<svg width="501" height="500" viewBox="0 0 501 500" fill="none" xmlns="http://www.w3.org/2000/svg">
<rect width="500" height="500" transform="translate(0.351562)" fill="#252525"/>
<path d="M250.199 250.2V117C250.199 117 287.82 117 289.854 154.621C292.904 191.226 262.4 217.663 250.199 250.2Z" fill="white"/>
<path d="M250.199 250.2V383.4C250.199 383.4 287.82 383.4 289.854 345.779C292.904 310.191 262.4 283.754 250.199 250.2Z" fill="white"/>
<path d="M250.2 250.2H117C117 250.2 117 212.578 154.621 210.545C191.226 208.511 217.663 239.015 250.2 250.2Z" fill="white" fill-opacity="0.6"/>
<path d="M250.199 250.2H383.399C383.399 250.2 383.399 212.578 345.777 210.545C310.19 208.511 283.753 239.015 250.199 250.2Z" fill="white" fill-opacity="0.6"/>
</svg>
