<svg width="149" height="49" viewBox="0 0 149 49" fill="none" xmlns="http://www.w3.org/2000/svg">
<g clip-path="url(#clip0_168_357)">
<path d="M29.688 24.7037C29.688 33.4679 23.3035 39.7944 15.2068 39.7944C10.6215 39.7944 7.25514 38.0241 4.99153 35.2962V48.7037H0V10.2224H4.96251V14.0822C7.22612 11.3542 10.5925 9.58398 15.1777 9.58398C23.3035 9.613 29.688 15.9395 29.688 24.7037ZM4.67231 24.7037C4.67231 30.6529 8.7642 35.1511 14.6264 35.1511C20.6336 35.1511 24.5804 30.4788 24.5804 24.7037C24.5804 18.9286 20.5465 14.2853 14.6264 14.2853C8.7642 14.3143 4.67231 18.7835 4.67231 24.7037Z" fill="black"/>
<path d="M52.0339 10.5419L50.4958 15.3013C49.1609 14.6629 47.3616 14.3146 45.8235 14.3146C41.4124 14.3146 38.2782 17.71 38.2782 23.0498V39.1852H33.3157V10.2227H38.2201V14.0244C40.2226 11.1804 43.2407 9.61328 46.6942 9.61328C48.8127 9.61328 50.4958 9.87447 52.0339 10.5419Z" fill="black"/>
<path d="M80.9671 39.2145H75.9755V35.3258C73.6829 38.0537 70.2875 39.824 65.7603 39.824C57.6055 39.824 51.2791 33.4685 51.2791 24.7333C51.2791 15.9691 57.6346 9.64258 65.7603 9.64258C70.3165 9.64258 73.6829 11.4128 75.9755 14.1698V10.223H80.9671V39.2145V39.2145ZM56.3576 24.7042C56.3576 30.4793 60.3915 35.1516 66.3407 35.1516C72.2029 35.1516 76.2948 30.6535 76.2948 24.7042C76.2948 18.7841 72.2029 14.2859 66.3407 14.2859C60.2754 14.3149 56.3576 18.9292 56.3576 24.7042Z" fill="black"/>
<path d="M109.35 14.1119V0.733398H114.341V39.2147H109.35V35.3259C107.057 38.0538 103.662 39.8241 99.1343 39.8241C90.9796 39.8241 84.6531 33.4686 84.6531 24.7334C84.6531 15.9692 91.0086 9.64271 99.1343 9.64271C103.662 9.61369 107.057 11.3839 109.35 14.1119ZM89.7317 24.7044C89.7317 30.4795 93.7655 35.1518 99.7147 35.1518C105.577 35.1518 109.669 30.6536 109.669 24.7044C109.669 18.7842 105.577 14.286 99.7147 14.286C93.6494 14.315 89.7317 18.9293 89.7317 24.7044Z" fill="black"/>
<path d="M148.672 24.704C148.672 33.2941 142.114 39.7947 133.32 39.7947C124.527 39.7947 117.998 33.2941 117.998 24.704C117.998 16.1139 124.527 9.61328 133.32 9.61328C142.114 9.61328 148.672 16.1139 148.672 24.704ZM123.105 24.704C123.105 30.7693 127.487 35.1514 133.32 35.1514C139.125 35.1514 143.536 30.7983 143.536 24.704C143.536 18.6387 139.125 14.2856 133.32 14.2856C127.487 14.3146 123.105 18.6387 123.105 24.704Z" fill="black"/>
</g>
<defs>
<clipPath id="clip0_168_357">
<rect width="148.672" height="48" fill="white" transform="translate(0 0.732422)"/>
</clipPath>
</defs>
</svg>
