<svg width="169" height="57" viewBox="0 0 169 57" fill="none" xmlns="http://www.w3.org/2000/svg">
<path d="M80.9949 44.3333C88.3638 44.3333 94.4079 38.8864 94.4079 32.2457V26.2019C94.4079 19.5611 88.3638 14.1143 80.9949 14.1143C73.6261 14.1143 67.582 19.5611 67.582 26.2019V32.2457C67.582 38.961 73.5433 44.3333 80.9949 44.3333ZM74.2885 26.2019C74.2885 22.8442 77.2691 20.1581 80.9949 20.1581C84.7208 20.1581 87.7014 22.8442 87.7014 26.2019V32.2457C87.7014 35.6033 84.7208 38.2895 80.9949 38.2895C77.2691 38.2895 74.2885 35.6033 74.2885 32.2457V26.2019Z" fill="black"/>
<path d="M101.129 50.376H60.8906V56.4198H101.129V50.376Z" fill="black"/>
<path d="M114.534 14.1143H121.24V20.1581H114.534C110.808 20.1581 107.828 22.8442 107.828 26.2019V44.3333H101.121V26.2019C101.121 19.5611 107.082 14.1143 114.534 14.1143Z" fill="black"/>
<path d="M154.761 44.3333C162.129 44.3333 168.173 38.8864 168.173 32.2457V26.2019C168.173 19.5611 162.129 14.1143 154.761 14.1143C147.392 14.1143 141.348 19.5611 141.348 26.2019V32.2457C141.348 38.961 147.309 44.3333 154.761 44.3333ZM148.054 26.2019C148.054 22.8442 151.035 20.1581 154.761 20.1581C158.486 20.1581 161.467 22.8442 161.467 26.2019V32.2457C161.467 35.6033 158.486 38.2895 154.761 38.2895C151.035 38.2895 148.054 35.6033 148.054 32.2457V26.2019Z" fill="black"/>
<path d="M47.4598 44.3333C54.8286 44.3333 60.8727 38.8864 60.8727 32.2457V26.2019C60.8727 19.5611 54.8286 14.1143 47.4598 14.1143C40.091 14.1143 34.0469 19.5611 34.0469 26.2019V32.2457C34.0469 38.961 40.0082 44.3333 47.4598 44.3333ZM40.7533 26.2019C40.7533 22.8442 43.734 20.1581 47.4598 20.1581C51.1856 20.1581 54.1662 22.8442 54.1662 26.2019V32.2457C54.1662 35.6033 51.1856 38.2895 47.4598 38.2895C43.734 38.2895 40.7533 35.6033 40.7533 32.2457V26.2019V26.2019Z" fill="black"/>
<path d="M27.3492 26.2019C27.3492 19.5611 21.3052 14.1143 13.9363 14.1143C6.56752 14.1143 0.523438 19.5611 0.523438 26.2019V32.2457C0.523438 38.8864 6.56752 44.3333 13.9363 44.3333C16.4202 44.3333 18.6557 43.7364 20.6428 42.6918V56.4209H27.3492V26.2019ZM20.6428 32.2457C20.6428 35.6033 17.6621 38.2895 13.9363 38.2895C10.2105 38.2895 7.22989 35.6033 7.22989 32.2457V26.2019C7.22989 22.8442 10.2105 20.1581 13.9363 20.1581C17.6621 20.1581 20.6428 22.8442 20.6428 26.2019V32.2457V32.2457Z" fill="black"/>
<path d="M134.656 14.1143H127.949V44.3333H134.656V14.1143Z" fill="black"/>
<path d="M131.258 8.1449C133.59 8.1449 135.48 6.44118 135.48 4.33954C135.48 2.2379 133.59 0.53418 131.258 0.53418C128.926 0.53418 127.035 2.2379 127.035 4.33954C127.035 6.44118 128.926 8.1449 131.258 8.1449Z" fill="black"/>
</svg>
