<svg width="500" height="499" viewBox="0 0 500 499" fill="none" xmlns="http://www.w3.org/2000/svg">
<rect width="499.227" height="498.929" fill="#252525"/>
<path d="M339.669 379.98C333.659 382.09 328.396 383.757 323.809 385.051C319.293 386.344 314.172 386.99 308.411 386.99C298.418 386.99 290.453 384.744 284.514 380.286C278.575 375.828 274.806 369.328 273.134 360.752H271.997C263.675 369.566 254.75 376.27 245.255 380.933C235.724 385.561 224.238 387.875 210.796 387.875C196.607 387.875 184.943 383.723 175.804 375.386C166.63 367.048 162.113 356.157 162.113 342.715C162.113 335.738 163.145 329.476 165.172 323.997C167.198 318.484 170.292 313.549 174.382 309.125C177.582 305.484 181.778 302.183 187.041 299.324C192.304 296.431 197.212 294.151 201.799 292.45C207.56 290.34 219.224 286.494 236.827 280.879C254.394 275.23 266.271 270.839 272.388 267.64V249.501C272.388 247.936 272.032 244.839 271.321 240.313C270.61 235.787 269.116 231.499 266.805 227.449C264.244 222.923 260.653 219.009 255.994 215.606C251.3 212.236 244.721 210.569 236.116 210.569C230.248 210.569 224.772 211.522 219.722 213.428C214.672 215.333 211.152 217.307 209.125 219.417C209.125 221.868 209.729 225.475 210.903 230.205C212.148 235.004 212.716 239.394 212.716 243.444C212.716 247.766 210.689 251.645 206.707 255.185C202.653 258.758 197.07 260.528 189.886 260.528C183.485 260.528 178.791 258.35 175.769 254.028C172.746 249.672 171.252 244.805 171.252 239.428C171.252 234.051 173.315 228.402 177.476 223.297C181.636 218.124 187.006 213.564 193.691 209.514C199.452 206.111 206.422 203.218 214.601 200.802C222.78 198.454 230.781 197.228 238.569 197.228C249.309 197.228 258.697 197.943 266.662 199.338C274.628 200.734 281.918 203.763 288.426 208.425C294.933 212.951 299.876 219.077 303.29 226.87C306.668 234.664 308.411 244.635 308.411 256.852C308.411 274.379 308.233 289.897 307.842 303.408C307.451 316.919 307.237 331.723 307.237 347.752C307.237 352.516 308.126 356.328 309.869 359.118C311.576 361.977 314.243 364.325 317.835 366.299C319.755 367.388 322.778 368.035 326.938 368.137C331.063 368.273 335.331 368.307 339.705 368.307V380.048L339.669 379.98ZM272.708 283.091C261.826 286.154 252.296 289.149 244.152 292.109C235.973 295.036 228.328 298.712 221.322 303.136C214.921 307.288 209.872 312.256 206.173 317.94C202.439 323.623 200.626 330.429 200.626 338.257C200.626 348.432 203.399 355.953 208.947 360.718C214.53 365.516 221.536 367.864 230.141 367.864C239.245 367.864 247.246 365.754 254.145 361.535C261.044 357.315 266.84 352.312 271.605 346.56L272.743 283.091H272.708ZM279.642 173.712L272.352 179.566C259.195 169.56 247.388 160.78 237.04 153.259C226.692 145.704 219.046 139.987 214.032 136.073C209.16 132.159 205.746 128.994 203.791 126.544C201.799 124.06 200.804 120.384 200.804 115.348C200.804 111.808 202.297 108.507 205.213 105.512C208.165 102.552 211.934 101.054 216.521 101.054C221.5 101.054 225.803 102.143 229.359 104.355C232.915 106.533 236.756 110.821 240.845 117.185C245.184 123.924 250.304 131.615 256.208 140.191C262.075 148.835 269.863 159.997 279.607 173.712H279.642Z" fill="#F6F6F6"/>
</svg>
