<svg width="500" height="500" viewBox="0 0 500 500" fill="none" xmlns="http://www.w3.org/2000/svg">
<g clip-path="url(#clip0_2243_7501)">
<rect width="500" height="500" fill="#252525"/>
<rect x="-0.03125" y="-0.03125" width="500.031" height="500.031" rx="250.016" fill="#252525"/>
<g clip-path="url(#clip1_2243_7501)">
<path d="M250.5 208.154C268.817 208.154 283.666 193.345 283.666 175.077C283.666 156.809 268.817 142 250.5 142C232.182 142 217.333 156.809 217.333 175.077C217.333 193.345 232.182 208.154 250.5 208.154Z" fill="#F6F6F6"/>
<path d="M324.204 224.692H309.463C295.275 224.692 283.667 236.269 283.667 250.419V272.47C283.667 282.577 275.375 290.846 265.241 290.846H235.759C225.625 290.846 217.333 282.577 217.333 272.47V250.419C217.333 236.269 205.725 224.692 191.537 224.692H176.796C162.608 224.692 151 236.269 151 250.419V265.12C151 279.269 162.608 290.846 176.796 290.846H198.907C209.042 290.846 217.333 299.115 217.333 309.222V331.274C217.333 345.423 228.942 357 243.13 357H257.87C272.058 357 283.667 345.423 283.667 331.274V309.222C283.667 299.115 291.958 290.846 302.093 290.846H324.204C338.392 290.846 350 279.269 350 265.12V250.419C350 236.269 338.392 224.692 324.204 224.692Z" fill="#F6F6F6"/>
</g>
</g>
<defs>
<clipPath id="clip0_2243_7501">
<rect width="500" height="500" fill="white"/>
</clipPath>
<clipPath id="clip1_2243_7501">
<rect width="199" height="215" fill="white" transform="translate(151 142)"/>
</clipPath>
</defs>
</svg>
