<svg width="122" height="73" viewBox="0 0 122 73" fill="none" xmlns="http://www.w3.org/2000/svg">
<path d="M29.8715 24.1625C29.8715 29.1916 26.132 33.318 19.6844 33.318H0.535156V1.27368H18.7817C24.649 1.27368 28.5176 5.20669 28.5176 9.97788C28.5176 13.3306 26.0675 15.5873 24.778 16.4254C26.5188 17.2636 29.8715 19.7782 29.8715 24.1625ZM7.82089 13.7175H17.1054C19.5554 13.7175 20.7805 12.3635 20.7805 10.6871C20.7805 8.94627 19.5554 7.52781 17.1054 7.52781H7.82089V13.7175ZM22.1989 23.5178C22.1989 21.5835 20.845 19.9716 18.137 19.9716H7.82089V26.9994H18.0725C20.716 26.9994 22.1989 25.452 22.1989 23.5178Z" fill="black"/>
<path d="M36.1914 33.2536V1.27368H43.4771V33.2536H36.1914Z" fill="black"/>
<path d="M121.169 33.2536H111.691L100.795 21.0677L97.3776 24.6783V33.2536H90.0273V1.27368H97.3776V14.7491L110.208 1.27368H119.557L105.63 15.9096L121.169 33.2536Z" fill="black"/>
<path d="M19.7489 66.1361V72.5836H0.535156V40.6038H7.82089V66.1361H19.7489Z" fill="black"/>
<path d="M57.2133 72.5836H49.7341L47.0906 66.1361H32.5191L29.9401 72.5836H22.4609L35.2916 40.6038H44.4471L57.2133 72.5836ZM44.5761 59.753L39.8049 47.8895L35.0337 59.753H44.5761Z" fill="black"/>
<path d="M66.8164 0.371338C57.4675 0.371338 49.8594 7.91498 49.8594 17.2639C49.8594 26.6129 57.403 34.1565 66.752 34.1565C76.1009 34.1565 83.709 26.6129 83.709 17.2639C83.709 7.91498 76.1009 0.371338 66.8164 0.371338ZM66.8164 26.8708C61.5295 26.8708 57.2096 22.5509 57.2096 17.2639C57.2096 11.9769 61.5295 7.65708 66.8164 7.65708C72.1034 7.65708 76.4233 11.9769 76.4233 17.2639C76.3588 22.5509 72.1034 26.8708 66.8164 26.8708Z" fill="black"/>
<path d="M90.0864 63.4281C90.0864 68.4572 86.3468 72.5836 79.8992 72.5836H60.75V40.6038H78.9966C84.8639 40.6038 88.7324 44.5368 88.7324 49.308C88.7324 52.6607 86.2823 54.9173 84.9928 55.7555C86.7336 56.5937 90.0864 59.1082 90.0864 63.4281ZM68.0357 52.9831H77.3202C79.7703 52.9831 80.9953 51.6291 80.9953 49.9527C80.9953 48.2119 79.7703 46.7934 77.3202 46.7934H68.0357V52.9831ZM82.4138 62.7834C82.4138 60.8491 81.0598 59.2372 78.3518 59.2372H68.1002V66.265H78.3518C80.9308 66.3295 82.4138 64.7821 82.4138 62.7834Z" fill="black"/>
</svg>
