<svg width="285" height="35" viewBox="0 0 285 35" fill="none" xmlns="http://www.w3.org/2000/svg">
<g clip-path="url(#clip0_837_7286)">
<path fill-rule="evenodd" clip-rule="evenodd" d="M271.266 34.6925C274.116 34.7786 276.919 33.9418 279.256 32.3072C281.593 30.6726 283.34 28.3274 284.237 25.6201H278.122C277.479 26.8812 276.497 27.9376 275.285 28.6702C274.074 29.4028 272.681 29.7826 271.266 29.7665C269.438 29.8143 267.659 29.1762 266.278 27.9782C264.897 26.7803 264.014 25.1094 263.802 23.2934H284.336L284.843 22.7978V21.6592C284.843 13.8617 279.373 8.63854 271.266 8.63854C263.159 8.63854 257.688 13.8617 257.688 21.6592C257.688 29.4567 263.146 34.6925 271.266 34.6925V34.6925ZM264.198 18.3546C264.761 16.9412 265.735 15.7294 266.993 14.8754C268.252 14.0214 269.738 13.5646 271.26 13.5646C272.781 13.5646 274.267 14.0214 275.526 14.8754C276.784 15.7294 277.758 16.9412 278.321 18.3546H264.198ZM241.474 34.6925C248.294 34.6925 253.554 30.3972 254.606 23.9859H248.839C248.431 25.6082 247.474 27.0403 246.133 28.0393C244.791 29.0383 243.145 29.5431 241.474 29.4692C236.969 29.4692 233.912 26.3501 233.912 21.6592C233.912 16.9683 236.969 13.8619 241.474 13.8619C243.105 13.7823 244.715 14.2562 246.043 15.2066C247.371 16.1569 248.339 17.5279 248.789 19.0974H254.557C253.455 12.8222 248.195 8.63854 241.474 8.63854C233.367 8.63854 227.909 13.8617 227.909 21.6592C227.909 29.4567 233.367 34.6925 241.474 34.6925ZM200.321 34.0114H206.336V19.3445C206.336 16.0894 208.786 13.8619 212.45 13.8619C216.114 13.8619 218.552 16.0894 218.552 19.3445V34.0114H224.567V18.652C224.567 12.6367 219.963 8.63854 213.143 8.63854C210.647 8.63661 208.232 9.52816 206.336 11.1514V9.31964H200.321V34.0114ZM181.359 34.6925C184.398 34.6696 187.31 33.467 189.479 31.3384V34.0114H195.481V9.31964H189.479V11.9927C187.31 9.86408 184.398 8.66148 181.359 8.63854C173.549 8.63854 168.339 13.8617 168.339 21.6592C168.339 29.4567 173.549 34.6925 181.359 34.6925ZM181.965 29.4692C177.398 29.4692 174.354 26.3501 174.354 21.6592C174.354 16.9683 177.398 13.8619 181.965 13.8619C186.471 13.8619 189.479 16.9807 189.479 21.6592C189.479 26.3377 186.471 29.4692 181.965 29.4692ZM140.861 34.0114H146.876V19.3445C146.876 16.0894 149.327 13.8619 152.979 13.8619C156.63 13.8619 159.093 16.0894 159.093 19.3445V34.0114H165.108V18.652C165.108 12.6367 160.491 8.63854 153.684 8.63854C151.187 8.63442 148.772 9.52624 146.876 11.1514V9.31964H140.861V34.0114ZM129.883 34.0114H135.899V9.31964H129.883V34.0114ZM129.883 6.06403H135.899V0.135986H129.883V6.06403ZM107.468 6.06403H125.044V0.135986H100.351V6.06403H107.468ZM106.466 19.605H115.414V13.6885H100.351V19.605H106.466V19.605ZM103.631 26.5484C104.428 26.5618 105.203 26.8103 105.858 27.2627C106.514 27.7151 107.021 28.351 107.317 29.0909C107.612 29.8307 107.682 30.6417 107.518 31.4212C107.354 32.2007 106.963 32.9142 106.395 33.4724C105.827 34.0305 105.106 34.408 104.323 34.5578C103.541 34.7076 102.731 34.6229 101.997 34.3142C101.263 34.0055 100.636 33.4865 100.196 32.8227C99.7558 32.1589 99.5212 31.3796 99.5223 30.583C99.5261 30.0479 99.6356 29.5194 99.8444 29.0268C100.053 28.5342 100.357 28.0872 100.739 27.7123C101.121 27.3375 101.573 27.0419 102.069 26.8421C102.565 26.6423 103.096 26.5425 103.631 26.5484V26.5484ZM11.8932 34.7917C18.911 34.7917 23.6018 31.5116 23.6018 26.5731C23.6018 22.1917 20.7177 20.1491 12.4993 18.4163C8.94714 17.6613 7.74676 16.9687 7.74676 15.9167C7.74676 14.481 9.41778 13.4782 11.8932 13.4782C12.9098 13.4359 13.9177 13.6806 14.8019 14.184C15.6861 14.6874 16.4104 15.4289 16.8929 16.3246L22.4505 14.9757C20.9777 11.0893 16.7326 8.50257 11.8932 8.50257C5.77893 8.50257 1.68214 11.5847 1.68214 16.2261C1.68214 20.1496 4.14492 22.1173 11.336 23.6396C15.9155 24.6051 17.5493 25.2859 17.5493 26.5731C17.5493 28.5163 15.2721 29.8161 11.8932 29.8161C8.51425 29.8161 6.07555 28.12 5.87751 25.6322H0.171875C0.369907 31.1028 5.07344 34.7917 11.8932 34.7917V34.7917ZM27.463 34.0985H33.5282V17.3152C33.5282 15.2234 35.3971 13.7749 38.12 13.7749C40.843 13.7749 42.7239 15.2234 42.7239 17.3152V34.0985H48.7886V17.3152C48.7886 15.2234 50.658 13.7749 53.381 13.7749C56.1039 13.7749 57.9728 15.2234 57.9728 17.3152V34.0985H64.0374V16.7211C64.0374 11.7826 60.0024 8.50257 53.9871 8.50257C51.1778 8.51346 48.4747 9.57808 46.4123 11.4856C44.6379 9.66556 42.232 8.59736 39.6919 8.50257C38.5157 8.52901 37.3584 8.8038 36.2961 9.30937C35.2338 9.81493 34.2905 10.54 33.5282 11.4361V9.19575H27.463V34.0985V34.0985ZM81.8355 34.7917C84.7131 34.8774 87.5419 34.0322 89.9011 32.3821C92.2602 30.7321 94.0239 28.3647 94.9304 25.6322H88.7667C88.1148 26.9051 87.1205 27.9711 85.8961 28.7101C84.6716 29.4491 83.2655 29.8324 81.8355 29.8161C79.9935 29.8635 78.2002 29.2207 76.8079 28.0139C75.4156 26.8071 74.5247 25.1234 74.3101 23.2934H95.0296L95.5366 22.7978V21.6471C95.5366 13.7753 90.029 8.50257 81.8355 8.50257C73.6419 8.50257 68.1464 13.7753 68.1464 21.6471C68.1464 29.5189 73.6542 34.7917 81.8355 34.7917ZM74.7187 18.3178C75.2842 16.8901 76.2654 15.6653 77.5355 14.8023C78.8057 13.9392 80.3059 13.4775 81.8415 13.4775C83.3771 13.4775 84.8773 13.9392 86.1475 14.8023C87.4176 15.6653 88.3994 16.8901 88.9649 18.3178H74.7187Z" fill="black"/>
</g>
<defs>
<clipPath id="clip0_837_7286">
<rect width="284.672" height="34.6557" fill="white" transform="translate(0.171875 0.149658)"/>
</clipPath>
</defs>
</svg>
