<svg width="371" height="67" viewBox="0 0 371 67" fill="none" xmlns="http://www.w3.org/2000/svg">
<g clip-path="url(#clip0_837_7318)">
<path d="M53.39 0.718262H12.3496C5.6298 0.737379 0.187086 6.1801 0.167969 12.8999V53.946C0.187086 60.666 5.6298 66.1086 12.3496 66.1277H53.39C60.1099 66.1086 65.5525 60.666 65.5716 53.946V12.9173C65.5621 6.19069 60.1165 0.737419 53.39 0.718262ZM6.92586 12.8999C6.92907 9.9067 9.3564 7.48195 12.3496 7.48195H24.6877L6.92586 25.238V12.8999ZM6.92586 34.8268L34.2765 7.48195H53.9991L6.90845 54.5726L6.92586 34.8268ZM11.7115 59.3639L18.2026 52.8846L24.6877 59.3639H11.7115ZM34.2707 59.3639L22.994 48.0873L32.8554 38.2261L54.0281 59.3755L34.2707 59.3639ZM58.8136 54.5784L37.6642 33.4405L58.8136 12.3488V54.5784Z" fill="black"/>
<path d="M94.7227 52.9276V14.7085H102.639V31.8525L119.347 14.7085H129.011L110.556 32.8899L129.884 52.9276H119.292L102.639 35.0192V52.9276H94.7227Z" fill="black"/>
<path d="M136.013 21.097C134.848 21.097 133.847 20.6785 133.01 19.8412C132.172 19.004 131.754 18.0031 131.754 16.8383C131.754 15.6735 132.172 14.6725 133.01 13.8354C133.847 12.9982 134.848 12.5796 136.013 12.5796C137.177 12.5796 138.178 12.9982 139.016 13.8354C139.853 14.6725 140.271 15.6735 140.271 16.8383C140.271 18.0031 139.853 19.004 139.016 19.8412C138.178 20.6785 137.177 21.097 136.013 21.097ZM139.78 24.4821V52.9281H132.3V24.4821H139.78Z" fill="black"/>
<path d="M153.105 13.0718V52.9289H145.625V14.7097L153.105 13.0718Z" fill="black"/>
<path d="M157.645 38.7333C157.645 36.6585 158.027 34.7293 158.791 32.9458C159.592 31.1258 160.666 29.5607 162.012 28.2503C163.396 26.9036 165.015 25.848 166.872 25.0836C168.728 24.3192 170.712 23.937 172.824 23.937C174.934 23.937 176.919 24.3192 178.775 25.0836C180.631 25.848 182.232 26.9036 183.58 28.2503C184.962 29.5607 186.037 31.1258 186.801 32.9458C187.601 34.7293 188.002 36.6585 188.002 38.7333C188.002 40.808 187.601 42.7553 186.801 44.5753C186.037 46.3588 184.962 47.9059 183.58 49.2162C182.232 50.5266 180.631 51.564 178.775 52.3284C176.919 53.0927 174.934 53.4749 172.824 53.4749C170.712 53.4749 168.728 53.0927 166.872 52.3284C165.015 51.564 163.396 50.5266 162.012 49.2162C160.666 47.9059 159.592 46.3588 158.791 44.5753C158.027 42.7553 157.645 40.808 157.645 38.7333ZM172.824 46.9777C175.008 46.9777 176.864 46.177 178.393 44.5753C179.922 42.9737 180.686 41.0264 180.686 38.7333C180.686 36.4038 179.922 34.4382 178.393 32.8366C176.864 31.235 175.008 30.4343 172.824 30.4343C170.639 30.4343 168.783 31.235 167.254 32.8366C165.725 34.4382 164.961 36.4038 164.961 38.7333C164.961 41.0264 165.725 42.9737 167.254 44.5753C168.783 46.177 170.639 46.9777 172.824 46.9777Z" fill="black"/>
<path d="M194.977 44.5737C196.214 44.5737 197.27 45.0105 198.144 45.8841C199.017 46.7577 199.454 47.8133 199.454 49.0508C199.454 50.252 199.017 51.2894 198.144 52.163C197.27 53.0365 196.214 53.4733 194.977 53.4733C193.776 53.4733 192.739 53.0365 191.865 52.163C190.991 51.2894 190.555 50.252 190.555 49.0508C190.555 47.8133 190.991 46.7577 191.865 45.8841C192.739 45.0105 193.776 44.5737 194.977 44.5737Z" fill="black"/>
<path d="M205.043 52.9276V14.7085H212.96V30.0507H230.541V14.7085H238.457V52.9276H230.541V37.3124H212.96V52.9276H205.043Z" fill="black"/>
<path d="M270.41 49.3801C268.662 50.7997 266.861 51.8371 265.004 52.4922C263.184 53.1474 261.145 53.475 258.889 53.475C256.741 53.475 254.721 53.0928 252.829 52.3284C250.972 51.5641 249.351 50.5267 247.969 49.2163C246.622 47.9059 245.548 46.3589 244.748 44.5754C243.984 42.7554 243.602 40.8081 243.602 38.7334C243.602 36.6949 243.965 34.784 244.694 33.0005C245.458 31.1805 246.495 29.6154 247.806 28.305C249.116 26.9583 250.662 25.9027 252.447 25.1383C254.265 24.3739 256.195 23.9917 258.234 23.9917C260.235 23.9917 262.092 24.3921 263.803 25.1929C265.55 25.9573 267.041 27.0129 268.28 28.3596C269.553 29.7063 270.536 31.3262 271.229 33.2189C271.955 35.0752 272.321 37.0954 272.321 39.2793V41.2449H251.136C251.645 43.0284 252.627 44.4662 254.085 45.5582C255.54 46.6502 257.251 47.1962 259.217 47.1962C260.454 47.1962 261.619 46.996 262.711 46.5956C263.803 46.1951 264.731 45.6311 265.496 44.903L270.41 49.3801ZM258.07 30.1614C256.359 30.1614 254.885 30.6891 253.648 31.7447C252.409 32.7638 251.554 34.1471 251.082 35.8942H265.004C264.53 34.2199 263.656 32.855 262.384 31.7993C261.145 30.7073 259.708 30.1614 258.07 30.1614Z" fill="black"/>
<path d="M285.796 53.4203C282.738 53.4203 280.245 52.6196 278.316 51.018C276.386 49.38 275.422 47.2689 275.422 44.6845C275.422 41.9909 276.459 39.8798 278.534 38.3511C280.609 36.8223 283.467 36.0579 287.106 36.0579C288.271 36.0579 289.435 36.1489 290.6 36.3309C291.766 36.513 292.912 36.786 294.04 37.1499V35.1298C294.04 33.4918 293.53 32.2543 292.511 31.417C291.493 30.5798 290 30.1613 288.034 30.1613C286.833 30.1613 285.523 30.3614 284.103 30.7619C282.719 31.1258 281.136 31.7083 279.353 32.509L276.623 26.9945C278.843 25.9754 280.991 25.211 283.066 24.7014C285.176 24.1917 287.251 23.937 289.29 23.937C293.112 23.937 296.079 24.8652 298.19 26.7215C300.338 28.5416 301.411 31.1258 301.411 34.4746V52.9289H294.04V50.9634C292.839 51.8006 291.564 52.4193 290.218 52.8197C288.908 53.2202 287.434 53.4203 285.796 53.4203ZM282.574 44.5207C282.574 45.6127 283.047 46.4863 283.994 47.1415C284.941 47.7603 286.197 48.0696 287.761 48.0696C288.998 48.0696 290.128 47.9241 291.146 47.6329C292.202 47.3053 293.166 46.8502 294.04 46.2679V42.0092C293.131 41.6453 292.165 41.3903 291.146 41.2448C290.164 41.0628 289.126 40.9718 288.034 40.9718C286.323 40.9718 284.977 41.2994 283.994 41.9546C283.047 42.5734 282.574 43.4288 282.574 44.5207Z" fill="black"/>
<path d="M314.566 13.0718V52.9289H307.086V14.7097L314.566 13.0718Z" fill="black"/>
<path d="M324.291 44.9029V30.7619H318.449V24.483H324.291V17.2214L331.771 15.5288V24.483H339.852V30.7619H331.771V43.3742C331.771 44.7209 332.061 45.6673 332.645 46.2133C333.227 46.7593 334.245 47.0323 335.702 47.0323C336.393 47.0323 337.049 46.9959 337.668 46.9231C338.286 46.8139 338.96 46.6318 339.688 46.3771V52.4922C338.886 52.7469 337.922 52.9472 336.794 53.0927C335.665 53.2748 334.701 53.3657 333.901 53.3657C330.734 53.3657 328.332 52.6559 326.694 51.2364C325.091 49.7805 324.291 47.6692 324.291 44.9029Z" fill="black"/>
<path d="M343.555 52.9289V14.7097L351.035 13.0718V26.7215C352.127 25.8115 353.328 25.1198 354.638 24.6467C355.984 24.1736 357.442 23.9369 359.006 23.9369C362.282 23.9369 364.976 24.9926 367.087 27.1037C369.197 29.2147 370.253 31.9266 370.253 35.2389V52.9289H362.773V36.3308C362.773 34.5473 362.227 33.1095 361.135 32.0175C360.079 30.9256 358.66 30.3796 356.877 30.3796C355.64 30.3796 354.51 30.6343 353.492 31.144C352.509 31.6171 351.69 32.3088 351.035 33.2187V52.9289H343.555Z" fill="black"/>
</g>
<defs>
<clipPath id="clip0_837_7318">
<rect width="370.248" height="65.5185" fill="white" transform="translate(0.167969 0.718262)"/>
</clipPath>
</defs>
</svg>
