<svg width="500" height="500" viewBox="0 0 500 500" fill="none" xmlns="http://www.w3.org/2000/svg">
<rect width="500" height="500" fill="#252525"/>
<path d="M128.999 262.953H215.99C219.989 262.953 222.016 267.834 219.168 270.685L155.403 334.511L164.935 344.052L228.7 280.226C231.548 277.375 236.424 279.404 236.424 283.406V370.482H249.9V272.988L226.454 249.519H128.999V262.953Z" fill="#F6F6F6"/>
<path d="M371 236.078H284.008C280.009 236.078 277.982 231.197 280.831 228.346L344.595 164.52L335.064 154.979L271.299 218.805C268.451 221.656 263.575 219.628 263.575 215.625V128.549H250.099V226.043L273.545 249.512H370.945V236.078H371Z" fill="#F6F6F6"/>
</svg>
