<svg width="500" height="500" viewBox="0 0 500 500" fill="none" xmlns="http://www.w3.org/2000/svg">
<rect width="500" height="500" fill="#252525"/>
<path d="M178.789 192.981C213.027 169.282 226.936 162.505 242.736 162.505C260.051 162.505 269.074 171.528 271.696 191.465C304.044 170.048 320.592 162.523 335.268 162.523C342.793 162.523 350.693 165.144 355.579 169.674C361.607 175.309 363.854 181.711 363.854 195.62V312.975C363.854 326.135 365.726 329.898 374 334.41V339.296H310.802V334.41C319.076 329.898 320.967 326.135 320.967 312.975V205.392C320.967 191.857 316.455 186.205 306.291 186.205C301.03 186.205 294.254 188.844 283.34 194.853L271.678 201.255V312.975C271.678 326.135 273.55 329.898 281.842 334.41V339.296H218.662V334.41C226.936 329.898 228.827 326.135 228.827 312.975V204.269C228.827 192.606 223.941 186.597 214.168 186.597C208.89 186.597 201.365 189.611 190.095 195.62L178.807 202.022V312.993C178.807 326.153 180.679 329.916 188.971 334.427V339.313H126.13V334.427C134.404 329.916 136.294 326.153 136.294 312.993V206.177C136.294 194.889 134.03 191.501 126.13 189.254V182.478C149.455 174.934 152.843 173.437 172.405 161.4H178.807V192.981H178.789Z" fill="#F6F6F6"/>
</svg>
