<svg width="150" height="66" viewBox="0 0 150 66" fill="none" xmlns="http://www.w3.org/2000/svg">
<g clip-path="url(#clip0_1196_6113)">
<path d="M1.48099 28.3352C3.97019 16.3164 14.6424 7.28221 27.4314 7.28221C40.2203 7.28221 50.8926 16.3164 53.386 28.3352L53.4664 28.7109H66.9412L66.8861 28.3352C64.308 12.2763 50.3507 0 33.5147 0C16.6787 0 2.72559 12.2763 0.143251 28.3352L0.0839844 28.7109H1.40479L1.48522 28.3352H1.48099Z" fill="#272929"/>
<path d="M44.9024 62.8718L43.4969 64.1341L43.8948 65.9831L42.2523 65.0375L40.6098 65.9873L41.0035 64.1383L39.5938 62.8718L41.4818 62.6776L42.2481 60.9468L43.0185 62.6776L44.9024 62.8718Z" fill="#272929"/>
<path d="M27.4356 62.8971L26.0132 64.1467L26.3899 66L24.7601 65.0375L23.1091 65.9662L23.5197 64.1214L22.127 62.8465L24.0108 62.665L24.7982 60.9468L25.5475 62.6818L27.4356 62.8971Z" fill="#272929"/>
<path d="M12.9496 53.5674L11.5272 54.8254L11.9124 56.6745L10.2741 55.7162L8.62732 56.6534L9.03795 54.8086L7.63672 53.5336L9.52056 53.3479L10.3037 51.6255L11.0615 53.3606L12.9496 53.5674Z" fill="#272929"/>
<path d="M5.30861 38.4839L3.89044 39.7377L4.27568 41.591L2.63737 40.6327L0.990602 41.5657L1.40124 39.7208L0 38.4459L1.88807 38.2644L2.67124 36.542L3.42901 38.2771L5.30861 38.4839Z" fill="#272929"/>
<path d="M59.2461 53.5463L57.8406 54.8086L58.2428 56.6618L56.596 55.7162L54.9577 56.666L55.3514 54.817L53.9375 53.5547L55.8256 53.3563L56.5876 51.6255L57.3623 53.3521L59.2461 53.5463Z" fill="#272929"/>
<path d="M66.9964 38.5219L65.5571 39.7546L65.9127 41.6121L64.2956 40.6327L62.6319 41.5446L63.0679 39.7039L61.6836 38.4121L63.5717 38.2517L64.3802 36.542L65.1126 38.2855L66.9964 38.5219Z" fill="#272929"/>
<path d="M25.7518 37.4875C27.9065 37.0949 28.5712 35.4654 28.5712 33.1646C28.5712 31.3578 27.6144 29.1752 25.9634 29.1752H24.9051V29.7662L24.9305 35.7693V39.2183C24.9305 40.527 25.0744 41.1603 26.2809 41.1603V41.5655H21.0273V41.1645C22.2338 41.1645 22.3058 40.527 22.3058 39.2183V30.9778C22.3058 29.6691 22.2338 29.0739 21.0273 29.0739V28.6729H26.391C29.3924 28.6729 30.8826 30.9694 30.8826 33.1266C30.8826 35.6427 29.1469 37.2849 25.9592 37.973L25.7475 37.479L25.7518 37.4875Z" fill="#272929"/>
<path d="M39.032 28.6812H42.4017V29.0569C41.5847 29.2891 41.0513 30.2389 40.2893 32.3666L36.9111 41.8651H36.3735L32.4999 30.9481C31.9835 29.5128 31.6279 29.1286 30.8828 29.0569V28.6812H36.1364V29.0569C35.0908 29.1286 34.7521 29.479 35.1077 30.4711L37.6858 37.7955L39.6543 32.261C40.3994 30.1883 40.2766 29.2891 39.032 29.0611V28.6854V28.6812Z" fill="#272929"/>
<path d="M15.956 41.8696C12.3535 41.8696 9.85156 39.1424 9.85156 35.1699C9.85156 30.8217 12.5821 28.3774 16.3413 28.3774C17.6367 28.3774 18.7712 28.6434 19.6644 29.0065V32.0798L19.2157 32.0544L18.8813 30.6233C18.7924 30.2392 18.6527 30.0112 18.3055 29.8212C17.6917 29.4962 16.8831 29.3864 16.2693 29.3864C13.3991 29.3864 12.4551 32.1895 12.4551 34.8618C12.4551 37.952 13.9791 40.6622 17.0736 40.6622C18.1574 40.6622 19.1988 40.4553 19.9481 39.9952L20.1513 40.4511C18.9617 41.2701 17.5266 41.8611 15.9518 41.8611" fill="#272929"/>
<path d="M42.952 36.947L44.6157 32.0246L46.0931 36.947H42.952ZM49.5603 39.3026L45.8137 28.6812H45.1914L41.9445 37.8884C41.1825 40.0118 40.6321 40.9533 39.832 41.1643V41.5696H43.0959V41.1643C41.8725 40.9321 41.8386 40.0667 42.5837 37.9939L42.7361 37.5887H46.2752L47.0456 39.7839C47.3843 40.7211 46.9737 41.0926 45.9238 41.1643V41.5696H51.1816V41.1643C50.4366 41.0926 50.081 40.738 49.5645 39.3068" fill="#272929"/>
<path d="M108.648 29.7408L108.618 29.7619C108.39 29.9435 108.11 30.0448 107.856 30.0448C107.475 30.0448 107.086 29.7535 107.086 29.1034C107.086 28.5461 107.357 28.2591 108.123 28.0016L108.644 27.8243V29.7408H108.648ZM110.553 29.9477C110.46 30.0068 110.362 30.0406 110.261 30.0406C109.918 30.0406 109.918 29.6395 109.918 29.3778V26.8871C109.918 25.7641 109.325 25.1436 108.241 25.1436C107.077 25.1436 106.311 25.8063 106.049 26.4818L106.362 26.6C106.671 26.0216 107.107 25.7304 107.661 25.7304C108.648 25.7304 108.648 26.6338 108.648 26.9293V27.5625L107.611 27.858C106.493 28.1789 105.926 28.7234 105.926 29.4791C105.926 30.1841 106.408 30.6991 107.124 30.6991C107.661 30.6991 108.25 30.4079 108.622 30.0237L108.72 29.9224L108.745 30.0617C108.821 30.4543 109.075 30.6991 109.499 30.6991C110.134 30.6991 110.519 30.2685 110.684 30.0786L110.549 29.9435L110.553 29.9477Z" fill="#272929"/>
<path d="M102.104 26.655V29.4454C102.104 29.9984 102.104 30.4839 101.647 30.5261V30.657H103.869V30.5261C103.412 30.4797 103.412 29.9984 103.412 29.4454V26.465L103.437 26.4439C103.662 26.2497 103.894 26.1568 104.148 26.1568C104.449 26.1568 104.737 26.3046 104.999 26.6001H105.05L105.342 25.2365C105.219 25.1985 105.059 25.1816 104.944 25.1816C104.47 25.1816 103.975 25.4814 103.543 26.0217L103.412 26.1864V25.2027H103.361L101.57 25.5616V25.6333C101.913 25.7684 102.099 25.9837 102.099 26.655" fill="#272929"/>
<path d="M82.822 30.678C83.5289 30.678 84.2529 30.5176 84.9683 30.2052L85.163 28.3899H85.108C84.4603 29.7915 83.7872 30.3614 82.7839 30.3614C81.4715 30.3614 80.7222 29.0865 80.7222 26.866C80.7222 24.6454 81.4546 23.3747 82.7839 23.3747C83.9057 23.3747 84.4857 24.0839 84.9937 25.152H85.0572L84.9979 23.5774C84.5111 23.3367 83.7533 23.0581 82.822 23.0581C80.6926 23.0581 79.2109 24.6328 79.2109 26.8871C79.2109 29.1414 80.6291 30.6738 82.822 30.6738" fill="#272929"/>
<path d="M87.3169 26.9967C87.4185 26.0384 87.8969 25.4643 88.6038 25.4643C88.8621 25.4643 89.0695 25.5445 89.2219 25.7049C89.4547 25.954 89.5479 26.3804 89.5055 27.0094V27.0769H87.3084L87.3169 26.9967ZM88.9848 29.8758C87.9477 29.8758 87.3169 28.9766 87.2957 27.4695V27.3935H90.6358C90.6739 26.7012 90.4961 26.1313 90.1278 25.7345C89.7807 25.363 89.2769 25.1646 88.6673 25.1646C87.1433 25.1646 85.9961 26.3888 85.9961 28.0141C85.9961 29.6394 86.9782 30.6779 88.3879 30.6779C89.6156 30.6779 90.276 29.9603 90.6189 29.3355L90.4411 29.2257C90.0135 29.6563 89.5267 29.8758 88.9891 29.8758" fill="#272929"/>
<path d="M112.09 37.9435C112.192 36.981 112.67 36.4111 113.377 36.4111C113.635 36.4111 113.847 36.4913 113.995 36.6517C114.228 36.9008 114.321 37.3271 114.279 37.9562V38.0237H112.082L112.09 37.9435ZM113.762 40.8226C112.725 40.8226 112.094 39.9234 112.073 38.4163V38.3403H115.413C115.447 37.648 115.273 37.0781 114.905 36.6812C114.558 36.3097 114.054 36.1113 113.445 36.1113C111.921 36.1113 110.773 37.3356 110.773 38.9609C110.773 40.5862 111.756 41.6247 113.165 41.6247C114.393 41.6247 115.053 40.907 115.396 40.2822L115.218 40.1725C114.791 40.6031 114.304 40.8226 113.766 40.8226" fill="#272929"/>
<path d="M126.62 37.9435C126.721 36.981 127.2 36.4111 127.907 36.4111C128.165 36.4111 128.376 36.4913 128.525 36.6517C128.757 36.9008 128.851 37.3271 128.808 37.9562V38.0237H126.611L126.62 37.9435ZM128.288 40.8226C127.25 40.8226 126.62 39.9234 126.598 38.4163V38.3403H129.939C129.972 37.648 129.799 37.0781 129.431 36.6812C129.083 36.3097 128.58 36.1113 127.97 36.1113C126.45 36.1113 125.299 37.3356 125.299 38.9609C125.299 40.5862 126.281 41.6247 127.691 41.6247C128.918 41.6247 129.579 40.907 129.922 40.2822L129.744 40.1725C129.316 40.6031 128.829 40.8226 128.292 40.8226" fill="#272929"/>
<path d="M91.8889 26.6424V29.4329C91.8889 29.9859 91.8889 30.4714 91.4317 30.5136V30.6445H93.6542V30.5136C93.197 30.4672 93.197 29.9859 93.197 29.4329V26.2414L93.2308 26.2203C93.5949 25.9965 93.9674 25.8699 94.2553 25.8699C95.0512 25.8699 95.1147 26.4694 95.1147 27.0815V29.4371C95.1147 29.9902 95.1147 30.4756 94.6575 30.5178V30.6487H96.8715V30.5178C96.4143 30.4714 96.4143 29.9902 96.4143 29.4371V26.71C96.4143 25.6884 95.9867 25.1733 95.1443 25.1733C94.5389 25.1733 93.8574 25.4477 93.3197 25.9079L93.197 26.0134V25.1944H93.1462L91.3555 25.5533V25.625C91.6984 25.7601 91.8846 25.9754 91.8846 26.6467" fill="#272929"/>
<path d="M97.9852 29.2932C97.9852 30.222 98.3916 30.6737 99.2256 30.6737C99.8056 30.6737 100.449 30.3993 100.957 29.9349L100.813 29.7534C100.627 29.8631 100.343 29.9771 99.9707 29.9771C99.505 29.9771 99.2849 29.7196 99.2849 29.1581V25.7471H100.762L100.898 25.287H99.2849V23.7461H99.2129C98.7218 24.5271 98.307 25.0168 97.545 25.3418L97.4434 25.3841V25.7471H97.981V29.2932H97.9852Z" fill="#272929"/>
<path d="M113.123 29.4707V22.6655H113.072L111.281 22.9442V23.0159C111.624 23.151 111.81 23.3663 111.81 24.0375V29.4707C111.81 30.0237 111.81 30.5092 111.353 30.5556V30.6865H113.576V30.5556C113.119 30.5092 113.119 30.0279 113.119 29.4707" fill="#272929"/>
<path d="M81.9193 51.5582L81.8897 51.5793C81.6611 51.7609 81.3817 51.8622 81.1277 51.8622C80.7467 51.8622 80.3572 51.5709 80.3572 50.9208C80.3572 50.3635 80.6281 50.0765 81.3901 49.8189L81.9151 49.6416V51.5582H81.9193ZM83.8243 51.7651C83.7312 51.8242 83.6338 51.858 83.5322 51.858C83.1893 51.858 83.1893 51.4611 83.1893 51.1952V48.7044C83.1893 47.5815 82.5924 46.9609 81.5129 46.9609C80.3487 46.9609 79.5825 47.6237 79.32 48.2992L79.6333 48.4174C79.9423 47.839 80.3784 47.5477 80.9329 47.5477C81.9193 47.5477 81.9193 48.4512 81.9193 48.7467V49.3799L80.8821 49.6754C79.7645 49.9962 79.1973 50.5408 79.1973 51.2965C79.1973 52.0015 79.6799 52.5165 80.3953 52.5165C80.9329 52.5165 81.5214 52.2252 81.8939 51.8411L81.9955 51.7398L82.0209 51.8791C82.0971 52.2717 82.3511 52.5165 82.7787 52.5165C83.4137 52.5165 83.7989 52.0859 83.9598 51.9002L83.8243 51.7651Z" fill="#272929"/>
<path d="M91.1361 40.7633L91.1065 40.7844C90.8779 40.9659 90.5985 41.0673 90.3445 41.0673C89.9592 41.0673 89.574 40.776 89.574 40.1258C89.574 39.5686 89.8449 39.2815 90.6069 39.024L91.1319 38.8467V40.7633H91.1361ZM93.0411 40.9702C92.948 41.0293 92.8506 41.063 92.749 41.063C92.4061 41.063 92.4061 40.6662 92.4061 40.4002V37.9095C92.4061 36.7866 91.8092 36.166 90.7297 36.166C89.5655 36.166 88.7993 36.8288 88.5368 37.5043L88.8501 37.6225C89.1591 37.0441 89.5952 36.7528 90.1497 36.7528C91.1361 36.7528 91.1361 37.6562 91.1361 37.9517V38.585L90.0989 38.8805C88.9813 39.2013 88.4141 39.7501 88.4141 40.5016C88.4141 41.2066 88.8967 41.7216 89.6121 41.7216C90.1497 41.7216 90.7382 41.4303 91.1107 41.0462L91.2123 40.9448L91.2377 41.0841C91.3139 41.4767 91.5679 41.7216 91.9955 41.7216C92.6305 41.7216 93.0157 41.291 93.1766 41.1053L93.0411 40.9702Z" fill="#272929"/>
<path d="M102.617 40.7633L102.587 40.7844C102.358 40.9659 102.079 41.0673 101.825 41.0673C101.44 41.0673 101.054 40.776 101.054 40.1258C101.054 39.5686 101.325 39.2815 102.087 39.024L102.612 38.8467V40.7633H102.617ZM104.522 40.9702C104.428 41.0293 104.331 41.063 104.229 41.063C103.887 41.063 103.887 40.6662 103.887 40.4002V37.9095C103.887 36.7866 103.29 36.166 102.21 36.166C101.046 36.166 100.28 36.8288 100.017 37.5043L100.331 37.6225C100.64 37.0441 101.076 36.7528 101.63 36.7528C102.617 36.7528 102.617 37.6562 102.617 37.9517V38.585L101.579 38.8805C100.462 39.2013 99.8945 39.7501 99.8945 40.5016C99.8945 41.2066 100.377 41.7216 101.093 41.7216C101.63 41.7216 102.219 41.4303 102.591 41.0462L102.689 40.9448L102.714 41.0841C102.79 41.4767 103.044 41.7216 103.472 41.7216C104.107 41.7216 104.492 41.291 104.657 41.1053L104.522 40.9702Z" fill="#272929"/>
<path d="M86.7033 47.2435C87.5118 47.2435 87.6177 48.0287 87.6177 48.7126C87.6177 49.3458 87.5245 50.1901 86.7033 50.1901C85.882 50.1901 85.7804 49.4007 85.7804 48.7126C85.7804 48.0836 85.8778 47.2435 86.7033 47.2435ZM87.8209 51.2582H86.1021C85.6576 51.2582 85.5941 51.026 85.5941 50.8825C85.5941 50.6925 85.6746 50.5827 85.937 50.4096L85.9624 50.3928L85.9963 50.4012C86.2207 50.4561 86.4535 50.4814 86.6906 50.4814C87.9352 50.4814 88.7395 49.7849 88.7395 48.7084C88.7395 48.2566 88.6083 47.8809 88.3458 47.5896L88.223 47.4503L89.3407 47.5432L89.4846 46.9986L87.5415 47.0788H87.5288C87.2748 47.0028 86.9996 46.9648 86.7117 46.9648C85.4798 46.9648 84.6543 47.6783 84.6543 48.7379C84.6543 49.4387 84.9888 49.979 85.5941 50.2619L85.7211 50.321L85.5984 50.3928C84.993 50.7516 84.7136 51.1189 84.7136 51.5495C84.7136 52.0349 85.0311 52.3136 85.5814 52.3136H87.5923C88.3416 52.3136 88.7226 52.5964 88.7226 53.1537C88.7226 53.8038 87.9352 54.3526 87.0039 54.3526C85.9582 54.3526 85.4671 53.9938 85.4671 53.2254C85.4671 52.9679 85.5179 52.7695 85.6407 52.5753H85.3444L85.1835 52.6597C84.8829 52.8793 84.5273 53.1368 84.5273 53.656C84.5273 54.2428 85.1073 54.8296 86.3985 54.8296C87.8928 54.8296 89.5015 53.9726 89.5015 52.5922C89.5015 51.4946 88.5871 51.2624 87.8167 51.2624" fill="#272929"/>
<path d="M107.399 36.449C108.207 36.449 108.313 37.2342 108.313 37.9181C108.313 38.5514 108.22 39.3957 107.399 39.3957C106.578 39.3957 106.476 38.6063 106.476 37.9181C106.476 37.2891 106.573 36.449 107.399 36.449ZM108.517 40.4595H106.798C106.353 40.4595 106.29 40.2273 106.29 40.088C106.29 39.8981 106.37 39.7883 106.633 39.6152L106.658 39.5983L106.692 39.6068C106.916 39.6616 107.149 39.687 107.386 39.687C108.631 39.687 109.435 38.9904 109.435 37.9139C109.435 37.4622 109.304 37.0865 109.041 36.7952L108.914 36.6559L110.032 36.7488L110.176 36.2042L108.237 36.2844H108.224C107.97 36.2084 107.695 36.1704 107.407 36.1704C106.175 36.1704 105.35 36.8839 105.35 37.9435C105.35 38.6442 105.684 39.1846 106.29 39.4675L106.417 39.5266L106.294 39.5983C105.689 39.9572 105.409 40.3244 105.409 40.755C105.409 41.2405 105.727 41.5191 106.277 41.5191H108.288C109.037 41.5191 109.418 41.802 109.418 42.3592C109.418 43.0093 108.631 43.5582 107.695 43.5582C106.65 43.5582 106.163 43.1993 106.163 42.431C106.163 42.1735 106.214 41.9751 106.332 41.7809H106.036L105.875 41.8653C105.574 42.0848 105.219 42.3423 105.219 42.8616C105.219 43.4484 105.799 44.0394 107.09 44.0394C108.584 44.0394 110.197 43.1824 110.197 41.7978C110.197 40.7002 109.279 40.468 108.512 40.468" fill="#272929"/>
<path d="M91.2505 48.7889C91.3479 47.8306 91.8305 47.2564 92.5374 47.2564C92.7957 47.2564 93.0073 47.3367 93.1555 47.4971C93.3883 47.7462 93.4815 48.1725 93.4391 48.8015V48.8691H91.242L91.2505 48.7889ZM92.9184 51.6722C91.8813 51.6722 91.2505 50.773 91.2293 49.2659V49.1899H94.5694C94.6033 48.4976 94.4297 47.9277 94.0614 47.5308C93.7143 47.1594 93.2105 46.9609 92.6009 46.9609C91.0769 46.9609 89.9297 48.1852 89.9297 49.8105C89.9297 51.4358 90.9118 52.5165 92.3215 52.5165C93.5492 52.5165 94.2096 51.7524 94.5525 51.1276L94.3747 51.0179C93.9471 51.4485 93.4603 51.668 92.9227 51.668" fill="#272929"/>
<path d="M100.352 51.2247V48.4976C100.352 47.476 99.9242 46.9609 99.0818 46.9609C98.4764 46.9609 97.7949 47.2353 97.2572 47.6955L97.1345 47.801V46.982H97.0837L95.293 47.3409V47.4126C95.6359 47.5477 95.8221 47.763 95.8221 48.4343V51.2205C95.8221 51.7735 95.8221 52.259 95.3649 52.3054V52.4363H97.5874V52.3054C97.1302 52.259 97.1302 51.7777 97.1302 51.2205V48.029L97.1641 48.0079C97.5324 47.7841 97.9049 47.6575 98.1886 47.6575C98.9844 47.6575 99.0479 48.257 99.0479 48.8691V51.2247C99.0479 51.7777 99.0479 52.2632 98.5907 52.3097V52.4405H100.805V52.3097C100.348 52.2632 100.348 51.782 100.348 51.2247" fill="#272929"/>
<path d="M98.844 40.3795V37.6524C98.844 36.6308 98.4164 36.1157 97.574 36.1157C96.9686 36.1157 96.2828 36.3901 95.7494 36.8503L95.6267 36.9558V36.1368H95.5759L93.7852 36.4957V36.5674C94.1281 36.7025 94.3143 36.9178 94.3143 37.589V40.3753C94.3143 40.9283 94.3143 41.4138 93.8571 41.4602V41.5911H96.0796V41.4602C95.6224 41.4138 95.6224 40.9325 95.6224 40.3753V37.1838L95.6563 37.1627C96.0246 36.9389 96.3971 36.8123 96.6808 36.8123C97.4766 36.8123 97.5401 37.4117 97.5401 38.0239V40.3795C97.5401 40.9325 97.5401 41.418 97.0829 41.4644V41.5953H99.297V41.4644C98.8398 41.418 98.8398 40.9368 98.8398 40.3795" fill="#272929"/>
<path d="M135.801 40.3795V37.6524C135.801 36.6308 135.373 36.1157 134.531 36.1157C133.926 36.1157 133.244 36.3901 132.706 36.8503L132.584 36.9558V36.1368H132.533L130.742 36.4957V36.5674C131.085 36.7025 131.271 36.9178 131.271 37.589V40.3753C131.271 40.9283 131.271 41.4138 130.814 41.4602V41.5911H133.037V41.4602C132.579 41.4138 132.579 40.9325 132.579 40.3753V37.1838L132.613 37.1627C132.982 36.9389 133.354 36.8123 133.638 36.8123C134.434 36.8123 134.497 37.4117 134.497 38.0239V40.3795C134.497 40.9325 134.497 41.418 134.04 41.4644V41.5953H136.254V41.4644C135.797 41.418 135.797 40.9368 135.797 40.3795" fill="#272929"/>
<path d="M119.143 30.2942C118.546 30.2942 118.186 29.7834 118.186 28.9306V26.0557L118.216 26.0346C118.482 25.8151 118.796 25.6969 119.121 25.6969C119.939 25.6969 120.451 26.6087 120.451 28.0736C120.451 29.5385 119.985 30.2984 119.143 30.2984M119.756 25.0763C119.215 25.0763 118.69 25.2832 118.317 25.6462L118.19 25.7687V25.0974H118.139L116.361 25.4563V25.528C116.704 25.6631 116.89 25.8784 116.89 26.5496V31.6915C116.89 32.2445 116.891 32.73 116.433 32.7765V32.9073H118.647V32.7765C118.19 32.73 118.19 32.2488 118.19 31.6915V30.3702L118.292 30.4124C118.563 30.5264 118.851 30.5812 119.176 30.5812C120.929 30.5812 121.848 29.1206 121.848 27.681C121.848 26.2415 120.95 25.0679 119.756 25.0679" fill="#272929"/>
<path d="M123.085 26.5539V29.3444C123.085 29.8974 123.085 30.3829 122.627 30.4293V30.6066H124.85V30.4293C124.393 30.3829 124.393 29.9016 124.393 29.3444V26.2753L124.418 26.2542C124.642 26.06 124.875 25.9671 125.129 25.9671C125.43 25.9671 125.718 26.1149 125.98 26.4104H126.031L126.323 25.1354C126.2 25.0975 126.039 25.0806 125.921 25.0806C125.447 25.0806 124.947 25.3803 124.52 25.9207L124.388 26.0895V25.1059H124.338L122.547 25.4647V25.5365C122.89 25.6716 123.076 25.8869 123.076 26.5581" fill="#272929"/>
<path d="M129.417 30.3025C128.6 30.3025 128.109 29.3779 128.109 27.8329C128.109 26.2878 128.566 25.3632 129.396 25.3632C130.226 25.3632 130.691 26.2878 130.691 27.8329C130.691 29.3779 130.238 30.3025 129.417 30.3025ZM129.417 25.0762C127.834 25.0762 126.725 26.216 126.725 27.854C126.725 29.4919 127.796 30.6782 129.396 30.6782C130.996 30.6782 132.076 29.4202 132.076 27.8117C132.076 26.2033 131.005 25.0762 129.417 25.0762Z" fill="#272929"/>
<path d="M134.569 30.4754V25.0972H134.518L132.74 25.456V25.5278C133.083 25.6629 133.269 25.8782 133.269 26.5494V30.7414C133.269 31.7968 132.994 32.3498 132.316 32.6242L132.359 32.8058C133.434 32.6411 134.569 31.8517 134.569 30.4712" fill="#272929"/>
<path d="M133.059 23.4341C133.059 23.8604 133.406 24.2066 133.833 24.2066C134.261 24.2066 134.6 23.8647 134.6 23.4341C134.6 23.0035 134.257 22.6826 133.833 22.6826C133.41 22.6826 133.059 23.0203 133.059 23.4341Z" fill="#272929"/>
<path d="M137.139 26.9041C137.241 25.9416 137.719 25.3717 138.426 25.3717C138.684 25.3717 138.896 25.4519 139.044 25.6123C139.277 25.8614 139.37 26.2878 139.328 26.9168V26.9843H137.131L137.139 26.9041ZM138.807 29.7874C137.77 29.7874 137.139 28.8882 137.118 27.3811V27.3052H140.458C140.492 26.6128 140.318 26.0429 139.95 25.6461C139.603 25.2746 139.099 25.0762 138.49 25.0762C136.966 25.0762 135.818 26.3004 135.818 27.9257C135.818 29.551 136.801 30.6782 138.21 30.6782C139.438 30.6782 140.098 29.8719 140.441 29.2429L140.263 29.1331C139.836 29.5637 139.349 29.7832 138.811 29.7832" fill="#272929"/>
<path d="M149.856 29.665C149.67 29.7748 149.386 29.8888 149.014 29.8888C148.544 29.8888 148.328 29.627 148.328 29.0698V25.6587H149.805L149.941 25.1986H148.328V23.6577H148.256C147.765 24.4387 147.35 24.9284 146.588 25.2535L146.486 25.2957V25.6587H147.024V29.2049C147.024 30.1336 147.43 30.6782 148.264 30.6782C148.849 30.6782 149.488 30.3109 149.996 29.8465L149.852 29.665H149.856Z" fill="#272929"/>
<path d="M140.29 40.7129C140.103 40.8226 139.82 40.9366 139.447 40.9366C138.977 40.9366 138.761 40.6749 138.761 40.1176V36.7066H140.239L140.374 36.2464H138.761V34.7056H138.689C138.198 35.4866 137.784 35.9763 137.022 36.3013L136.92 36.3435V36.7066H137.458V40.2527C137.458 41.1815 137.864 41.726 138.698 41.726C139.282 41.726 139.921 41.3588 140.429 40.8944L140.285 40.7129H140.29Z" fill="#272929"/>
<path d="M110.104 47.2054C110.278 47.2434 110.401 47.3236 110.472 47.4461C110.608 47.6783 110.566 48.0666 110.337 48.6746L109.575 50.6967L108.572 48.054C108.479 47.8049 108.402 47.5516 108.512 47.3828C108.576 47.2857 108.686 47.2266 108.86 47.2012V47.1548H106.531V47.2054C106.891 47.2983 107.056 47.6318 107.314 48.2819L108.94 52.3895L108.652 53.1621C108.5 53.5673 108.271 53.8291 107.975 53.9388C107.666 54.0528 107.289 53.9937 106.883 53.77H106.823L106.73 54.7958C106.874 54.8254 107.035 54.8423 107.2 54.8423C108.021 54.8423 108.576 54.3779 108.944 53.3816L110.693 48.7337C111.078 47.6994 111.256 47.3194 111.518 47.2181V47.159H110.104V47.2097V47.2054Z" fill="#272929"/>
<path d="M87.3129 40.3922V37.6651C87.3129 36.9643 87.0928 36.1284 86.0302 36.1284C85.391 36.1284 84.7094 36.4281 84.1549 36.9432L84.0702 37.0234L84.0321 36.9136C83.8543 36.3902 83.4606 36.1284 82.8595 36.1284C82.2583 36.1284 81.6275 36.3986 81.1068 36.8545L80.9841 36.9643V36.1537H80.9333L79.1426 36.5126V36.5843C79.4855 36.7194 79.6717 36.9347 79.6717 37.606V40.3922C79.6717 40.9452 79.6717 41.4307 79.2145 41.4771V41.608H81.437V41.4771C80.9798 41.4307 80.9798 40.9494 80.9798 40.3922V37.1923L81.0137 37.1711C81.3524 36.9516 81.691 36.8292 81.9662 36.8292C82.6901 36.8292 82.8383 37.3147 82.8383 38.0408V40.3964C82.8383 40.9494 82.8383 41.4349 82.3811 41.4814V41.6122H84.5951V41.4814C84.1379 41.4349 84.1379 40.9537 84.1379 40.3964V37.6693C84.1379 37.5342 84.1295 37.4076 84.1168 37.2725V37.2302L84.1506 37.2049C84.4004 37.0361 84.7729 36.8292 85.137 36.8292C85.9329 36.8292 86.0006 37.4287 86.0006 38.0408V40.3964C86.0006 40.9494 86.0006 41.4349 85.5434 41.4814V41.6122H87.7659V41.4814C87.3087 41.4349 87.3087 40.9537 87.3087 40.3964" fill="#272929"/>
<path d="M124.274 40.3922V37.6651C124.274 36.9643 124.049 36.1284 122.991 36.1284C122.352 36.1284 121.67 36.4281 121.116 36.9432L121.031 37.0234L120.993 36.9136C120.815 36.3902 120.422 36.1284 119.82 36.1284C119.219 36.1284 118.588 36.3986 118.068 36.8545L117.945 36.9643V36.1537H117.894L116.104 36.5126V36.5843C116.446 36.7194 116.633 36.9347 116.633 37.606V40.3922C116.633 40.9452 116.633 41.4307 116.175 41.4771V41.608H118.398V41.4771C117.941 41.4307 117.941 40.9494 117.941 40.3922V37.1923L117.975 37.1711C118.313 36.9516 118.652 36.8292 118.927 36.8292C119.651 36.8292 119.799 37.3147 119.799 38.0408V40.3964C119.799 40.9494 119.799 41.4349 119.342 41.4814V41.6122H121.556V41.4814C121.099 41.4349 121.099 40.9537 121.099 40.3964V37.6693C121.099 37.5342 121.09 37.4076 121.078 37.2725V37.2302L121.112 37.2049C121.361 37.0361 121.734 36.8292 122.098 36.8292C122.894 36.8292 122.962 37.4287 122.962 38.0408V40.3964C122.962 40.9494 122.962 41.4349 122.504 41.4814V41.6122H124.727V41.4814C124.27 41.4349 124.27 40.9537 124.27 40.3964" fill="#272929"/>
<path d="M141.246 28.0229C141.246 26.3258 142.457 25.1606 143.875 25.1606C144.658 25.1606 145.446 25.5279 145.839 25.9923L145.247 26.8535H145.137C144.933 26.2118 144.502 25.5955 143.85 25.5955C143.248 25.5955 142.588 26.0514 142.588 27.4023C142.588 28.7532 143.21 29.7875 144.269 29.7875C144.861 29.7875 145.327 29.4709 145.653 29.1289L145.882 29.2809C145.463 30.083 144.781 30.7247 143.659 30.7247C142.161 30.7247 141.246 29.5257 141.246 28.0229Z" fill="#272929"/>
<path d="M101.523 49.8822C101.523 48.1852 102.734 47.02 104.152 47.02C104.936 47.02 105.723 47.3873 106.117 47.8517L105.528 48.7129H105.346C105.143 48.0712 104.787 47.4548 104.135 47.4548C103.534 47.4548 102.874 47.9108 102.874 49.2617C102.874 50.6126 103.496 51.6469 104.555 51.6469C105.147 51.6469 105.613 51.3302 105.939 50.9883L106.163 51.1403C105.744 51.9424 105.063 52.584 103.941 52.584C102.442 52.584 101.528 51.3851 101.528 49.8822" fill="#272929"/>
</g>
<defs>
<clipPath id="clip0_1196_6113">
<rect width="150" height="66" fill="white"/>
</clipPath>
</defs>
</svg>
