<svg width="501" height="500" viewBox="0 0 501 500" fill="none" xmlns="http://www.w3.org/2000/svg">
<rect width="500" height="500" transform="translate(0.351562)" fill="#252525"/>
<path d="M143.3 143.3V355.7H355.7V143.3H143.3ZM346.697 297.123H312.968L289.741 158.244C289.201 155.123 291.602 152.302 294.783 152.302H346.697V297.123ZM244.969 306.126V340.696C244.969 343.996 242.268 346.697 238.967 346.697H193.114C189.933 346.697 187.473 343.816 188.013 340.696L193.774 306.126H244.969ZM195.335 297.123L218.621 158.244C219.221 154.823 222.162 152.302 225.643 152.302H239.027C242.328 152.302 245.029 155.003 245.029 158.304V297.123H195.335ZM253.971 306.126H305.286L311.047 340.756C311.588 343.876 309.187 346.697 306.006 346.697H259.913C256.612 346.697 253.911 343.996 253.911 340.696V306.126H253.971ZM253.971 297.123V158.304C253.971 155.003 256.672 152.302 259.973 152.302H273.537C277.018 152.302 279.959 154.823 280.499 158.244L303.725 297.183H253.911L253.971 297.123ZM209.499 158.184L186.212 297.123H152.303V152.302H204.517C207.638 152.302 210.039 155.123 209.499 158.184ZM152.303 306.126H184.712L178.89 340.756C178.29 344.177 175.349 346.697 171.868 346.697H152.303V306.126ZM320.23 340.696L314.468 306.186H346.697V346.757H327.312C323.771 346.757 320.77 344.237 320.23 340.756V340.696Z" fill="#F6F6F6"/>
</svg>
