<svg width="500" height="500" viewBox="0 0 500 500" fill="none" xmlns="http://www.w3.org/2000/svg">
<rect width="500" height="500" fill="#252525"/>
<path d="M221.967 156.17C221.967 154.28 220.862 153.2 218.928 153.2H194.338C192.404 153.2 191.298 154.28 191.298 156.17V343.83C191.298 345.72 192.404 346.8 194.338 346.8H218.928C220.862 346.8 221.967 345.72 221.967 343.83V280.917C222.243 257.425 231.913 240.145 254.293 240.145C269.213 240.145 278.33 250.135 278.33 267.416V343.83C278.33 345.72 279.435 346.8 281.369 346.8H305.959C307.893 346.8 308.998 345.72 308.998 343.83V264.176C308.998 232.314 289.934 213.143 258.437 213.143C242.689 213.143 230.808 218.813 221.414 228.804C218.099 231.234 216.441 229.344 217.546 226.374C220.585 217.193 221.967 208.553 221.967 195.592V156.17Z" fill="#F6F6F6"/>
</svg>
