<svg width="501" height="500" viewBox="0 0 501 500" fill="none" xmlns="http://www.w3.org/2000/svg">
<rect width="500" height="500" transform="translate(0.351562)" fill="#252525"/>
<path d="M354.208 204.99C350.802 200.786 349.803 198.491 339.503 197.729C338.686 197.67 337.87 197.67 337.046 197.729C335.123 196.632 333.141 195.576 332.183 195.241C329.227 194.22 318.352 196.766 318.352 196.766L319.818 199.111C319.935 199.245 320.051 199.379 320.176 199.504C321.425 200.786 322.99 201.674 324.772 201.958C324.897 201.984 325.022 202 325.147 202.017C325.622 202.084 326.121 202.092 326.621 202.076C326.871 202.084 327.121 202.042 327.37 202.025C327.637 202.009 327.812 201.975 328.078 201.917C329.069 201.682 330.135 201.33 331.201 201.029C332.267 200.719 333.357 200.417 334.473 200.225C335.031 200.124 335.606 200.066 336.18 200.057C336.746 200.049 337.346 200.091 337.845 200.367C336.738 200.208 335.714 200.677 334.715 201.062C333.715 201.489 332.733 201.958 331.734 202.444C331.525 202.545 331.326 202.637 331.117 202.746C330.326 203.123 329.527 203.491 328.636 203.826C328.37 203.927 328.012 204.035 327.728 204.094C327.437 204.153 327.146 204.228 326.846 204.27C326.246 204.362 325.638 204.421 325.014 204.421C323.881 204.437 322.724 204.228 321.625 203.834C314.722 208.198 307.544 214.094 299.85 218.793C295.412 221.498 275.186 232.193 258.166 236.021C230.546 242.219 217.565 243.827 208.913 250.066C208.78 250.175 208.588 250.317 208.355 250.468C206.457 251.766 201.361 254.514 194.333 256.875C186.106 259.639 175.381 262.068 166.713 263.09C149.701 265.092 139.235 262.545 139.235 262.545C139.235 262.545 144.38 268.969 164.74 267.562C182.725 266.323 197.014 261.021 200.528 259.614C196.065 266.951 192.959 275.251 187.214 276.926C179.744 279.103 170.926 279.907 166.43 280.117C163.049 280.276 146.437 293.802 142.873 295.62C142.032 296.047 139.343 296.608 137.103 296.859C133.755 297.228 131.824 298.635 130.325 301.683C129.942 302.479 129.109 305 129.109 305C129.109 305 137.902 305 142.315 303.844C146.695 302.705 161.858 288.97 167.313 288.618C172.775 288.258 194.958 290.737 200.595 290.209C206.224 289.681 210.104 286.315 217.848 279.405C225.592 272.504 235.109 264.137 240.647 262.319C247.375 260.125 253.945 262.939 272.43 268.601C280.257 271.005 288.967 270.812 296.936 268.726C298.635 269.723 304.263 272.973 306.578 274.053C308.302 274.866 310.151 275.393 311.624 274.849C324.023 270.259 334.565 266.934 334.565 266.934L329.202 271.683C326.837 273.777 325.838 277.236 326.163 280.393C326.338 282.077 326.962 283.852 328.445 285.402C328.445 285.402 333.058 279.891 334.573 278.082C338.936 272.864 340.976 269.69 342.542 266.926C343.816 264.673 341.268 260.418 339.144 260.167C336.288 259.832 325.921 261.398 315.43 263.257L313.04 261.046C316.662 258.274 319.568 254.991 321.383 251.339C324.806 244.488 327.179 224.011 336.155 219.329C343.466 215.526 357.863 218.575 364.508 217.562C367.98 217.034 370.836 213.139 371.594 210.032L354.208 204.99Z" fill="#FBFAF8"/>
<path d="M238.599 268.191C235.169 269.782 218.956 283.66 218.956 283.66L221.887 283.752C228.882 283.978 235.702 281.516 240.964 276.876L250.032 268.869C246.327 267.01 242.03 266.591 238.599 268.191Z" fill="#FBFAF8"/>
<path d="M353.259 246.163C351.618 245.267 345.39 244.723 336.705 244.991C336.672 244.991 336.638 244.991 336.605 244.991C331.651 245.142 327.246 248.257 325.539 252.939C325.147 254.028 324.723 255.1 324.223 256.281L349.82 251.633C351.635 253.249 354.366 261.624 357.447 264.154C361.486 267.462 365.865 265.527 365.865 265.527C358.879 253.952 355.524 247.403 353.259 246.163Z" fill="#FBFAF8"/>
</svg>
