<svg width="501" height="500" viewBox="0 0 501 500" fill="none" xmlns="http://www.w3.org/2000/svg">
<rect width="500" height="500" transform="translate(0.349609)" fill="black"/>
<path d="M426.966 312.685C433.385 312.685 436.222 309.023 436.222 303.118C436.222 297.117 430.01 276.155 405.795 276.155C381.079 276.155 371.373 300.707 371.373 318.839C371.373 346.095 388.462 358.419 407.15 358.419C424.211 358.419 433.645 343.536 433.645 335.924C433.645 332.781 430.506 331.454 427.815 332.945C422.768 336.723 417.417 337.634 412.763 337.325C404.896 336.799 396.647 328.374 394.86 321.231C393.672 316.485 396.182 312.535 401.826 312.535C406.816 312.535 425.062 312.685 426.961 312.685H426.966ZM411.694 303.96C410.564 305.159 408.965 305.879 406.895 305.974C405.328 306.048 401.568 306.1 400.616 305.974C398.457 305.687 396.754 304.788 395.528 303.133C394.302 301.478 393.978 299.644 394.555 297.63C395.373 294.753 396.406 292.282 397.658 290.221C399.39 287.438 401.64 286.083 404.407 286.157C407.174 286.228 409.397 287.702 411.084 290.582C412.479 292.981 413.223 295.787 413.321 299C413.369 301.112 412.827 302.767 411.697 303.965L411.694 303.96Z" fill="white"/>
<path d="M323.726 348.283C323.726 353.892 328.883 355.885 332.569 355.885C336.657 355.885 343.737 355.885 345.068 355.885C348.914 355.885 351.483 353.747 351.483 349.315C351.483 340.203 351.325 327.06 351.325 317.289C351.325 309.095 354.763 302.446 363.486 300.52C368.746 299.359 372.709 296.96 374.297 293.724C377.322 287.567 378.942 277.992 368.894 276.156C360.803 274.677 357.399 285.285 351.354 282.909C348.124 281.57 347.132 273.928 330.603 280.027C325.684 281.841 322.457 286.279 323.091 291.455C324.324 301.488 323.723 335.594 323.723 348.283H323.726Z" fill="white"/>
<path d="M309.314 276.749C304.891 276.906 296.542 277.472 293.878 278.809C290.82 280.342 289.911 283.079 289.911 286.922C289.911 290.765 290.159 325.073 290.159 330.678C290.159 336.281 288.515 341.864 282.58 341.864C276.862 341.864 274.987 335.18 274.987 330.678C274.987 326.177 274.672 293.14 274.672 284.782C274.672 276.424 268.735 276.678 262.461 277.056C259.904 277.211 256.412 278.169 251.655 278.169C242.924 278.169 235.153 278.252 235.51 272.227C235.809 267.221 235.811 259.752 229.742 259.983C227.195 260.08 224.709 262.855 223.774 263.864C219.18 268.81 214.008 273.473 208.328 277.197C203.729 280.169 204.001 284.321 208.013 288.475C209.208 290.411 209.507 292.646 209.507 294.881C209.507 301.584 208.839 337.631 211.3 345.828C215.802 360.825 237.004 362.048 246.717 351.49C249.399 349.05 252.118 342.551 246.269 342.104C241.429 342.584 236.259 341.631 235.809 335.548C235.36 331.377 235.658 302.476 235.51 295.623C235.51 292.068 236.62 286.054 242.524 286.054C248.261 286.054 249.585 290.748 249.585 294.803C249.585 295.797 249.566 318.836 249.566 334.79C249.566 350.743 258.816 358.443 270.956 358.443C283.095 358.443 280.968 354.101 287.795 352.997C294.102 351.977 295.982 358.566 306.907 356.286C316.065 354.377 316.105 347.236 316.105 337.61C316.105 330.59 316.229 307.505 316.229 300.954V284.028C316.229 278.352 313.429 276.602 309.314 276.747V276.749Z" fill="white"/>
<path d="M203.436 349.057C201.953 332.207 203.541 311.754 200.261 295.751C197.761 283.557 188.313 276.944 174.706 276.235C165.403 275.75 148.309 277.172 143.714 285.754C139.883 292.912 141.827 307.072 149.749 307.072C157.571 307.434 161.97 284.594 173.289 286.215C178.597 286.558 179.849 291.257 179.098 297.078C178.597 300.958 177.077 306.946 162.602 311.69C156.03 313.844 149.597 318.034 144.521 322.714C126.231 342.843 148.764 368.161 172.168 354.592C181.452 349.002 185.14 358.996 194.584 358.169C201.142 357.593 203.852 353.751 203.439 349.057H203.436ZM176.45 334.639C175.915 341.026 172.919 342.629 169.732 342.591C164.926 342.532 161.593 336.948 161.946 332.311C162.385 326.58 165.439 322.117 167.979 320.182C171.417 317.499 175.875 317.939 176.323 322.257C176.65 326.043 176.76 330.934 176.447 334.639H176.45Z" fill="white"/>
<path d="M133.427 316.669C133.055 291.768 131.968 288.389 129.527 285.114C127.967 283.022 123.518 278.73 117.314 276.742C115.897 276.288 110.238 274.74 104.521 276.309C100.165 277.505 98.5212 279.619 95.1982 279.745C91.7536 279.876 90.8972 277.698 86.2933 277.327C80.8592 276.889 77.4504 277.515 73.0278 278.832C68.4096 280.209 65.7498 281.288 65.6234 289.271C65.5709 292.6 65.6281 299.254 66.1004 316.546C66.4988 331.106 66.1887 344.084 66.1887 350.638C66.1887 353.667 68.8771 355.884 72.2239 355.884C75.5898 355.884 82.021 355.884 84.1369 355.884C86.9326 355.884 91.298 354.547 91.298 350.524C91.298 346.156 91.1763 331.512 91.1763 315.987C91.1763 303.515 89.9741 290.377 98.8885 289.92C109.299 289.388 108.48 303.462 108.275 318.481C108.111 330.478 108.497 345.747 108.497 350.405C108.497 354.267 111.519 355.853 115.744 355.853C116.756 355.853 125.028 355.884 126.443 355.884C132.106 355.884 133.735 352.975 133.735 348.778C133.735 344.132 133.733 337.153 133.427 316.669V316.669Z" fill="white"/>
<path d="M433.273 207.358C432.901 182.456 431.813 179.077 429.373 175.803C427.813 173.71 423.364 169.418 417.159 167.43C415.742 166.976 410.084 165.428 404.366 166.998C400.01 168.194 398.367 170.308 395.044 170.434C391.599 170.564 390.743 168.386 386.139 168.015C380.705 167.578 377.296 168.203 372.873 169.52C368.255 170.897 365.595 171.977 365.469 179.96C365.417 183.289 365.474 189.942 365.946 207.234C366.345 221.794 366.034 234.773 366.034 241.326C366.034 244.356 368.723 246.572 372.07 246.572C375.435 246.572 381.867 246.572 383.983 246.572C386.778 246.572 391.144 245.236 391.144 241.212C391.144 236.844 391.022 222.201 391.022 206.675C391.022 194.203 389.82 181.065 398.734 180.609C409.144 180.076 408.326 194.151 408.121 209.17C407.956 221.166 408.343 236.435 408.343 241.093C408.343 244.955 411.365 246.541 415.59 246.541C416.601 246.541 424.874 246.572 426.289 246.572C431.952 246.572 433.581 243.664 433.581 239.467C433.581 234.82 433.579 227.841 433.273 207.358Z" fill="white"/>
<path d="M358.94 239.692C357.457 222.842 359.045 202.39 355.765 186.387C353.265 174.193 343.817 167.58 330.21 166.871C320.907 166.386 303.813 167.808 299.218 176.39C295.387 183.547 297.331 197.708 305.253 197.708C313.075 198.069 317.474 175.229 328.793 176.851C334.101 177.194 335.353 181.892 334.602 187.713C334.101 191.594 332.581 197.582 318.106 202.326C311.534 204.48 305.101 208.67 300.024 213.35C281.735 233.479 304.268 258.797 327.672 245.228C336.956 239.638 340.644 249.632 350.088 248.804C356.646 248.229 359.355 244.386 358.943 239.692H358.94ZM331.954 225.275C331.419 231.662 328.423 233.265 325.236 233.227C320.43 233.167 317.097 227.584 317.45 222.947C317.889 217.216 320.942 212.753 323.483 210.817C326.92 208.135 331.379 208.575 331.827 212.893C332.154 216.679 332.264 221.57 331.951 225.275H331.954Z" fill="white"/>
<path d="M287.908 199.703C287.908 193.466 289.829 173.922 275.888 169.946C259.066 165.147 251.671 174.504 246.287 174.459C240.791 174.414 238.995 169.04 230.173 167.444C222.537 166.065 212.709 170.761 208.342 170.707C205.276 170.669 203.9 168.766 200.36 168.136C196.004 167.361 188.304 168.859 185.639 170.195C182.581 171.729 181.672 174.466 181.672 178.309C181.672 182.152 181.92 216.46 181.92 222.065C181.92 227.667 180.737 233.251 174.342 233.251C167.946 233.251 166.749 226.566 166.749 222.065C166.749 217.563 166.434 184.527 166.434 176.169C166.434 167.81 160.496 168.065 154.223 168.443C147.951 168.821 141.215 167.958 141.215 173.705C141.215 177.572 141.327 181.284 141.327 183.155C141.327 185.026 141.327 210.225 141.327 226.181C141.327 242.135 150.578 249.057 162.717 249.057C174.857 249.057 172.729 245.492 179.556 244.386C185.863 243.366 187.743 249.955 198.668 247.675C207.826 245.766 207.151 238.625 207.151 228.999C207.151 221.979 207.275 198.894 207.275 192.343C207.275 187.228 209.382 181.155 214.627 181.155C219.894 181.155 222.504 185.276 222.504 191.456C222.504 201.61 223.215 235.129 223.215 240.995C223.215 246.862 228.251 246.574 231.406 246.574C231.764 246.574 238.825 246.574 239.19 246.574C243.539 246.574 248.164 245.678 248.164 241.557C248.164 238.589 247.864 201.85 247.864 191.611C247.864 184.95 249.879 181.597 255.373 181.597C261.306 181.597 262.801 186.634 262.801 192.027C262.801 200.316 263.324 235.8 263.324 241.989C263.324 247.563 268.08 246.615 270.308 246.615C271.255 246.615 278.758 246.576 279.783 246.576C285.952 246.576 287.989 244.21 287.989 239.968C287.989 235.726 287.913 205.943 287.913 199.708L287.908 199.703Z" fill="white"/>
<path d="M122.062 169.594C105.994 162.903 98.5464 172.343 94.5747 169.986C87.6139 165.856 98.3007 139.785 83.9045 140.605C73.5397 141.195 65.5485 143.487 65.5723 149.848C65.5938 155.545 66.3237 236.499 66.3237 240.996C66.3237 244.396 67.8457 246.574 74.3126 246.574C75.3336 246.574 79.8612 246.574 80.9036 246.574C89.2885 246.574 91.4783 244.56 91.4783 240.913C91.4783 233.491 91.006 200.997 91.7694 189.516C92.0461 185.348 93.5847 180.554 100.717 180.554C104.095 180.554 107.096 184.801 107.692 190.201C108.942 201.551 108.611 234.007 108.611 239.745C108.611 245.226 111.251 246.57 115.82 246.57C119.202 246.57 122.198 246.57 126.363 246.57C131.556 246.57 133.908 243.55 133.908 240.244C133.908 236.551 133.467 210.016 133.467 190.013C133.467 180.737 128.391 172.229 122.065 169.594H122.062Z" fill="white"/>
</svg>
