<svg width="501" height="500" viewBox="0 0 501 500" fill="none" xmlns="http://www.w3.org/2000/svg">
<rect width="500" height="500" transform="translate(0.0820312)" fill="#252525"/>
<path d="M242.213 130.028C243.905 130.028 244.751 130.874 246.443 131.72C236.291 135.95 226.14 146.948 221.064 170.635L202.452 175.711C208.374 158.791 220.218 130.028 242.213 130.028ZM251.519 138.488C253.211 143.564 254.903 149.486 254.903 158.791C254.903 159.637 254.903 159.637 254.903 160.483L230.369 167.251C235.445 149.486 243.905 141.872 251.519 138.488ZM273.515 153.715L262.517 157.099C262.517 156.253 262.517 155.407 262.517 154.561C262.517 146.948 261.671 141.026 259.979 135.95C265.901 137.642 270.977 145.256 273.515 153.715ZM328.505 167.251C328.505 166.405 327.659 165.559 326.813 165.559C325.121 165.559 307.355 163.867 307.355 163.867C307.355 163.867 294.665 151.178 292.973 150.332C291.281 148.64 288.743 149.486 287.897 149.486C287.897 149.486 285.359 150.332 281.129 152.024C276.899 140.18 269.285 129.182 256.595 129.182H255.749C252.365 124.106 247.289 122.414 243.059 122.414C212.604 121.568 198.222 159.637 193.146 179.095C186.378 180.787 179.61 183.325 171.996 185.863C165.228 187.555 165.228 188.401 164.382 194.323C163.536 198.553 146.616 332.22 146.616 332.22L281.129 357.6L353.884 341.526C353.884 341.526 328.505 168.943 328.505 167.251Z" fill="#F6F6F6"/>
<path d="M325.966 165.56C325.12 165.56 307.354 163.868 307.354 163.868C307.354 163.868 294.664 151.178 292.972 150.332C292.126 149.486 292.126 149.486 291.28 149.486L281.128 357.6L353.884 341.526C353.884 341.526 328.504 168.944 328.504 167.252C328.504 166.406 326.812 165.56 325.966 165.56Z" fill="#5D5D5D"/>
<path d="M256.597 206.167L247.291 233.239C247.291 233.239 239.677 229.009 229.525 229.009C215.143 229.009 214.297 237.469 214.297 240.007C214.297 251.851 246.445 256.927 246.445 285.69C246.445 308.532 232.063 322.914 212.605 322.914C189.763 322.914 177.919 308.532 177.919 308.532L183.841 288.228C183.841 288.228 195.685 298.38 205.837 298.38C212.605 298.38 215.143 293.304 215.143 289.074C215.143 273 188.917 272.154 188.917 245.929C188.917 223.933 204.991 202.783 236.293 202.783C250.675 201.937 256.597 206.167 256.597 206.167Z" fill="#252525"/>
</svg>
