<svg width="227" height="91" viewBox="0 0 227 91" fill="none" xmlns="http://www.w3.org/2000/svg">
<path d="M60.6422 13.562H37.6957V55.9159H22.9573V13.562H0V0.835449H60.6422V13.562Z" fill="black"/>
<path d="M187.622 0.835449C199.186 0.835449 208.481 3.3528 215.517 8.38749C218.766 10.6036 221.423 13.5836 223.263 17.0691C225.102 20.5547 226.06 24.4275 226.06 28.3649C226.06 32.3023 225.102 36.1751 223.263 39.6607C221.423 43.1462 218.766 46.1262 215.517 48.3423C208.471 53.3878 199.176 55.9051 187.622 55.8943H157.102V0.835449H187.622ZM171.851 12.766V43.9316H187.439C194.991 43.9316 200.725 42.5115 204.684 39.6499C206.513 38.3805 208.008 36.6807 209.041 34.7121C210.073 32.7434 210.611 30.538 210.611 28.3219C210.611 26.1057 210.073 23.9004 209.041 21.9317C208.008 19.963 206.513 18.2632 204.684 16.9938C200.725 14.1537 194.991 12.7444 187.439 12.7444L171.851 12.7875V12.766Z" fill="black"/>
<path d="M91.2253 0.835449L108.847 35.0993L108.879 35.0563L108.9 35.0993L126.543 0.835449H149.727V55.9159H134.967V14.3258L116.678 49.9452H101.09L82.7803 14.3258V55.9159H68.0312V0.835449H91.236H91.2253Z" fill="black"/>
<path d="M30.561 72.9125C32.2607 72.8264 33.9282 73.3858 35.2299 74.4723C35.7786 75.0102 36.2197 75.6665 36.5101 76.3765C36.8113 77.0865 36.9619 77.8503 36.9619 78.6249C36.9619 79.3995 36.8113 80.1633 36.5101 80.8733C36.2089 81.5833 35.7786 82.2288 35.2299 82.7774C33.9282 83.864 32.25 84.4234 30.561 84.3373H26.6344V89.9637H22.8906V72.977L30.561 72.9125V72.9125ZM30.249 81.0454C32.0779 81.0454 33.0353 80.1418 33.0353 78.6464C33.0353 77.1511 31.981 76.2582 30.249 76.2582H26.6344V81.0454H30.249Z" fill="black"/>
<path d="M59.3355 89.8905L58.3027 86.7707H51.4607L50.428 89.8905H46.2539L52.4827 72.9038H57.1517L63.6494 89.8905H59.314H59.3355ZM52.4289 83.9414H57.3561L54.8925 76.6691L52.4289 83.9414Z" fill="black"/>
<path d="M90.0628 89.8899H85.5014L80.8217 84.0269H78.8746V89.8899H75.1523V72.9032H83.2208C84.9205 72.7956 86.5987 73.355 87.8897 74.4631C88.4168 74.9687 88.8256 75.5712 89.0946 76.2489C89.3635 76.9267 89.4819 77.6474 89.4496 78.3682C89.4926 79.6484 89.0623 80.8963 88.2555 81.8861C87.4163 82.8435 86.2652 83.4567 84.9958 83.6181L90.0628 89.8792V89.8899ZM78.8315 81.0362H82.8227C84.5547 81.0362 85.5014 80.111 85.5014 78.6157C85.5014 77.1203 84.4579 76.2597 82.8227 76.2597H78.8315V81.0254V81.0362Z" fill="black"/>
<path d="M114.361 72.9136V76.1194H109.068V89.8895H105.324V76.1194H100.031V72.9136H114.361V72.9136Z" fill="black"/>
<path d="M136.594 72.9136H140.37V89.9003H136.562L129.257 78.9918V89.9003H125.535V72.9136H129.333L136.616 83.8221L136.594 72.9136V72.9136Z" fill="black"/>
<path d="M153.406 89.8905V72.9038H165.541V76.1634H157.128V79.8857H164.917V83.0055H157.128V86.6847H165.541V89.9443L153.406 89.9013V89.8905Z" fill="black"/>
<path d="M193.117 89.8894H188.556L183.887 84.0264H181.94V89.8894H178.207V72.9027H186.286C187.954 72.8166 189.6 73.376 190.88 74.4626C191.418 74.9574 191.837 75.5599 192.128 76.2376C192.407 76.9154 192.537 77.6362 192.515 78.3677C192.558 79.6479 192.128 80.8958 191.31 81.8855C190.482 82.843 189.32 83.4562 188.061 83.6175L193.117 89.8786V89.8894ZM181.886 81.0357H185.877C187.609 81.0357 188.556 80.1105 188.556 78.6151C188.556 77.1198 187.513 76.2592 185.877 76.2592H181.886V81.0249V81.0357Z" fill="black"/>
<path d="M205.962 88.6943C205.36 88.2425 204.865 87.6723 204.51 87.0161C204.155 86.3599 203.961 85.6283 203.918 84.8753H207.737C207.856 86.22 209.093 87.0268 210.846 87.0268C212.6 87.0268 213.622 86.2953 213.622 85.0474C213.622 84.8215 213.579 84.6063 213.493 84.3912C213.396 84.1868 213.267 84.0039 213.106 83.8425C212.955 83.7134 212.772 83.6058 212.578 83.5413C212.256 83.4122 211.922 83.3261 211.589 83.2723L208.845 82.8097C205.564 82.2288 203.918 80.6474 203.918 78.0548C203.886 77.3017 204.037 76.5594 204.359 75.8709C204.682 75.1932 205.155 74.5907 205.758 74.1389C207.135 73.0739 208.845 72.5144 210.588 72.579C212.266 72.5037 213.912 73.0201 215.257 74.0313C215.838 74.4831 216.301 75.0533 216.613 75.7095C216.925 76.3658 217.086 77.0865 217.086 77.8181H213.267C213.267 77.5169 213.192 77.2156 213.052 76.9359C212.912 76.6562 212.708 76.4303 212.46 76.2582C211.847 75.8279 211.115 75.6127 210.373 75.645C208.813 75.645 207.802 76.3443 207.802 77.4953C207.802 78.6464 208.641 79.0552 210.04 79.2704L212.783 79.7222C214.138 79.8621 215.397 80.4753 216.354 81.4327C217.14 82.3149 217.549 83.4767 217.516 84.6601C217.549 85.4132 217.387 86.1555 217.064 86.8332C216.742 87.5109 216.258 88.1026 215.655 88.5545C214.246 89.6303 212.514 90.1789 210.739 90.1144C209.028 90.1681 207.35 89.6625 205.962 88.662V88.6943Z" fill="black"/>
</svg>
