<svg width="500" height="500" viewBox="0 0 500 500" fill="none" xmlns="http://www.w3.org/2000/svg">
<rect width="500" height="500" fill="#252525"/>
<path d="M163 356.989V354.632C171.045 353.206 173.387 349.226 173.387 337.318V204.884C173.387 192.976 171.045 188.996 163 187.57V185.213H186.873L220.67 183.502V163.48C220.67 151.572 218.329 147.592 210.284 146.167V143.809H234.156L270.031 142C290.167 142 307.082 146.594 318.942 155.268C330.757 163.919 337 176.254 337 190.947C337 209.083 326.328 224.95 309.819 231.386C303.147 233.974 296.806 235.684 289.892 236.781L289.475 236.846L289.431 237.263C287.672 253.393 277.373 267.011 262.546 272.789C254.116 276.046 246.225 277.943 236.97 278.93L236.475 278.985V295.914C236.475 307.822 238.817 311.803 246.873 313.228V315.586H210.284V313.228C218.329 311.803 220.67 307.822 220.67 295.914V279.752H219.868C210.943 279.752 203.502 279.259 189.774 278.206L189.181 278.162V337.329C189.181 349.237 191.522 353.217 199.578 354.643V357H163V356.989ZM214.153 187.493C203.513 187.493 196.314 189.018 192.753 192.033C189.62 194.577 189.181 197.504 189.181 206.967V273.798L189.664 273.864C201.755 275.443 208.404 275.947 217.01 275.947C217.703 275.947 218.362 275.925 219.022 275.904C219.395 275.893 220.67 275.86 220.67 275.86V187.636L220.143 187.614C217.999 187.537 216.043 187.493 214.153 187.493ZM236.453 274.346L237.102 274.226C259.326 270.07 271.68 258.173 273.812 238.864L273.878 238.239L273.241 238.261C271.251 238.316 269.196 238.349 267.13 238.349C258.205 238.349 250.764 237.855 237.036 236.803L236.442 236.759V274.346H236.453ZM236.453 232.384L236.937 232.45C249.027 234.029 255.677 234.533 264.283 234.533C267.218 234.533 270.185 234.412 273.636 234.171L274.142 234.138L274.153 233.634C274.153 233.491 274.164 233.349 274.175 233.206C274.186 233.02 274.197 232.833 274.197 232.636C274.197 208.623 262.074 194.522 237.124 189.533L236.464 189.401V232.384H236.453ZM261.425 146.09C250.786 146.09 243.587 147.614 240.026 150.629C236.893 153.184 236.453 156.101 236.453 165.564V184.182L236.937 184.237C269.24 188.129 288.958 205.586 289.672 230.925L289.694 231.627L290.365 231.441C310.995 225.772 321.459 212.23 321.459 191.211C321.47 160.849 301.829 146.09 261.425 146.09Z" fill="#F2F2F2"/>
</svg>
