<svg width="500" height="499" viewBox="0 0 500 499" fill="none" xmlns="http://www.w3.org/2000/svg">
<rect width="499.227" height="498.929" fill="#252525"/>
<path d="M249.574 152.614C243.641 152.599 237.718 153.102 231.873 154.12C230.827 154.312 229.748 154.088 228.866 153.494C227.984 152.901 227.369 151.986 227.152 150.946L223.856 135.523C223.791 135.176 223.802 134.819 223.89 134.477C223.978 134.134 224.141 133.816 224.366 133.544C224.592 133.272 224.875 133.053 225.194 132.903C225.514 132.753 225.863 132.675 226.216 132.675H254.945C255.257 132.684 255.563 132.588 255.814 132.401C256.064 132.215 256.244 131.949 256.324 131.647C256.404 131.345 256.38 131.025 256.255 130.739C256.131 130.453 255.913 130.217 255.637 130.071L239.36 120.915C238.12 120.212 236.717 119.847 235.291 119.857H226.461C226.114 119.855 225.772 119.771 225.464 119.612C225.155 119.453 224.889 119.223 224.686 118.941C224.484 118.66 224.351 118.334 224.299 117.991C224.246 117.648 224.276 117.297 224.385 116.968L231.954 95.7265C232.065 95.4194 232.101 95.0899 232.057 94.7661C232.014 94.4423 231.894 94.1337 231.706 93.8663C231.519 93.5989 231.27 93.3805 230.98 93.2297C230.69 93.079 230.368 93.0001 230.041 93H223.287C222.873 93.0106 222.48 93.1826 222.191 93.4791C221.902 93.7756 221.74 94.1731 221.74 94.587V117.578C221.73 118.186 221.481 118.766 221.047 119.192C220.613 119.618 220.029 119.857 219.421 119.857H211.486C211.119 119.857 210.767 120.003 210.508 120.262C210.248 120.521 210.102 120.873 210.102 121.24V131.251C210.102 131.621 210.247 131.978 210.505 132.244C210.763 132.51 211.115 132.664 211.486 132.675H218.444C218.859 132.669 219.271 132.746 219.656 132.901C220.041 133.057 220.391 133.287 220.686 133.578C220.982 133.87 221.216 134.217 221.376 134.6C221.536 134.982 221.618 135.393 221.618 135.808V153.509C221.665 154.396 221.419 155.275 220.919 156.009C220.42 156.744 219.693 157.295 218.851 157.578C176.124 172.227 160.092 218.616 160.092 269.888C160.092 332.229 184.507 387 249.614 387C314.722 387 339.137 332.229 339.137 269.888C339.137 207.548 314.722 152.736 249.614 152.736L249.574 152.614ZM249.614 383.663C199.929 383.663 171.689 347.814 171.689 269.726C171.689 211.78 187.315 177.151 215.718 163.153C216.345 162.828 217.046 162.672 217.752 162.7C218.457 162.728 219.144 162.939 219.743 163.312C220.343 163.686 220.834 164.209 221.17 164.83C221.506 165.452 221.675 166.15 221.659 166.856V341.832C221.66 342.058 221.603 342.281 221.495 342.48C221.387 342.679 221.23 342.847 221.039 342.969C220.848 343.091 220.629 343.162 220.403 343.177C220.177 343.191 219.951 343.149 219.746 343.053C208.563 337.837 199.696 328.68 194.843 317.335L193.459 317.783C199.36 347.692 222.229 366.614 249.614 366.614C277 366.614 299.95 347.854 305.851 317.783L304.427 317.417C299.382 329.134 290.094 338.509 278.424 343.663C278.248 343.747 278.054 343.784 277.86 343.771C277.666 343.758 277.478 343.695 277.315 343.589C277.152 343.483 277.018 343.337 276.927 343.165C276.837 342.992 276.792 342.8 276.797 342.605L274.925 181.098C274.921 180.817 274.834 180.544 274.675 180.312C274.515 180.08 274.291 179.901 274.03 179.796L269.024 177.802C268.81 177.716 268.578 177.684 268.348 177.708C268.118 177.732 267.898 177.812 267.705 177.94C267.513 178.068 267.355 178.241 267.244 178.444C267.134 178.647 267.075 178.873 267.071 179.105L264.915 316.115C264.898 316.426 264.769 316.721 264.553 316.946C264.337 317.17 264.048 317.31 263.738 317.34C263.427 317.369 263.117 317.287 262.863 317.107C262.608 316.926 262.426 316.661 262.351 316.359L229.594 162.705C229.475 162.173 229.465 161.623 229.563 161.086C229.662 160.55 229.867 160.039 230.167 159.583C230.467 159.128 230.855 158.737 231.309 158.435C231.763 158.132 232.273 157.924 232.809 157.823C238.335 156.776 243.949 156.258 249.574 156.276C299.299 156.276 327.54 192.167 327.54 270.214C327.54 348.261 299.299 384.152 249.574 384.152L249.614 383.663ZM232.157 346.634L232.971 240.143C232.98 239.828 233.102 239.528 233.315 239.297C233.528 239.066 233.817 238.919 234.129 238.885C234.442 238.85 234.756 238.929 235.014 239.108C235.273 239.287 235.458 239.553 235.535 239.858L260.194 347.936C260.23 348.107 260.23 348.284 260.195 348.455C260.161 348.626 260.092 348.789 259.994 348.933C259.895 349.078 259.768 349.201 259.621 349.295C259.474 349.389 259.309 349.453 259.136 349.482C255.966 349.894 252.771 350.098 249.574 350.093C244.264 350.11 238.969 349.536 233.785 348.383C233.319 348.288 232.9 348.033 232.603 347.661C232.306 347.289 232.148 346.825 232.157 346.349" fill="#F6F6F6"/>
</svg>
