<svg width="231" height="37" viewBox="0 0 231 37" fill="none" xmlns="http://www.w3.org/2000/svg">
<path d="M188.438 3.31459V11.4186C188.438 14.2028 186.631 15.7938 183.582 15.7938C182.19 15.7938 180.831 15.4624 179.356 14.816L179.787 13.3079C181.013 13.9045 182.173 14.3354 183.515 14.3354C185.405 14.3354 186.797 13.5731 186.797 11.3192V10.2254C186.101 11.4352 184.891 12.1644 183.3 12.1644C180.781 12.1644 178.908 10.3083 178.908 7.67321C178.908 5.00501 180.781 3.11572 183.3 3.11572C184.874 3.11572 186.101 3.8615 186.797 5.08788V3.31459H188.438ZM186.797 7.65665C186.797 5.89994 185.537 4.60725 183.698 4.60725C181.842 4.60725 180.599 5.89994 180.599 7.65665C180.599 9.41335 181.875 10.6729 183.698 10.6729C185.471 10.6729 186.797 9.4465 186.797 7.65665Z" fill="#27292A"/>
<path d="M197.744 3.52233L197.363 5.01389C197.031 4.86473 196.451 4.68244 195.788 4.68244C193.733 4.68244 192.49 6.55513 192.49 9.83652V12.4219H190.85V3.3069H192.49V5.77622C193.07 4.25153 194.197 3.17432 195.888 3.17432C196.65 3.1826 197.296 3.33174 197.744 3.52233Z" fill="#27292A"/>
<path d="M207.877 3.31494V12.4299H206.22V9.82802C205.64 11.4356 204.397 12.6288 202.64 12.6288C200.386 12.6288 198.994 11.2864 198.994 8.65135V3.31494H200.651V8.48564C200.651 10.1595 201.48 11.0875 202.922 11.0875C204.861 11.0875 206.22 9.44684 206.22 6.06601V3.31494H207.877Z" fill="#27292A"/>
<path d="M220 7.83898C220 10.6232 218.094 12.6119 215.459 12.6119C213.917 12.6119 212.641 11.833 211.912 10.5735V15.5784H210.271V3.34777H211.912V5.13762C212.641 3.87809 213.917 3.11575 215.459 3.11575C218.11 3.10746 220 5.04648 220 7.83898ZM218.309 7.85554C218.309 5.94968 217.017 4.59072 215.144 4.59072C213.255 4.59072 211.912 5.94968 211.912 7.85554C211.912 9.7614 213.255 11.1204 215.144 11.1204C217.017 11.1204 218.309 9.7614 218.309 7.85554Z" fill="#27292A"/>
<path d="M223.044 8.0714C223.11 10.1927 224.652 11.1539 226.392 11.1539C227.436 11.1539 228.612 10.7396 229.574 9.79495L230.286 11.0876C229.093 12.1317 227.668 12.6289 226.342 12.6289C223.723 12.6289 221.387 11.071 221.387 7.97195C221.387 5.10487 223.243 3.11616 226.209 3.11616C229.143 3.11616 230.568 5.07175 230.618 7.5245L230.634 8.02169L230.651 8.0714H223.044ZM223.177 6.81186H228.994C228.828 5.48605 227.85 4.55798 226.209 4.55798C224.801 4.55798 223.591 5.32032 223.177 6.81186ZM224.95 1.07773C224.95 0.464539 225.497 0.000488281 226.209 0.000488281C226.922 0.000488281 227.469 0.464539 227.469 1.07773C227.469 1.69092 226.922 2.15494 226.209 2.15494C225.497 2.15494 224.95 1.69092 224.95 1.07773Z" fill="#27292A"/>
<path d="M0 9.98544H13.5979V35.2836H20.0612V9.98544H33.6509V3.58838H0V9.98544Z" fill="#27292A"/>
<path d="M131.157 13.2995C130.867 11.9654 130.411 10.6893 129.79 9.47119C129.168 8.25309 128.282 7.151 127.121 6.17321C126.326 5.46059 125.423 4.90539 124.42 4.50765C123.417 4.10991 122.415 3.84474 121.387 3.70387C120.368 3.57129 119.365 3.56302 118.388 3.67075C117.41 3.78676 116.523 3.96905 115.719 4.23421C111.634 5.65946 109.032 8.65911 107.922 13.2332L107.657 14.3021C107.392 12.794 106.936 11.3356 106.29 9.93522C105.643 8.53483 104.682 7.28358 103.389 6.17321C102.586 5.46059 101.691 4.90539 100.688 4.50765C99.6937 4.10991 98.6827 3.84474 97.6552 3.70387C96.636 3.57129 95.6334 3.56302 94.6556 3.67075C93.6778 3.78676 92.7911 3.96905 91.9874 4.23421C87.9022 5.65946 85.3003 8.65911 84.1899 13.2332V3.57129H77.7266V35.2914H84.1899V26.7648V25.0992C84.1899 23.5414 84.1899 22.0333 84.1899 20.5666C84.1899 19.0999 84.3142 17.6995 84.5545 16.3654C84.7948 15.0313 85.2174 13.8132 85.8223 12.7029C86.4189 11.5925 87.347 10.6395 88.59 9.83576C89.6092 9.17286 90.645 8.79998 91.689 8.73369C92.7331 8.6674 93.7192 8.75856 94.6556 8.99886C95.5919 9.23916 96.4206 9.5789 97.158 10.0015C97.8872 10.4241 98.4341 10.7887 98.7905 11.1036C99.4534 11.6836 99.992 12.4377 100.39 13.3658C100.787 14.3021 101.077 15.2468 101.26 16.1997C101.434 17.1526 101.55 18.0641 101.591 18.9342C101.633 19.8042 101.658 20.4589 101.658 20.898V35.2914L108.055 35.2251V21.1632V18.1636C108.187 16.4731 108.552 14.9236 109.157 13.4983C109.762 12.0731 110.814 10.855 112.322 9.83576C113.341 9.17286 114.377 8.79998 115.421 8.73369C116.465 8.6674 117.451 8.75856 118.388 8.99886C119.324 9.23916 120.153 9.5789 120.89 10.0015C121.619 10.4241 122.166 10.7887 122.523 11.1036C123.185 11.6836 123.724 12.4377 124.122 13.3658C124.52 14.3021 124.81 15.2468 124.984 16.1997C125.158 17.1526 125.274 18.0641 125.315 18.9342C125.356 19.8042 125.381 20.4589 125.381 20.898V35.2914L131.778 35.2251V21.1632C131.778 19.9617 131.745 18.6856 131.679 17.3349C131.621 15.976 131.447 14.6253 131.157 13.2995Z" fill="#27292A"/>
<path d="M165.638 7.89716C162.613 4.60748 158.462 2.9668 153.175 2.9668C150.64 2.9668 148.336 3.38111 146.248 4.20145C144.16 5.0218 142.362 6.25646 140.845 7.89716C138.044 10.9217 136.652 14.7831 136.652 19.4898C136.652 21.8431 136.984 23.9975 137.647 25.9531C138.318 27.9087 139.287 29.5991 140.58 31.0161C141.069 31.5961 141.69 32.1762 142.444 32.7479C143.199 33.328 144.085 33.8583 145.113 34.3472C146.132 34.8361 147.309 35.2338 148.643 35.5487C149.977 35.8553 151.485 36.0127 153.175 36.0127C155.844 36.0127 158.23 35.5901 160.335 34.7449C162.448 33.8997 164.238 32.6816 165.696 31.0824C167.03 29.6157 168.033 27.9087 168.696 25.9531C169.359 23.9975 169.698 21.8431 169.698 19.4898C169.698 14.7417 168.348 10.872 165.638 7.89716ZM162.97 22.622C162.746 23.7821 162.274 24.8759 161.536 25.92C160.799 26.964 159.78 27.8341 158.47 28.5219C157.161 29.2096 155.396 29.5577 153.175 29.5577C146.463 29.5577 143.116 26.2017 143.116 19.498C143.116 16.2995 143.994 13.8136 145.751 12.0321C147.507 10.2588 149.985 9.36386 153.184 9.36386C155.446 9.36386 157.26 9.75332 158.611 10.5322C159.97 11.3111 160.989 12.2309 161.677 13.2999C162.365 14.3688 162.812 15.4792 163.011 16.631C163.21 17.7911 163.31 18.744 163.31 19.498C163.301 20.4261 163.193 21.4702 162.97 22.622Z" fill="#27292A"/>
<path d="M66.7614 14.634C66.1564 12.8027 66.5542 11.3029 69.4461 10.9217C71.2526 10.6897 72.4458 9.28098 72.4458 7.25082L72.4624 3.57998H65.1041V10.3251C64.5903 9.45501 63.9937 8.64293 63.3059 7.89716C60.2814 4.60748 56.13 2.9668 50.8433 2.9668C48.3077 2.9668 46.0041 3.38111 43.9159 4.20145C41.8277 5.0218 40.0296 6.25646 38.5132 7.89716C35.7124 10.9217 34.3203 14.7831 34.3203 19.4898C34.3203 21.8431 34.6518 23.9975 35.3147 25.9531C35.9859 27.9087 36.9554 29.5991 38.248 31.0161C38.7369 31.5961 39.3584 32.1762 40.1125 32.7479C40.8665 33.328 41.7532 33.8583 42.7807 34.3472C43.7999 34.8361 44.9766 35.2338 46.3107 35.5487C47.6448 35.8553 49.1529 36.0127 50.8433 36.0127C53.5115 36.0127 55.898 35.5901 58.0027 34.7449C60.1157 33.8997 61.9056 32.6816 63.364 31.0824C63.8777 30.5189 64.3335 29.8974 64.7478 29.2593L66.4713 35.2835H72.8684L67.5403 17.0784C67.4325 16.6973 67.1177 15.7112 66.7614 14.634ZM60.646 22.622C60.4223 23.7821 59.95 24.8759 59.2125 25.92C58.475 26.964 57.4558 27.8341 56.1465 28.5219C54.8373 29.2096 53.0723 29.5577 50.8516 29.5577C44.1396 29.5577 40.7919 26.2017 40.7919 19.498C40.7919 16.2995 41.6703 13.8136 43.427 12.0321C45.1837 10.2588 47.6613 9.36386 50.8599 9.36386C53.122 9.36386 54.9367 9.75332 56.2874 10.5322C57.6464 11.3111 58.6656 12.2309 59.3534 13.2999C60.0411 14.3688 60.4886 15.4792 60.6875 16.631C60.8863 17.7911 60.9858 18.744 60.9858 19.498C60.9858 20.4261 60.8698 21.4702 60.646 22.622Z" fill="#27292A"/>
</svg>
